<?xml version="1.0" encoding="utf-8"?>
<!-- Generator: Adobe Illustrator 16.0.0, SVG Export Plug-In . SVG Version: 6.00 Build 0)  -->
<!DOCTYPE svg PUBLIC "-//W3C//DTD SVG 1.1//EN" "http://www.w3.org/Graphics/SVG/1.1/DTD/svg11.dtd">
<svg version="1.1" id="Layer_1" xmlns="http://www.w3.org/2000/svg" xmlns:xlink="http://www.w3.org/1999/xlink" x="0px" y="0px"
	 width="250px" height="91.606px" viewBox="0 0 250 91.606" enable-background="new 0 0 250 91.606" xml:space="preserve">
<g>
	<rect y="39.057" fill="#010101" width="10.972" height="52.548"/>
	<g>
		<rect x="170.25" y="39.057" fill="#010101" width="30.027" height="10.491"/>
		<rect x="170.25" y="57.488" fill="#010101" width="30.027" height="10.49"/>
		<path fill="#010101" d="M159.664,50.029c0-9.624,3.658-10.972,10.971-10.972v52.548h-10.971
			C159.664,91.605,159.664,63.166,159.664,50.029"/>
	</g>
	<g>
		<rect x="125.065" y="39.057" fill="#2590CF" width="30.027" height="10.491"/>
		<rect x="125.065" y="57.488" fill="#2590CF" width="30.027" height="10.49"/>
		<rect x="125.065" y="81.114" fill="#2590CF" width="30.027" height="10.491"/>
		<path fill="#2590CF" d="M114.479,50.029c0-9.624,3.657-10.972,10.972-10.972v29.45h-10.972
			C114.479,68.507,114.479,63.166,114.479,50.029"/>
		<path fill="#2590CF" d="M114.479,80.634c0,9.625,3.657,10.972,10.972,10.972V62.155h-10.972
			C114.479,62.155,114.479,67.497,114.479,80.634"/>
	</g>
	<g>
		<rect x="214.487" y="81.114" fill="#010101" width="25.73" height="10.491"/>
		<path fill="#010101" d="M250,80.633c0,9.624-3.658,10.972-10.972,10.972V39.057H250C250,39.057,250,67.496,250,80.633"/>
		<path fill="#010101" d="M205.282,80.633c0,9.624,3.658,10.972,10.972,10.972V39.057h-10.972
			C205.282,39.057,205.282,67.496,205.282,80.633"/>
	</g>
	<g>
		<rect x="15.495" y="39.057" fill="#010101" width="10.972" height="52.548"/>
		<polygon fill="#010101" points="60.343,85.687 49.372,91.605 15.495,44.11 26.466,39.057 		"/>
		<rect x="49.372" y="39.057" fill="#010101" width="10.971" height="52.548"/>
	</g>
	<g>
		<rect x="64.866" y="39.057" fill="#2590CF" width="10.972" height="52.548"/>
		<polygon fill="#2590CF" points="109.715,85.687 98.743,91.605 64.866,44.11 75.838,39.057 		"/>
		<rect x="98.743" y="39.057" fill="#2590CF" width="10.972" height="52.548"/>
	</g>
	<g>
		<rect x="102.822" y="19.228" fill="#2590CF" width="0.561" height="2.747"/>
		<rect x="105.205" y="25.751" fill="#2590CF" width="0.561" height="2.747"/>
		<g>
			<g>
				<rect x="110.979" y="16.481" fill="#2590CF" width="2.747" height="2.747"/>
				<rect x="115.058" y="16.481" fill="#2590CF" width="2.747" height="2.747"/>
				<rect x="119.137" y="16.481" fill="#2590CF" width="2.747" height="2.747"/>
				<rect x="123.215" y="16.481" fill="#2590CF" width="2.748" height="2.747"/>
				<rect x="127.294" y="16.481" fill="#2590CF" width="2.747" height="2.747"/>
				<rect x="131.374" y="16.481" fill="#2590CF" width="2.746" height="2.747"/>
				<rect x="135.452" y="16.481" fill="#2590CF" width="2.747" height="2.747"/>
				<rect x="139.531" y="16.481" fill="#2590CF" width="2.747" height="2.747"/>
				<rect x="143.61" y="16.481" fill="#2590CF" width="2.747" height="2.747"/>
				<rect x="147.689" y="16.481" fill="#2590CF" width="2.747" height="2.747"/>
				<rect x="151.769" y="16.481" fill="#2590CF" width="2.747" height="2.747"/>
				<rect x="155.847" y="16.481" fill="#2590CF" width="2.747" height="2.747"/>
				<rect x="159.925" y="16.481" fill="#2590CF" width="2.747" height="2.747"/>
				<rect x="164.005" y="16.481" fill="#2590CF" width="2.746" height="2.747"/>
				<rect x="168.083" y="16.481" fill="#2590CF" width="2.747" height="2.747"/>
				<rect x="172.162" y="16.481" fill="#2590CF" width="2.748" height="2.747"/>
				<rect x="176.241" y="16.481" fill="#2590CF" width="2.748" height="2.747"/>
				<rect x="180.32" y="16.481" fill="#2590CF" width="2.748" height="2.747"/>
				<rect x="184.399" y="16.481" fill="#2590CF" width="2.746" height="2.747"/>
				<rect x="188.479" y="16.481" fill="#2590CF" width="2.746" height="2.747"/>
				<rect x="192.558" y="16.481" fill="#2590CF" width="2.746" height="2.747"/>
				<rect x="196.636" y="16.481" fill="#2590CF" width="2.747" height="2.747"/>
				<rect x="200.715" y="16.481" fill="#2590CF" width="2.747" height="2.747"/>
				<rect x="204.794" y="16.481" fill="#2590CF" width="2.747" height="2.747"/>
				<rect x="221.233" y="16.481" fill="#2590CF" width="2.746" height="2.747"/>
				<rect x="225.313" y="16.481" fill="#2590CF" width="2.746" height="2.747"/>
				<rect x="229.391" y="16.481" fill="#2590CF" width="2.747" height="2.747"/>
				<rect x="233.47" y="16.481" fill="#2590CF" width="2.747" height="2.747"/>
				<rect x="237.549" y="16.481" fill="#2590CF" width="2.747" height="2.747"/>
				<rect x="241.628" y="16.481" fill="#2590CF" width="2.747" height="2.747"/>
			</g>
			<g>
				<rect x="106.9" y="16.481" fill="#2590CF" width="2.747" height="2.747"/>
				<rect x="106.9" y="12.361" fill="#2590CF" width="2.747" height="2.747"/>
				<rect x="106.9" y="32.383" fill="#2590CF" width="2.747" height="2.747"/>
				<rect x="106.9" y="28.263" fill="#2590CF" width="2.747" height="2.747"/>
			</g>
		</g>
	</g>
	<g>
		<rect x="104.258" y="19.228" fill="#010101" width="1.507" height="2.747"/>
		<rect x="102.822" y="25.751" fill="#010101" width="1.507" height="2.747"/>
		<g>
			<rect x="110.979" y="20.602" fill="#010101" width="2.747" height="2.747"/>
			<rect x="115.058" y="20.602" fill="#010101" width="2.747" height="2.747"/>
			<rect x="119.137" y="20.602" fill="#010101" width="2.747" height="2.747"/>
			<rect x="123.215" y="20.602" fill="#010101" width="2.748" height="2.747"/>
			<rect x="127.294" y="20.602" fill="#010101" width="2.747" height="2.747"/>
			<rect x="131.374" y="20.602" fill="#010101" width="2.746" height="2.747"/>
			<rect x="135.452" y="20.602" fill="#010101" width="2.747" height="2.747"/>
			<rect x="139.531" y="20.602" fill="#010101" width="2.747" height="2.747"/>
			<rect x="143.61" y="20.602" fill="#010101" width="2.747" height="2.747"/>
			<rect x="147.689" y="20.602" fill="#010101" width="2.747" height="2.747"/>
			<rect x="151.769" y="20.602" fill="#010101" width="2.747" height="2.747"/>
			<rect x="155.847" y="20.602" fill="#010101" width="2.747" height="2.747"/>
			<rect x="159.925" y="20.602" fill="#010101" width="2.747" height="2.747"/>
			<rect x="164.005" y="20.602" fill="#010101" width="2.746" height="2.747"/>
			<rect x="168.083" y="20.602" fill="#010101" width="2.747" height="2.747"/>
			<rect x="172.162" y="20.602" fill="#010101" width="2.748" height="2.747"/>
			<rect x="176.241" y="20.602" fill="#010101" width="2.748" height="2.747"/>
			<rect x="180.32" y="20.602" fill="#010101" width="2.748" height="2.747"/>
			<rect x="184.399" y="20.602" fill="#010101" width="2.746" height="2.747"/>
			<rect x="188.479" y="20.602" fill="#010101" width="2.746" height="2.747"/>
			<rect x="192.558" y="20.602" fill="#010101" width="2.746" height="2.747"/>
			<rect x="196.636" y="20.602" fill="#010101" width="2.747" height="2.747"/>
			<rect x="200.715" y="20.602" fill="#010101" width="2.747" height="2.747"/>
			<rect x="204.794" y="20.602" fill="#010101" width="2.747" height="2.747"/>
			<rect x="221.233" y="20.602" fill="#010101" width="2.746" height="2.747"/>
			<rect x="225.313" y="20.602" fill="#010101" width="2.746" height="2.747"/>
			<rect x="229.391" y="20.602" fill="#010101" width="2.747" height="2.747"/>
			<rect x="233.47" y="20.602" fill="#010101" width="2.747" height="2.747"/>
			<rect x="237.549" y="20.602" fill="#010101" width="2.747" height="2.747"/>
			<rect x="221.233" y="24.722" fill="#010101" width="2.746" height="2.747"/>
			<rect x="225.313" y="24.722" fill="#010101" width="2.746" height="2.747"/>
			<rect x="229.391" y="24.722" fill="#010101" width="2.747" height="2.747"/>
			<rect x="233.47" y="24.722" fill="#010101" width="2.747" height="2.747"/>
			<rect x="221.233" y="28.842" fill="#010101" width="2.746" height="2.747"/>
			<rect x="225.313" y="28.842" fill="#010101" width="2.746" height="2.747"/>
			<rect x="229.391" y="28.842" fill="#010101" width="2.747" height="2.747"/>
			<rect x="221.233" y="32.962" fill="#010101" width="2.746" height="2.747"/>
			<rect x="225.313" y="32.962" fill="#010101" width="2.746" height="2.747"/>
			<rect x="98.743" y="16.481" fill="#010101" width="2.747" height="2.747"/>
			<rect x="106.9" y="22.726" fill="#010101" width="2.747" height="2.747"/>
			<rect x="98.743" y="12.361" fill="#010101" width="2.747" height="2.747"/>
			<rect x="98.743" y="32.383" fill="#010101" width="2.747" height="2.747"/>
			<rect x="98.743" y="28.263" fill="#010101" width="2.747" height="2.747"/>
			<g>
				<rect x="110.979" y="12.361" fill="#010101" width="2.747" height="2.747"/>
				<rect x="115.058" y="12.361" fill="#010101" width="2.747" height="2.747"/>
				<rect x="119.137" y="12.361" fill="#010101" width="2.747" height="2.747"/>
				<rect x="123.215" y="12.361" fill="#010101" width="2.748" height="2.747"/>
				<rect x="127.294" y="12.361" fill="#010101" width="2.747" height="2.747"/>
				<rect x="131.374" y="12.361" fill="#010101" width="2.746" height="2.747"/>
				<rect x="135.452" y="12.361" fill="#010101" width="2.747" height="2.747"/>
				<rect x="139.531" y="12.361" fill="#010101" width="2.747" height="2.747"/>
				<rect x="143.61" y="12.361" fill="#010101" width="2.747" height="2.747"/>
				<rect x="147.689" y="12.361" fill="#010101" width="2.747" height="2.747"/>
				<rect x="151.769" y="12.361" fill="#010101" width="2.747" height="2.747"/>
				<rect x="155.847" y="12.361" fill="#010101" width="2.747" height="2.747"/>
				<rect x="159.925" y="12.361" fill="#010101" width="2.747" height="2.747"/>
				<rect x="164.005" y="12.361" fill="#010101" width="2.746" height="2.747"/>
				<rect x="168.083" y="12.361" fill="#010101" width="2.747" height="2.747"/>
				<rect x="172.162" y="12.361" fill="#010101" width="2.748" height="2.747"/>
				<rect x="176.241" y="12.361" fill="#010101" width="2.748" height="2.747"/>
				<rect x="180.32" y="12.361" fill="#010101" width="2.748" height="2.747"/>
				<rect x="184.399" y="12.361" fill="#010101" width="2.746" height="2.747"/>
				<rect x="188.479" y="12.361" fill="#010101" width="2.746" height="2.747"/>
				<rect x="192.558" y="12.361" fill="#010101" width="2.746" height="2.747"/>
				<rect x="196.636" y="12.361" fill="#010101" width="2.747" height="2.747"/>
				<rect x="200.715" y="12.361" fill="#010101" width="2.747" height="2.747"/>
				<rect x="204.794" y="12.361" fill="#010101" width="2.747" height="2.747"/>
				<rect x="208.914" y="16.481" fill="#2590CF" width="2.747" height="2.747"/>
				<rect x="208.914" y="20.602" fill="#010101" width="2.747" height="2.747"/>
				<rect x="208.914" y="12.361" fill="#010101" width="2.747" height="2.747"/>
				<rect x="213.034" y="16.481" fill="#2590CF" width="2.747" height="2.747"/>
				<rect x="213.034" y="20.602" fill="#010101" width="2.747" height="2.747"/>
				<rect x="213.034" y="12.361" fill="#010101" width="2.747" height="2.747"/>
				<rect x="217.154" y="16.481" fill="#2590CF" width="2.748" height="2.747"/>
				<rect x="217.154" y="20.602" fill="#010101" width="2.748" height="2.747"/>
				<rect x="217.154" y="12.361" fill="#010101" width="2.748" height="2.747"/>
				<rect x="221.233" y="12.361" fill="#010101" width="2.746" height="2.747"/>
				<rect x="225.313" y="12.361" fill="#010101" width="2.746" height="2.747"/>
				<rect x="229.391" y="12.361" fill="#010101" width="2.747" height="2.747"/>
				<rect x="233.47" y="12.361" fill="#010101" width="2.747" height="2.747"/>
				<rect x="237.549" y="12.361" fill="#010101" width="2.747" height="2.747"/>
				<rect x="221.233" y="8.241" fill="#010101" width="2.746" height="2.747"/>
				<rect x="225.313" y="8.241" fill="#010101" width="2.746" height="2.747"/>
				<rect x="229.391" y="8.241" fill="#010101" width="2.747" height="2.747"/>
				<rect x="233.47" y="8.241" fill="#010101" width="2.747" height="2.747"/>
				<rect x="221.233" y="4.121" fill="#010101" width="2.746" height="2.747"/>
				<rect x="225.313" y="4.121" fill="#010101" width="2.746" height="2.747"/>
				<rect x="229.391" y="4.121" fill="#010101" width="2.747" height="2.747"/>
				<rect x="221.233" fill="#010101" width="2.746" height="2.747"/>
				<rect x="225.313" fill="#010101" width="2.746" height="2.747"/>
			</g>
		</g>
	</g>
</g>
</svg>
