<?xml version="1.0" encoding="utf-8"?>
<!-- Generator: Adobe Illustrator 16.0.0, SVG Export Plug-In . SVG Version: 6.00 Build 0)  -->
<!DOCTYPE svg PUBLIC "-//W3C//DTD SVG 1.1//EN" "http://www.w3.org/Graphics/SVG/1.1/DTD/svg11.dtd">
<svg version="1.1" id="Capa_1" xmlns="http://www.w3.org/2000/svg" xmlns:xlink="http://www.w3.org/1999/xlink" x="0px" y="0px"
	 width="22.25px" height="22.25px" viewBox="1.875 1.5 22.25 22.25" enable-background="new 1.875 1.5 22.25 22.25"
	 xml:space="preserve">
<g>
	
		<radialGradient id="SVGID_1_" cx="13" cy="13.625" r="11" gradientTransform="matrix(1 0 0 -1 0 26.25)" gradientUnits="userSpaceOnUse">
		<stop  offset="0" style="stop-color:#4CAF50"/>
		<stop  offset="0.665" style="stop-color:#009426"/>
		<stop  offset="0.9852" style="stop-color:#009426"/>
	</radialGradient>
	<path fill="url(#SVGID_1_)" stroke="#009600" stroke-width="0.25" stroke-miterlimit="10" d="M13.002,1.625h-0.005l0,0
		C6.931,1.625,2,6.558,2,12.625c0,2.406,0.775,4.637,2.094,6.447l-1.371,4.087l4.228-1.352c1.739,1.153,3.814,1.817,6.051,1.817
		c6.066,0,10.998-4.935,10.998-11S19.069,1.625,13.002,1.625z"/>
	<path fill="#FAFAFA" d="M19.403,17.158c-0.267,0.749-1.318,1.371-2.159,1.553c-0.574,0.122-1.325,0.22-3.853-0.828
		c-3.233-1.338-5.314-4.624-5.478-4.837c-0.154-0.212-1.306-1.74-1.306-3.317c0-1.579,0.803-2.347,1.126-2.677
		c0.265-0.272,0.703-0.395,1.124-0.395c0.136,0,0.258,0.008,0.368,0.013c0.323,0.014,0.486,0.033,0.699,0.543
		c0.266,0.639,0.912,2.217,0.989,2.38c0.078,0.162,0.156,0.381,0.046,0.595c-0.103,0.22-0.193,0.317-0.356,0.505
		c-0.162,0.186-0.315,0.33-0.478,0.53c-0.15,0.175-0.316,0.362-0.13,0.685c0.187,0.315,0.833,1.371,1.785,2.218
		c1.228,1.094,2.224,1.442,2.579,1.591c0.266,0.11,0.582,0.084,0.775-0.123c0.246-0.265,0.55-0.704,0.86-1.138
		c0.22-0.312,0.497-0.35,0.789-0.239c0.296,0.103,1.868,0.88,2.191,1.041c0.322,0.163,0.536,0.239,0.614,0.376
		C19.669,15.769,19.669,16.408,19.403,17.158z"/>
</g>
</svg>
