<?xml version="1.0" encoding="utf-8"?>
<!-- Generator: Adobe Illustrator 16.0.0, SVG Export Plug-In . SVG Version: 6.00 Build 0)  -->
<!DOCTYPE svg PUBLIC "-//W3C//DTD SVG 1.1//EN" "http://www.w3.org/Graphics/SVG/1.1/DTD/svg11.dtd">
<svg version="1.1" id="Capa_1" xmlns="http://www.w3.org/2000/svg" xmlns:xlink="http://www.w3.org/1999/xlink" x="0px" y="0px"
	 width="11px" height="11px" viewBox="300.5 390.5 11 11" enable-background="new 300.5 390.5 11 11" xml:space="preserve">
<g>
	<path fill="#4CAF50" d="M306.001,390.5h-0.003l0,0c-3.032,0-5.499,2.467-5.499,5.5c0,1.203,0.388,2.318,1.047,3.224l-0.685,2.044
		l2.114-0.676c0.87,0.575,1.907,0.908,3.026,0.908c3.034,0,5.499-2.467,5.499-5.5C311.5,392.968,309.035,390.5,306.001,390.5z"/>
	<path fill="#FAFAFA" d="M309.202,398.267c-0.134,0.375-0.66,0.686-1.081,0.776c-0.286,0.061-0.662,0.109-1.925-0.414
		c-1.617-0.669-2.658-2.312-2.739-2.418c-0.077-0.106-0.652-0.87-0.652-1.659s0.4-1.174,0.562-1.339
		c0.133-0.136,0.353-0.197,0.563-0.197c0.068,0,0.129,0.003,0.184,0.005c0.162,0.007,0.243,0.017,0.349,0.272
		c0.133,0.319,0.456,1.109,0.495,1.189c0.04,0.082,0.079,0.192,0.023,0.298c-0.052,0.109-0.097,0.158-0.178,0.252
		c-0.081,0.094-0.158,0.165-0.239,0.266c-0.075,0.087-0.158,0.181-0.064,0.342c0.093,0.158,0.416,0.685,0.892,1.109
		c0.614,0.546,1.111,0.721,1.291,0.795c0.131,0.056,0.291,0.042,0.387-0.061c0.123-0.133,0.275-0.353,0.43-0.569
		c0.109-0.156,0.248-0.175,0.395-0.119c0.148,0.051,0.935,0.439,1.097,0.521c0.161,0.081,0.268,0.118,0.307,0.188
		C309.335,397.572,309.335,397.892,309.202,398.267z"/>
</g>
</svg>
