<?xml version="1.0" encoding="utf-8"?>
<!-- Generator: Adobe Illustrator 16.0.0, SVG Export Plug-In . SVG Version: 6.00 Build 0)  -->
<!DOCTYPE svg PUBLIC "-//W3C//DTD SVG 1.1//EN" "http://www.w3.org/Graphics/SVG/1.1/DTD/svg11.dtd">
<svg version="1.1" id="Layer_1" xmlns="http://www.w3.org/2000/svg" xmlns:xlink="http://www.w3.org/1999/xlink" x="0px" y="0px"
	 width="16.5px" height="16px" viewBox="0 0.25 16.5 16" enable-background="new 0 0.25 16.5 16" xml:space="preserve">
<path id="XMLID_1_" fill="#5B5B5B" d="M15.869,7.446l-2.543-2.361V2.122h-2.104v1.012L8.333,0.45L0.8,7.446
	c-0.104,0.1-0.112,0.267-0.02,0.373c0.101,0.105,0.264,0.112,0.377,0.016L2.292,6.78v0.862v8.408h4.203V9.727
	c0-0.28,0.228-0.508,0.509-0.508h2.66c0.278,0,0.509,0.227,0.509,0.508v6.323h4.203V7.641V6.78l1.136,1.055
	c0.054,0.046,0.116,0.069,0.182,0.069c0.068,0,0.143-0.027,0.188-0.083C15.983,7.713,15.976,7.546,15.869,7.446z"/>
</svg>
