<?xml version="1.0" encoding="utf-8"?>
<!-- Generator: Adobe Illustrator 16.0.0, SVG Export Plug-In . SVG Version: 6.00 Build 0)  -->
<!DOCTYPE svg PUBLIC "-//W3C//DTD SVG 1.1//EN" "http://www.w3.org/Graphics/SVG/1.1/DTD/svg11.dtd">
<svg version="1.1" id="Layer_1" xmlns="http://www.w3.org/2000/svg" xmlns:xlink="http://www.w3.org/1999/xlink" x="0px" y="0px"
	 width="16.5px" height="16px" viewBox="0 0.25 16.5 16" enable-background="new 0 0.25 16.5 16" xml:space="preserve">
<path fill="#5B5B5B" stroke="#5B5B5B" stroke-width="0.5" stroke-miterlimit="10" d="M15.057,7.567l-2.131-2.154V1.884h-2.455v1.049
	L8.017,0.45l-7.04,7.118c-0.1,0.101-0.106,0.271-0.015,0.379c0.094,0.105,0.25,0.114,0.348,0.014l0.814-0.824v8.912h3.927h3.927
	h3.921V7.136l0.82,0.824c0.048,0.047,0.103,0.072,0.17,0.072c0.064,0,0.132-0.03,0.18-0.086C15.163,7.838,15.156,7.669,15.057,7.567
	z M10.961,2.417h1.476v2.5L10.961,3.43V2.417z M6.544,15.514V9.888c0-0.141,0.098-0.251,0.229-0.251h2.484
	c0.131,0,0.229,0.111,0.229,0.251v5.626H6.544L6.544,15.514z M13.417,15.514H9.979V9.888c0-0.433-0.323-0.786-0.719-0.786H6.773
	c-0.399,0-0.713,0.352-0.713,0.786v5.626H2.621V6.64l5.4-5.459l3.503,3.543l1.402,1.421l0,0l0.491,0.496V15.514L13.417,15.514z"/>
</svg>
