<?xml version="1.0" encoding="utf-8"?>
<!-- Generator: Adobe Illustrator 16.0.0, SVG Export Plug-In . SVG Version: 6.00 Build 0)  -->
<!DOCTYPE svg PUBLIC "-//W3C//DTD SVG 1.1//EN" "http://www.w3.org/Graphics/SVG/1.1/DTD/svg11.dtd">
<svg version="1.1" id="Layer_1" xmlns="http://www.w3.org/2000/svg" xmlns:xlink="http://www.w3.org/1999/xlink" x="0px" y="0px"
	 width="600px" height="600px" viewBox="0 0 600 600" enable-background="new 0 0 600 600" xml:space="preserve">
<g>
	<circle fill="#2832E1" cx="299.563" cy="299.562" r="290.062"/>
	<path fill-opacity="0.302" d="M505.538,95.264c113.276,113.282,113.285,296.942,0,410.232
		c-113.278,113.277-296.956,113.281-410.236,0L505.538,95.264z"/>
</g>
<path id="Baidu" fill="#FFFFFF" d="M221.768,260.439c1.994,28.515-13.46,52.831-34.532,54.31
	c-21.063,1.477-39.761-20.438-41.755-48.96c-1.994-28.516,13.459-52.834,34.532-54.314
	C201.08,209.998,219.777,231.92,221.768,260.439L221.768,260.439z M366.866,142.224c-20.468-5.223-42.771,13.005-49.811,40.709
	c-7.061,27.703,3.816,54.391,24.285,59.614c20.459,5.217,42.773-13.003,49.813-40.709
	C400.324,165.782,371.771,143.47,366.866,142.224z M414.854,235.603c-21.53,0.321-38.613,20.797-38.14,52.513
	c0.469,31.715,18.28,46.173,39.824,45.852c21.52-0.32,38.609-15.289,38.145-47.018C454.062,245.669,420.01,235.529,414.854,235.603
	L414.854,235.603z M258.867,135.239c-20.485,0-37.093,22.961-37.093,51.275c0,28.316,16.607,51.265,37.093,51.265
	c20.487,0,37.098-22.949,37.098-51.265C295.965,158.2,279.354,135.239,258.867,135.239z M254.127,294.479
	c-11.836,16.993-25.255,33.584-51.298,55.322c-26.049,21.739-37.098,36.75-37.098,58.877c0,22.126,12.629,58.876,48.54,58.876
	s53.274-7.905,81.689-7.905s47.361,11.067,83.271,11.067c35.913,0,50.91-33.983,50.91-56.111c0-22.127-6.232-34.655-35.003-59.909
	c-18.436-16.199-34.061-29.392-58.529-63.375c-12.099-16.803-26.048-18.965-40.645-18.965
	C281.36,272.356,265.969,277.493,254.127,294.479L254.127,294.479z"/>
</svg>
