<?xml version="1.0" encoding="utf-8"?>
<!-- Generator: Adobe Illustrator 16.0.0, SVG Export Plug-In . SVG Version: 6.00 Build 0)  -->
<!DOCTYPE svg PUBLIC "-//W3C//DTD SVG 1.1//EN" "http://www.w3.org/Graphics/SVG/1.1/DTD/svg11.dtd">
<svg version="1.1" id="Layer_1" xmlns="http://www.w3.org/2000/svg" xmlns:xlink="http://www.w3.org/1999/xlink" x="0px" y="0px"
	 width="12px" height="12.045px" viewBox="22.347 24.219 12 12.045" enable-background="new 22.347 24.219 12 12.045"
	 xml:space="preserve">
<path d="M34.312,29.221l-0.102-0.209l-0.169-0.133c-0.222-0.173-1.34,0.012-1.642-0.262c-0.214-0.197-0.246-0.551-0.312-1.029
	c-0.119-0.931-0.196-0.979-0.341-1.293c-0.526-1.119-1.956-1.96-2.938-2.077h-2.66c-2.093,0-3.803,1.714-3.803,3.806v4.44
	c0,2.088,1.71,3.799,3.803,3.799h4.37c2.092,0,3.792-1.711,3.804-3.799l0.023-3.075L34.312,29.221z M26.198,27.329h2.109
	c0.402,0,0.729,0.327,0.729,0.725c0,0.398-0.327,0.729-0.729,0.729h-2.109c-0.402,0-0.729-0.331-0.729-0.729
	C25.47,27.656,25.796,27.329,26.198,27.329z M30.483,33.134h-4.285c-0.402,0-0.729-0.331-0.729-0.725
	c0-0.399,0.326-0.725,0.729-0.725h4.285c0.4,0,0.725,0.325,0.725,0.725C31.208,32.802,30.884,33.134,30.483,33.134z"/>
</svg>
