<?xml version="1.0" encoding="utf-8"?>
<!-- Generator: Adobe Illustrator 16.0.0, SVG Export Plug-In . SVG Version: 6.00 Build 0)  -->
<!DOCTYPE svg PUBLIC "-//W3C//DTD SVG 1.1//EN" "http://www.w3.org/Graphics/SVG/1.1/DTD/svg11.dtd">
<svg version="1.1" id="Capa_1" xmlns="http://www.w3.org/2000/svg" xmlns:xlink="http://www.w3.org/1999/xlink" x="0px" y="0px"
	 width="13.309px" height="15px" viewBox="0 0 13.309 15" enable-background="new 0 0 13.309 15" xml:space="preserve">
<g>
	<g>
		<path fill="#FFFFFF" d="M10.199,2.364c-0.217,0-0.371-0.042-0.463-0.127C9.645,2.153,9.6,2.013,9.6,1.819V1.182V0.546
			c0-0.207,0.045-0.349,0.137-0.428S9.983,0,10.199,0c0.23,0,0.393,0.039,0.482,0.118c0.092,0.079,0.137,0.221,0.137,0.428v0.636
			v0.636c0,0.194-0.045,0.334-0.137,0.418C10.592,2.321,10.43,2.364,10.199,2.364z M3.11,2.364c-0.219,0-0.373-0.042-0.463-0.127
			C2.554,2.152,2.51,2.012,2.51,1.818V1.182V0.546c0-0.207,0.045-0.349,0.137-0.428C2.737,0.039,2.89,0,3.11,0
			C3.34,0,3.501,0.039,3.592,0.118s0.136,0.221,0.136,0.428v0.636v0.636c0,0.194-0.045,0.334-0.136,0.418
			C3.501,2.321,3.34,2.364,3.11,2.364z M13.037,1.182c0.072,0,0.137,0.024,0.189,0.073c0.055,0.049,0.082,0.109,0.082,0.182v2.69
			c0,0.073-0.027,0.134-0.082,0.182c-0.055,0.048-0.115,0.073-0.189,0.073H0.274c-0.073,0-0.138-0.024-0.191-0.073
			C0.028,4.261,0.001,4.2,0.001,4.127v-2.69c0-0.073,0.027-0.133,0.082-0.182c0.054-0.049,0.118-0.073,0.191-0.073h1.381v0.636
			c0,0.17,0.024,0.336,0.072,0.5c0.05,0.164,0.131,0.312,0.245,0.446C2.088,2.897,2.24,3.006,2.427,3.091
			C2.616,3.176,2.844,3.218,3.11,3.218s0.494-0.042,0.682-0.127C3.98,3.006,4.134,2.897,4.255,2.764
			C4.377,2.63,4.461,2.482,4.51,2.318c0.048-0.164,0.073-0.331,0.073-0.5V1.182h4.164v0.636c0,0.17,0.023,0.336,0.072,0.5
			S8.949,2.63,9.063,2.763C9.178,2.896,9.332,3.005,9.52,3.09c0.186,0.085,0.414,0.127,0.68,0.127c0.268,0,0.494-0.042,0.684-0.127
			c0.188-0.085,0.342-0.194,0.463-0.327c0.123-0.133,0.205-0.282,0.254-0.445c0.049-0.164,0.074-0.331,0.074-0.5V1.182H13.037
			L13.037,1.182z M10.018,7.727c0-0.084-0.049-0.125-0.145-0.125H9.326c-0.021,0-0.041,0.006-0.053,0.018L7.709,8.382
			C7.662,8.419,7.635,8.467,7.635,8.527l0.129,0.891c0,0.023,0.006,0.043,0.02,0.055c0.012,0.012,0.021,0.03,0.035,0.055
			c0.037,0.024,0.08,0.024,0.127,0l0.711-0.271v3.6c0,0.084,0.041,0.127,0.127,0.127h1.09c0.096,0,0.145-0.043,0.145-0.127V7.727
			L10.018,7.727z M4.437,13.055c0.689,0,1.244-0.158,1.663-0.473c0.418-0.314,0.627-0.74,0.627-1.273
			c0-0.387-0.108-0.678-0.326-0.873C6.182,10.243,5.953,10.098,5.71,10c0.582-0.268,0.873-0.68,0.873-1.236
			c0-0.375-0.163-0.676-0.491-0.898c-0.328-0.227-0.764-0.338-1.31-0.338c-0.606,0-1.109,0.091-1.509,0.271
			C3.213,7.85,3.189,7.896,3.2,7.945l0.128,0.891c0,0.05,0.018,0.079,0.054,0.091C3.419,8.964,3.461,8.97,3.51,8.945
			c0.339-0.182,0.672-0.272,1-0.272c0.304,0,0.479,0.045,0.527,0.136C5.086,8.9,5.11,8.977,5.11,9.036
			c0,0.097-0.055,0.203-0.163,0.317C4.838,9.468,4.565,9.539,4.129,9.563c-0.085,0-0.127,0.043-0.127,0.129V10.6
			c0,0.084,0.042,0.127,0.127,0.127c0.509,0.024,0.836,0.088,0.981,0.19s0.218,0.258,0.218,0.464c0,0.157-0.073,0.284-0.218,0.383
			c-0.146,0.098-0.333,0.146-0.563,0.146c-0.218,0-0.421-0.019-0.608-0.056c-0.188-0.035-0.386-0.09-0.592-0.164
			c-0.036-0.012-0.072-0.012-0.108,0c-0.037,0.024-0.055,0.056-0.055,0.092l-0.129,0.908c-0.023,0.063,0,0.104,0.073,0.129
			c0.194,0.084,0.406,0.146,0.637,0.181C3.995,13.036,4.218,13.055,4.437,13.055z M13.037,5.309c0.072,0,0.137,0.024,0.189,0.073
			c0.055,0.048,0.082,0.109,0.082,0.182v9.163c0,0.073-0.027,0.139-0.082,0.191C13.172,14.973,13.112,15,13.037,15H0.274
			c-0.073,0-0.138-0.027-0.191-0.082c-0.055-0.054-0.082-0.118-0.082-0.191V5.564c0-0.073,0.027-0.134,0.082-0.182
			c0.054-0.049,0.118-0.073,0.191-0.073H13.037L13.037,5.309z"/>
	</g>
</g>
</svg>
