<?xml version="1.0" encoding="utf-8"?>
<!-- Generator: Adobe Illustrator 16.0.0, SVG Export Plug-In . SVG Version: 6.00 Build 0)  -->
<!DOCTYPE svg PUBLIC "-//W3C//DTD SVG 1.1//EN" "http://www.w3.org/Graphics/SVG/1.1/DTD/svg11.dtd">
<svg version="1.1" id="Capa_1" xmlns="http://www.w3.org/2000/svg" xmlns:xlink="http://www.w3.org/1999/xlink" x="0px" y="0px"
	 width="612px" height="689.5px" viewBox="0 0 612 689.5" enable-background="new 0 0 612 689.5" xml:space="preserve">
<g>
	<path fill-rule="evenodd" clip-rule="evenodd" fill="#051D6B" d="M418.317,683.811c-111.417,0-222.832,0-334.247,0
		c-0.781-0.359-1.526-0.896-2.345-1.055c-43.468-8.481-72.658-43.751-72.66-87.889c-0.009-137.294-0.021-274.586,0.052-411.88
		c0.004-6.11,0.419-12.28,1.322-18.32c5.458-36.532,38.076-66.906,74.701-69.354c9.544-0.639,19.168-0.096,28.868-0.096
		c1.823-30.098,14.895-52.368,37.547-69.332c11.282-8.45,24.343-12.583,37.789-15.832c87.29,0,174.58,0,261.87,0
		c47.431,54.357,94.854,108.717,142.303,163.057c2.891,3.31,5.228,6.363,5.218,11.4c-0.179,109.431-0.082,218.86-0.162,328.291
		c-0.034,47.573-39.089,86.603-86.552,86.785c-6.084,0.024-12.167,0.003-18.134,0.003c-4.909,33.097-15.754,52.374-37.767,68.417
		C444.732,676.307,431.761,680.562,418.317,683.811z M409.105,52.164c-3.205,0-5.579,0-7.956,0
		c-65.778,0-131.562-0.006-197.342,0.002c-28.866,0.004-47.356,18.394-47.358,47.118c-0.008,137.043-0.008,274.087,0.001,411.131
		c0.001,28.444,18.481,47.057,46.753,47.061c102.18,0.014,204.358,0.014,306.539,0c28.265-0.004,46.741-18.621,46.743-47.07
		c0.011-94.067,0.004-188.134,0.004-282.201c0-2.344,0-4.688,0-7.603c-10.724,0-20.758,0.068-30.791-0.016
		c-13.807-0.118-27.809,1.076-41.382-0.794c-44.496-6.128-75.186-42.329-75.209-87.196
		C409.094,106.092,409.105,79.585,409.105,52.164z M114.336,135.892c-11.273,0.825-21.751,0.451-31.703,2.563
		c-19.281,4.092-31.45,21.813-31.452,43.772c-0.019,137.037-0.011,274.073-0.008,411.11c0,30.247,18.009,48.361,48.084,48.363
		c101.297,0.002,202.595,0.001,303.893-0.003c2.412,0,4.831,0.058,7.232-0.109c22.149-1.546,41.063-21.105,40.162-41.997
		c-2.578,0-5.182,0-7.785,0c-80.029,0-160.06,0.012-240.088-0.03c-4.59-0.002-9.219-0.142-13.764-0.727
		c-40.356-5.204-75.121-43.946-74.84-88.196c0.777-121.902,0.268-243.813,0.268-365.722
		C114.336,142.33,114.336,139.744,114.336,135.892z M556.434,178.428c-35.325-42.163-69.667-83.152-105.219-125.584
		c0,20.519,0.151,39.068-0.041,57.613c-0.208,20.154,6.829,37.757,18.787,53.483c5.611,7.38,12.412,14.206,22.514,14.38
		C513.268,178.679,534.071,178.428,556.434,178.428z"/>
	<path fill-rule="evenodd" clip-rule="evenodd" fill="#051D6B" d="M355.769,452.351c-31.122-0.009-62.243,0.008-93.363-0.019
		c-8.924-0.007-15.663-3.929-19.571-11.965c-3.807-7.824-2.679-15.378,2.646-22.173c4.194-5.35,10.028-7.629,16.682-7.86
		c4.16-0.145,8.327-0.054,12.49-0.054c56.984-0.003,113.966-0.01,170.948,0.019c3.058,0.001,6.174-0.016,9.162,0.532
		c10.928,1.999,18.195,11.354,17.416,22.087c-0.775,10.666-9.343,19.154-20.418,19.305c-20.817,0.283-41.64,0.121-62.461,0.137
		C378.123,452.366,366.945,452.36,355.769,452.351z"/>
	<path fill-rule="evenodd" clip-rule="evenodd" fill="#051D6B" d="M355.792,347.115c-31.339-0.001-62.68,0.106-94.017-0.059
		c-10.755-0.057-19.086-7.347-20.837-17.397c-1.603-9.193,3.434-18.916,12.33-22.402c3.761-1.475,8.078-1.997,12.162-2.086
		c12.047-0.264,24.104-0.094,36.157-0.094c48.216-0.001,96.429-0.044,144.645,0.077c4.313,0.012,8.866,0.415,12.884,1.833
		c9.147,3.227,14.536,13.317,12.88,22.71c-1.773,10.049-10.103,17.307-20.87,17.361C419.347,347.22,387.569,347.115,355.792,347.115
		z"/>
</g>
</svg>
