<?xml version="1.0" encoding="utf-8"?>
<!-- Generator: Adobe Illustrator 16.0.0, SVG Export Plug-In . SVG Version: 6.00 Build 0)  -->
<!DOCTYPE svg PUBLIC "-//W3C//DTD SVG 1.1//EN" "http://www.w3.org/Graphics/SVG/1.1/DTD/svg11.dtd">
<svg version="1.1" id="Layer_1" xmlns="http://www.w3.org/2000/svg" xmlns:xlink="http://www.w3.org/1999/xlink" x="0px" y="0px"
	 width="1078.446px" height="232.497px" viewBox="0.618 10.091 1078.446 232.497"
	 enable-background="new 0.618 10.091 1078.446 232.497" xml:space="preserve">
<g>
	<path fill="#DA1C5C" d="M125.586,17.999c-48.875,0-89.589,34.909-98.587,81.153c13.458-33.153,46.007-56.596,83.933-56.596
		c49.925,0,90.542,40.618,90.542,90.544c0,37.927-23.442,70.476-56.595,83.935c46.243-8.999,81.152-49.715,81.152-98.589
		C226.031,62.971,181.061,17.999,125.586,17.999z"/>
	<path fill="#8DC63F" d="M109.542,217.034c40.164,0,73.619-28.688,81.014-66.688c-11.059,27.242-37.805,46.507-68.973,46.507
		c-41.026,0-74.402-33.376-74.402-74.404c0-31.167,19.263-57.915,46.507-68.973C55.686,60.87,26.999,94.327,26.999,134.49
		C26.999,180.079,63.955,217.034,109.542,217.034z"/>
	<radialGradient id="SVGID_1_" cx="129.6519" cy="114.3799" r="94.2048" gradientUnits="userSpaceOnUse">
		<stop  offset="0.6616" style="stop-color:#FFFFFF;stop-opacity:0.5"/>
		<stop  offset="1" style="stop-color:#FFFFFF;stop-opacity:0"/>
	</radialGradient>
	<path fill="url(#SVGID_1_)" d="M164.791,208.585c24.117-17.142,38.858-44.956,38.858-75.485c0-51.125-41.593-92.718-92.717-92.718
		c-30.528,0-58.343,14.74-75.484,38.857c15.313-35.191,50.447-59.065,90.139-59.065c54.187,0,98.271,44.084,98.271,98.271
		C223.856,158.136,199.982,193.271,164.791,208.585z"/>
	<radialGradient id="SVGID_2_" cx="144.7642" cy="111.6606" r="87.6836" gradientUnits="userSpaceOnUse">
		<stop  offset="0.6616" style="stop-color:#FFFFFF;stop-opacity:0.5"/>
		<stop  offset="1" style="stop-color:#FFFFFF;stop-opacity:0"/>
	</radialGradient>
	<path fill="url(#SVGID_2_)" d="M125.586,17.999c-23.445,0-45,8.049-62.089,21.513c14.771-8.544,31.919-13.436,50.21-13.436
		c55.476,0,100.447,44.971,100.447,100.446c0,31.95-14.921,60.404-38.169,78.8c29.92-17.393,50.047-49.774,50.047-86.877
		C226.031,62.971,181.061,17.999,125.586,17.999z"/>
	
		<radialGradient id="SVGID_3_" cx="105.439" cy="138.5923" r="76.2656" fx="106.0003" fy="140.6193" gradientUnits="userSpaceOnUse">
		<stop  offset="0.6616" style="stop-color:#FFFFFF;stop-opacity:0.5"/>
		<stop  offset="1" style="stop-color:#FFFFFF;stop-opacity:0"/>
	</radialGradient>
	<path fill="url(#SVGID_3_)" d="M109.542,214.858c-44.315,0-80.368-36.052-80.368-80.369c0-31.181,18.021-58.925,44.951-72.164
		c-18.149,14.273-29.12,36.188-29.12,60.123c0,42.225,34.353,76.579,76.578,76.579c23.934,0,45.849-10.969,60.122-29.119
		C168.465,196.837,140.723,214.858,109.542,214.858z"/>
	<radialGradient id="SVGID_4_" cx="108.1396" cy="159.0879" r="70.5035" gradientUnits="userSpaceOnUse">
		<stop  offset="0.4467" style="stop-color:#FFFFFF;stop-opacity:0.5"/>
		<stop  offset="1" style="stop-color:#FFFFFF;stop-opacity:0"/>
	</radialGradient>
	<path fill="url(#SVGID_4_)" d="M113.817,204.886c-45.588,0-82.542-36.954-82.542-82.543c0-7.332,0.966-14.434,2.76-21.201
		c-4.513,10.199-7.036,21.477-7.036,33.348c0,45.589,36.956,82.544,82.542,82.544c38.213,0,70.34-25.98,79.738-61.234
		C176.443,184.714,147.492,204.886,113.817,204.886z"/>
	<path fill="#27AAE1" d="M187.807,122.419c0-32.562-23.258-59.688-54.066-65.681c22.087,8.965,37.706,30.65,37.706,55.918
		c0,33.262-27.062,60.322-60.323,60.32c-25.268,0-46.953-15.618-55.919-37.704c5.995,30.806,33.119,54.064,65.681,54.064
		C157.846,189.337,187.807,159.377,187.807,122.419z"/>
	<path fill="#27AAE1" d="M120.886,187.164c-23.773,0-45.064-13.002-56.32-32.785c11.625,13.018,28.377,20.771,46.558,20.771
		c34.461,0,62.498-28.034,62.498-62.494c0-18.181-7.755-34.932-20.772-46.557c19.782,11.255,32.783,32.547,32.783,56.32
		C185.632,158.119,156.587,187.164,120.886,187.164z"/>
	<radialGradient id="SVGID_5_" cx="125.0991" cy="126.6318" r="60.5327" gradientUnits="userSpaceOnUse">
		<stop  offset="0.6616" style="stop-color:#FFFFFF;stop-opacity:0.5"/>
		<stop  offset="1" style="stop-color:#FFFFFF;stop-opacity:0"/>
	</radialGradient>
	<path fill="url(#SVGID_5_)" d="M120.886,187.164c-23.773,0-45.064-13.002-56.32-32.785c11.625,13.018,28.377,20.771,46.558,20.771
		c34.461,0,62.498-28.034,62.498-62.494c0-18.181-7.755-34.932-20.772-46.557c19.782,11.255,32.783,32.547,32.783,56.32
		C185.632,158.119,156.587,187.164,120.886,187.164z"/>
	
		<radialGradient id="SVGID_6_" cx="582.833" cy="456.2129" r="53.1688" gradientTransform="matrix(0 1 -1 0 608.5488 -459.7959)" gradientUnits="userSpaceOnUse">
		<stop  offset="0.6616" style="stop-color:#FFFFFF;stop-opacity:0.5"/>
		<stop  offset="1" style="stop-color:#FFFFFF;stop-opacity:0"/>
	</radialGradient>
	<path fill="url(#SVGID_6_)" d="M179.73,122.419c0,35.595-27.796,64.687-62.865,66.786c1.332,0.08,2.67,0.132,4.021,0.132
		c36.96,0,66.921-29.96,66.921-66.918c0-32.562-23.258-59.688-54.066-65.681c6.439,2.613,12.322,6.315,17.435,10.864
		C168.437,79.703,179.73,99.737,179.73,122.419z"/>
</g>
<g>
	<path fill="#373737" d="M274.008,160.676c-5.84-8.518-8.758-20.287-8.758-35.3V74.257c0-15.846,2.86-27.883,8.58-36.104
		s15.846-12.333,30.385-12.333c12.986,0,22.311,3.517,27.972,10.546c5.658,7.032,8.49,17.398,8.49,31.1v11.439h-19.125V68.716
		c0-6.672-0.299-11.796-0.894-15.371c-0.598-3.574-2.117-6.435-4.558-8.579c-2.443-2.145-6.345-3.218-11.707-3.218
		c-5.482,0-9.563,1.162-12.244,3.485c-2.681,2.324-4.44,5.541-5.272,9.652c-0.835,4.11-1.251,9.624-1.251,16.533v57.374
		c0,7.39,0.595,13.168,1.788,17.337c1.189,4.173,3.128,7.149,5.809,8.938c2.681,1.787,6.403,2.681,11.171,2.681
		c5.122,0,8.937-1.131,11.439-3.396c2.502-2.262,4.08-5.361,4.736-9.294c0.654-3.932,0.983-9.294,0.983-16.086v-10.724h19.125
		v10.724c0,14.419-2.712,25.47-8.132,33.155c-5.424,7.686-14.866,11.528-28.33,11.528
		C289.916,173.455,279.845,169.196,274.008,160.676z"/>
	<path fill="#373737" d="M430.76,120.729L399.481,27.07h18.767l22.163,69.886l21.806-69.886h18.946l-31.1,93.658v51.118H430.76
		V120.729z"/>
	<path fill="#373737" d="M543.183,27.07h33.244c13.106,0,22.817,2.949,29.135,8.848c6.314,5.898,9.473,15.045,9.473,27.437
		c0,18.471-6.912,28.659-20.733,30.563c8.579,2.027,14.835,6.049,18.768,12.064c3.932,6.019,5.898,14.21,5.898,24.576
		c0,12.989-3.069,23.118-9.205,30.385c-6.139,7.27-15.461,10.903-27.973,10.903h-38.606V27.07z M575.354,87.483
		c8.34,0,14.12-1.815,17.338-5.451c3.217-3.634,4.825-9.858,4.825-18.678c0-6.435-0.982-11.171-2.948-14.21
		c-1.967-3.038-4.916-4.974-8.848-5.809c-3.933-0.832-9.772-1.251-17.517-1.251h-4.825v45.398H575.354z M576.963,157.369
		c5.957,0,10.574-0.922,13.853-2.771c3.275-1.846,5.568-4.675,6.881-8.49c1.311-3.812,1.967-8.995,1.967-15.55
		c0-9.294-1.907-16.234-5.72-20.822c-3.815-4.586-10.01-6.882-18.589-6.882H563.38v54.515H576.963z"/>
	<path fill="#373737" d="M691.978,161.391c-6.139-8.043-9.205-19.688-9.205-34.942V71.576c0-15.014,3.098-26.392,9.295-34.139
		c6.194-7.744,16.323-11.618,30.385-11.618c14.059,0,24.157,3.904,30.296,11.707c6.136,7.806,9.205,19.156,9.205,34.05v55.051
		c0,15.014-3.101,26.572-9.295,34.674c-6.197,8.105-16.265,12.154-30.206,12.154C708.271,173.455,698.113,169.434,691.978,161.391z
		 M737.645,150.935c2.62-4.407,3.933-11.082,3.933-20.019V67.465c0-8.816-1.313-15.341-3.933-19.571
		c-2.622-4.229-7.686-6.346-15.192-6.346c-7.627,0-12.752,2.117-15.371,6.346c-2.623,4.23-3.933,10.755-3.933,19.571v63.451
		c0,8.937,1.31,15.611,3.933,20.019c2.619,4.41,7.744,6.613,15.371,6.613C729.959,157.548,735.022,155.345,737.645,150.935z"/>
	<path fill="#373737" d="M830.407,27.07h29.134c14.656,0,25.408,3.011,32.262,9.026c6.851,6.019,10.277,15.818,10.277,29.402
		c0,18.589-5.96,29.849-17.874,33.781l20.555,72.566h-19.481l-18.946-67.92h-15.729v67.92h-20.197V27.07z M858.29,89.449
		c8.696,0,14.924-1.726,18.678-5.183c3.753-3.455,5.63-9.711,5.63-18.768c0-5.957-0.656-10.635-1.966-14.031
		c-1.313-3.396-3.637-5.897-6.971-7.507c-3.338-1.608-8.043-2.413-14.12-2.413h-8.937v47.901H858.29z"/>
	<path fill="#373737" d="M977.862,161.212c-5.839-8.28-8.758-20.583-8.758-36.909V75.865c0-11.198,1.162-20.403,3.485-27.614
		c2.324-7.208,6.314-12.749,11.976-16.622c5.658-3.871,13.433-5.81,23.325-5.81c13.344,0,22.968,3.396,28.865,10.188
		c5.898,6.792,8.848,17.457,8.848,31.993v5.362h-18.945v-4.469c0-6.909-0.419-12.243-1.252-15.996
		c-0.835-3.754-2.592-6.583-5.272-8.49c-2.681-1.904-6.644-2.86-11.886-2.86c-5.603,0-9.771,1.282-12.512,3.844
		c-2.742,2.563-4.499,5.987-5.272,10.277c-0.776,4.289-1.162,10.009-1.162,17.158v53.621c0,11.081,1.341,19.035,4.021,23.86
		c2.682,4.826,7.834,7.239,15.461,7.239c7.507,0,12.659-2.62,15.461-7.864c2.798-5.242,4.2-13.643,4.2-25.202v-10.009h-18.41
		v-14.299h36.641v71.673h-12.689l-1.967-16.622c-4.529,12.273-13.109,18.409-25.737,18.409
		C993.173,173.634,983.699,169.495,977.862,161.212z"/>
</g>
<g>
	<path fill="#373737" d="M267.743,209.462h6.168c2.861,0,4.929,0.417,6.203,1.251c1.274,0.834,1.912,2.15,1.912,3.951
		c0,1.213-0.313,2.222-0.938,3.026c-0.625,0.806-1.526,1.313-2.7,1.521v0.143c1.459,0.274,2.532,0.817,3.219,1.627
		c0.687,0.811,1.03,1.907,1.03,3.29c0,1.866-0.651,3.328-1.954,4.384c-1.303,1.057-3.115,1.585-5.436,1.585h-7.504V209.462z
		 M271.139,218.046h3.269c1.421,0,2.459-0.225,3.112-0.675c0.654-0.45,0.981-1.215,0.981-2.295c0-0.977-0.353-1.682-1.059-2.118
		c-0.706-0.436-1.826-0.653-3.361-0.653h-2.942V218.046z M271.139,220.803v6.58h3.61c1.421,0,2.494-0.272,3.219-0.817
		s1.087-1.404,1.087-2.579c0-1.08-0.37-1.881-1.109-2.401c-0.739-0.521-1.861-0.782-3.368-0.782H271.139z"/>
	<path fill="#373737" d="M289.867,230.239v-20.777h3.396v20.777H289.867z"/>
	<path fill="#373737" d="M310.158,218.97h7.646V229.4c-1.25,0.408-2.451,0.696-3.603,0.867c-1.151,0.171-2.395,0.256-3.73,0.256
		c-3.146,0-5.571-0.931-7.276-2.792c-1.706-1.862-2.558-4.489-2.558-7.881c0-3.344,0.961-5.962,2.885-7.852s4.571-2.835,7.944-2.835
		c2.169,0,4.225,0.417,6.167,1.25l-1.194,2.828c-1.687-0.776-3.373-1.165-5.059-1.165c-2.217,0-3.97,0.696-5.258,2.089
		s-1.933,3.297-1.933,5.713c0,2.539,0.58,4.47,1.741,5.791c1.161,1.322,2.831,1.982,5.01,1.982c1.099,0,2.273-0.137,3.524-0.412
		v-5.357h-4.306V218.97z"/>
	<path fill="#373737" d="M353.07,219.651c0,3.431-0.952,6.053-2.856,7.866c-1.904,1.814-4.647,2.722-8.229,2.722h-5.813v-20.777
		h6.424c3.306,0,5.878,0.891,7.717,2.672C352.151,213.915,353.07,216.421,353.07,219.651z M349.489,219.766
		c0-4.974-2.326-7.461-6.978-7.461h-2.942v15.078h2.416C346.988,227.383,349.489,224.844,349.489,219.766z"/>
	<path fill="#373737" d="M373.333,230.239l-2.075-5.77h-7.944l-2.032,5.77h-3.581l7.773-20.862h3.695l7.773,20.862H373.333z
		 M370.363,221.542l-1.947-5.656c-0.142-0.379-0.339-0.976-0.59-1.791c-0.251-0.814-0.424-1.411-0.519-1.79
		c-0.256,1.165-0.63,2.439-1.123,3.822l-1.876,5.415H370.363z"/>
	<path fill="#373737" d="M389.772,230.239h-3.396v-17.863h-6.111v-2.914h15.618v2.914h-6.111V230.239z"/>
	<path fill="#373737" d="M414.867,230.239l-2.075-5.77h-7.944l-2.032,5.77h-3.581l7.773-20.862h3.695l7.773,20.862H414.867z
		 M411.896,221.542l-1.947-5.656c-0.142-0.379-0.339-0.976-0.59-1.791c-0.251-0.814-0.424-1.411-0.519-1.79
		c-0.256,1.165-0.63,2.439-1.123,3.822l-1.876,5.415H411.896z"/>
	<path fill="#373737" d="M447.49,230.239l-2.075-5.77h-7.944l-2.032,5.77h-3.581l7.773-20.862h3.695l7.773,20.862H447.49z
		 M444.52,221.542l-1.947-5.656c-0.142-0.379-0.339-0.976-0.59-1.791c-0.251-0.814-0.424-1.411-0.519-1.79
		c-0.256,1.165-0.63,2.439-1.123,3.822l-1.876,5.415H444.52z"/>
	<path fill="#373737" d="M474.063,230.239h-4.164l-10.218-16.557h-0.114l0.071,0.924c0.132,1.763,0.199,3.373,0.199,4.832v10.801
		h-3.084v-20.777h4.122l10.189,16.472h0.085c-0.019-0.218-0.057-1.012-0.113-2.381c-0.057-1.369-0.085-2.438-0.085-3.204v-10.887
		h3.112V230.239z"/>
	<path fill="#373737" d="M495.349,230.239l-2.075-5.77h-7.944l-2.032,5.77h-3.581l7.773-20.862h3.695l7.773,20.862H495.349z
		 M492.378,221.542l-1.947-5.656c-0.142-0.379-0.339-0.976-0.59-1.791c-0.251-0.814-0.424-1.411-0.519-1.79
		c-0.256,1.165-0.63,2.439-1.123,3.822l-1.876,5.415H492.378z"/>
	<path fill="#373737" d="M504.611,230.239v-20.777h3.396v17.864h8.797v2.913H504.611z"/>
	<path fill="#373737" d="M529.166,218.941l4.917-9.479h3.694l-6.92,12.72v8.058h-3.411v-7.944l-6.893-12.833h3.695L529.166,218.941z
		"/>
	<path fill="#373737" d="M550.607,230.239h-3.396v-17.863h-6.11v-2.914h15.618v2.914h-6.111V230.239z"/>
	<path fill="#373737" d="M562.813,230.239v-20.777h3.396v20.777H562.813z"/>
	<path fill="#373737" d="M583.444,212.077c-1.951,0-3.486,0.691-4.604,2.075c-1.118,1.383-1.677,3.292-1.677,5.727
		c0,2.549,0.538,4.477,1.613,5.784s2.631,1.961,4.668,1.961c0.881,0,1.734-0.087,2.559-0.263c0.824-0.175,1.682-0.4,2.572-0.675
		v2.913c-1.63,0.616-3.478,0.924-5.543,0.924c-3.041,0-5.377-0.921-7.006-2.764c-1.63-1.843-2.444-4.479-2.444-7.909
		c0-2.16,0.396-4.05,1.187-5.67s1.935-2.861,3.432-3.724s3.255-1.293,5.272-1.293c2.122,0,4.084,0.445,5.884,1.336l-1.222,2.828
		c-0.702-0.332-1.443-0.623-2.225-0.874S584.307,212.077,583.444,212.077z"/>
	<path fill="#373737" d="M607.941,224.598c0,1.848-0.668,3.297-2.004,4.349s-3.179,1.577-5.527,1.577
		c-2.351,0-4.273-0.364-5.771-1.094v-3.212c0.947,0.445,1.954,0.796,3.021,1.052c1.065,0.255,2.058,0.383,2.977,0.383
		c1.346,0,2.338-0.255,2.978-0.767s0.959-1.199,0.959-2.061c0-0.777-0.293-1.436-0.881-1.976s-1.8-1.18-3.638-1.919
		c-1.896-0.768-3.231-1.644-4.008-2.629c-0.777-0.985-1.165-2.17-1.165-3.553c0-1.734,0.615-3.099,1.847-4.093
		c1.232-0.995,2.886-1.492,4.96-1.492c1.99,0,3.97,0.436,5.94,1.308l-1.08,2.771c-1.848-0.776-3.496-1.165-4.945-1.165
		c-1.1,0-1.933,0.239-2.501,0.718s-0.853,1.111-0.853,1.897c0,0.54,0.113,1.002,0.341,1.386c0.228,0.383,0.602,0.746,1.122,1.087
		c0.521,0.341,1.459,0.791,2.814,1.35c1.525,0.635,2.644,1.228,3.354,1.776c0.711,0.55,1.231,1.171,1.563,1.862
		C607.775,222.845,607.941,223.659,607.941,224.598z"/>
</g>
<g>
	<path fill="#373737" d="M643.5,215.744c0,2.169-0.711,3.832-2.133,4.987c-1.421,1.156-3.443,1.734-6.068,1.734h-2.16v7.773h-3.396
		v-20.777h5.983c2.597,0,4.54,0.531,5.834,1.592C642.853,212.115,643.5,213.679,643.5,215.744z M633.139,219.609h1.806
		c1.743,0,3.022-0.304,3.837-0.91c0.814-0.605,1.223-1.554,1.223-2.842c0-1.193-0.365-2.084-1.095-2.672
		c-0.729-0.587-1.866-0.881-3.411-0.881h-2.359V219.609z"/>
	<path fill="#373737" d="M653.956,221.939v8.3h-3.396v-20.777h5.87c2.68,0,4.665,0.503,5.953,1.507
		c1.289,1.004,1.934,2.521,1.934,4.548c0,2.586-1.346,4.429-4.036,5.528l5.869,9.194h-3.865l-4.974-8.3H653.956z M653.956,219.126
		h2.359c1.582,0,2.729-0.294,3.438-0.881c0.711-0.588,1.066-1.459,1.066-2.615c0-1.175-0.384-2.018-1.151-2.529
		c-0.767-0.512-1.923-0.768-3.468-0.768h-2.245V219.126z"/>
	<path fill="#373737" d="M683.826,230.239h-11.754v-20.777h11.754v2.871h-8.357v5.656h7.831v2.842h-7.831v6.523h8.357V230.239z"/>
	<path fill="#373737" d="M708.124,219.651c0,3.431-0.952,6.053-2.856,7.866c-1.904,1.814-4.646,2.722-8.229,2.722h-5.813v-20.777
		h6.424c3.307,0,5.879,0.891,7.717,2.672S708.124,216.421,708.124,219.651z M704.543,219.766c0-4.974-2.326-7.461-6.979-7.461
		h-2.941v15.078h2.416C702.041,227.383,704.543,224.844,704.543,219.766z"/>
	<path fill="#373737" d="M715.496,230.239v-20.777h3.396v20.777H715.496z"/>
	<path fill="#373737" d="M736.129,212.077c-1.952,0-3.486,0.691-4.605,2.075c-1.117,1.383-1.676,3.292-1.676,5.727
		c0,2.549,0.537,4.477,1.612,5.784s2.632,1.961,4.669,1.961c0.881,0,1.733-0.087,2.558-0.263c0.824-0.175,1.682-0.4,2.572-0.675
		v2.913c-1.63,0.616-3.478,0.924-5.542,0.924c-3.041,0-5.377-0.921-7.006-2.764c-1.631-1.843-2.445-4.479-2.445-7.909
		c0-2.16,0.396-4.05,1.188-5.67s1.935-2.861,3.432-3.724c1.496-0.862,3.254-1.293,5.272-1.293c2.122,0,4.083,0.445,5.884,1.336
		l-1.223,2.828c-0.701-0.332-1.442-0.623-2.225-0.874C737.813,212.203,736.99,212.077,736.129,212.077z"/>
	<path fill="#373737" d="M755.822,230.239h-3.396v-17.863h-6.11v-2.914h15.618v2.914h-6.111V230.239z"/>
	<path fill="#373737" d="M768.027,230.239v-20.777h3.396v20.777H768.027z"/>
	<path fill="#373737" d="M791.658,209.462h3.524l-7.276,20.777h-3.582l-7.247-20.777h3.496l4.335,12.919
		c0.227,0.615,0.469,1.409,0.725,2.38c0.256,0.972,0.421,1.693,0.497,2.167c0.123-0.72,0.313-1.554,0.568-2.501
		s0.464-1.648,0.626-2.104L791.658,209.462z"/>
	<path fill="#373737" d="M812.589,230.239h-11.753v-20.777h11.753v2.871h-8.356v5.656h7.83v2.842h-7.83v6.523h8.356V230.239z"/>
	<path fill="#373737" d="M830.461,230.239v-20.777h3.396v20.777H830.461z"/>
	<path fill="#373737" d="M859.563,230.239h-4.164l-10.217-16.557h-0.114l0.071,0.924c0.133,1.763,0.199,3.373,0.199,4.832v10.801
		h-3.084v-20.777h4.121l10.189,16.472h0.085c-0.019-0.218-0.057-1.012-0.113-2.381c-0.058-1.369-0.085-2.438-0.085-3.204v-10.887
		h3.111V230.239z"/>
	<path fill="#373737" d="M875.135,230.239h-3.396v-17.863h-6.11v-2.914h15.618v2.914h-6.111V230.239z"/>
	<path fill="#373737" d="M899.094,230.239H887.34v-20.777h11.754v2.871h-8.357v5.656h7.831v2.842h-7.831v6.523h8.357V230.239z"/>
	<path fill="#373737" d="M906.494,230.239v-20.777h3.396v17.864h8.797v2.913H906.494z"/>
	<path fill="#373737" d="M925.18,230.239v-20.777h3.396v17.864h8.797v2.913H925.18z"/>
	<path fill="#373737" d="M943.864,230.239v-20.777h3.396v20.777H943.864z"/>
	<path fill="#373737" d="M964.155,218.97h7.646V229.4c-1.25,0.408-2.451,0.696-3.603,0.867s-2.395,0.256-3.73,0.256
		c-3.146,0-5.57-0.931-7.276-2.792c-1.705-1.862-2.558-4.489-2.558-7.881c0-3.344,0.961-5.962,2.885-7.852
		c1.923-1.89,4.571-2.835,7.944-2.835c2.169,0,4.226,0.417,6.168,1.25l-1.194,2.828c-1.687-0.776-3.373-1.165-5.06-1.165
		c-2.217,0-3.97,0.696-5.258,2.089s-1.933,3.297-1.933,5.713c0,2.539,0.58,4.47,1.741,5.791c1.16,1.322,2.83,1.982,5.009,1.982
		c1.1,0,2.274-0.137,3.524-0.412v-5.357h-4.306V218.97z"/>
	<path fill="#373737" d="M991.452,230.239H979.7v-20.777h11.752v2.871h-8.355v5.656h7.83v2.842h-7.83v6.523h8.355V230.239z"/>
	<path fill="#373737" d="M1016.163,230.239H1012l-10.219-16.557h-0.113l0.071,0.924c0.132,1.763,0.198,3.373,0.198,4.832v10.801
		h-3.083v-20.777h4.121l10.189,16.472h0.085c-0.019-0.218-0.057-1.012-0.113-2.381s-0.086-2.438-0.086-3.204v-10.887h3.112V230.239z
		"/>
	<path fill="#373737" d="M1033.398,212.077c-1.951,0-3.486,0.691-4.604,2.075c-1.118,1.383-1.677,3.292-1.677,5.727
		c0,2.549,0.538,4.477,1.613,5.784s2.631,1.961,4.668,1.961c0.881,0,1.734-0.087,2.559-0.263c0.824-0.175,1.682-0.4,2.572-0.675
		v2.913c-1.63,0.616-3.478,0.924-5.543,0.924c-3.041,0-5.377-0.921-7.006-2.764c-1.63-1.843-2.444-4.479-2.444-7.909
		c0-2.16,0.396-4.05,1.187-5.67s1.935-2.861,3.432-3.724s3.255-1.293,5.272-1.293c2.122,0,4.084,0.445,5.884,1.336l-1.222,2.828
		c-0.702-0.332-1.443-0.623-2.225-0.874S1034.261,212.077,1033.398,212.077z"/>
	<path fill="#373737" d="M1057.668,230.239h-11.752v-20.777h11.752v2.871h-8.355v5.656h7.83v2.842h-7.83v6.523h8.355V230.239z"/>
</g>
<rect x="265" y="186.5" fill="#373737" width="796.064" height="5"/>
</svg>
