<?xml version="1.0" encoding="utf-8"?>
<!-- Generator: Adobe Illustrator 16.0.0, SVG Export Plug-In . SVG Version: 6.00 Build 0)  -->
<!DOCTYPE svg PUBLIC "-//W3C//DTD SVG 1.1//EN" "http://www.w3.org/Graphics/SVG/1.1/DTD/svg11.dtd">
<svg version="1.1" id="Layer_1" xmlns="http://www.w3.org/2000/svg" xmlns:xlink="http://www.w3.org/1999/xlink" x="0px" y="0px"
	 width="48px" height="48px" viewBox="0 0 48 48" enable-background="new 0 0 48 48" xml:space="preserve">
<rect fill="#FFFFFF" width="48" height="48"/>
<g>
	<path fill-rule="evenodd" clip-rule="evenodd" d="M14.029,15.168c0.304-1.569,0.577-3.144,0.919-4.705
		c0.381-1.731,0.938-3.421,1.156-5.191c0.121-0.979,0.931-1.29,1.711-1.426c1.748-0.306,3.383-0.98,5.021-1.577
		c0.891-0.325,1.721-0.382,2.449-0.113c1.858,0.685,3.741,1.269,5.666,1.695c1.531,0.339,1.154,1.674,1.38,2.583
		c0.683,2.732,1.107,5.528,1.79,8.26c0.173,0.695,0.242,0.759-0.48,1.033c-3.032,1.146-6.009,2.44-9.013,3.662
		c-1.122,0.456-1.995-0.416-2.881-0.768c-2.456-0.975-4.861-2.081-7.363-2.949C14.138,15.586,13.933,15.443,14.029,15.168z"/>
	<path fill-rule="evenodd" clip-rule="evenodd" d="M15.224,24.79c-3.792-2.063-7.585-4.125-11.489-6.25
		c2.374-0.46,4.58-0.761,6.709-1.346c1.385-0.382,2.489,0.157,3.66,0.547c3.119,1.042,6.225,2.126,9.315,3.252
		c0.51,0.185,0.841,0.154,1.352-0.022c3.392-1.176,6.892-2.077,10.195-3.453c2.012-0.839,3.662-0.011,5.461,0.256
		c1.071,0.158,2.124,0.434,3.188,0.652c0.237,0.049,0.607-0.156,0.634,0.284c0.022,0.375-0.394,0.328-0.587,0.433
		c-3.354,1.805-6.725,3.581-10.104,5.339c-0.163,0.086-0.33,0.091-0.354,0.308c-0.738-0.186-1.289,0.345-1.873,0.59
		c-1.64,0.688-3.414,0.927-5.043,1.623c-1.659,0-3.319,0-4.979,0c-0.456-0.817-1.349-0.505-2.018-0.712
		C17.904,25.862,16.625,25.162,15.224,24.79z"/>
	<path fill-rule="evenodd" clip-rule="evenodd" d="M14.325,35.371c1.979,7.574-3.688,3.833-9.444,0.033
		c1.876-0.973,3.898-1.344,5.632-2.357c-2.484-2.89-4.924-5.771-7.422-8.599c-0.478-0.54-0.25-0.801,0.146-1.075
		c0.853-0.586,1.735-1.129,2.573-1.669c0.484,0.255,0.255,0.621,0.275,0.904c0.063,0.903,0.205,0.941,0.934,1.111
		c1.63,0.379,3.25,0.829,4.833,1.371c0.716,0.245,0.705,1.123,0.868,1.744c0.595,2.248,1.054,4.532,1.682,6.77
		c0.144,0.511,0.703,0.958,1.162,1.318c1.941,1.524,3.792,3.15,5.621,4.805c0.515,0.465,0.782,0.945,0.689,1.661
		c-0.177,1.374,0.257,2.779-0.232,4.148C21.503,45.921,22.326,46.04,14.325,35.371C6.6,25.124,7.14,25.731,7.653,26.351
		C7.527,25.546,7.092,24.89,14.325,35.371z"/>
	<path fill-rule="evenodd" clip-rule="evenodd" d="M25.648,46.949c0.69-0.754,0.848-1.596,0.654-2.587
		c-0.087-0.444,0.064-0.936-0.026-1.377c-0.528-2.56,1.061-3.883,2.846-5.208c1.511-1.122,2.877-2.437,4.307-3.669
		c0.564-0.487,0.399-1.225,0.582-1.835c0.614-2.061,1.148-4.147,1.674-6.234c0.193-0.766,0.612-1.124,1.394-1.267
		c1.271-0.232,2.533-0.542,3.778-0.895c0.653-0.185,1.32-0.5,1.195-1.39c-0.148-1.046,0.425-0.705,0.899-0.47
		c0.274,0.137,0.491,0.382,0.752,0.55c1.929,1.246,1.865,1.187,0.391,2.843c-2.055,2.304-3.968,4.732-6.013,7.044
		c-0.646,0.73-0.182,0.81,0.347,1.003c1.399,0.513,2.8,1.022,4.192,1.554c0.203,0.078,0.364,0.263,0.515,0.378
		C37.304,39.244,31.477,43.098,25.648,46.949z"/>
	<path fill-rule="evenodd" clip-rule="evenodd" d="M15.097,28.655c7.902,2.476,9.84,2.78,17.824,0.012
		c-0.022,1.471-0.811,2.724-0.918,4.101c-0.176,2.259-2.164,3.042-3.521,4.308c-1.191,1.112-2.571,2.021-3.828,3.066
		c-0.397,0.33-0.581,0.522-1.09,0.08c-2.121-1.838-4.309-3.597-6.461-5.398c-0.573-0.48-0.692-1.145-0.829-1.873
		C16.016,31.563,15.54,30.217,15.097,28.655z"/>
	<path fill-rule="evenodd" clip-rule="evenodd" fill="#DD2810" d="M26.288,27.003c2.307-0.738,4.611-1.476,6.916-2.213
		C32.295,27.483,28.954,27.65,26.288,27.003z"/>
	<path fill-rule="evenodd" clip-rule="evenodd" fill="#DD2810" d="M15.224,24.79c2.028,0.737,4.057,1.475,6.085,2.213
		C18.76,28.126,15.932,27.098,15.224,24.79z"/>
	<path fill-rule="evenodd" clip-rule="evenodd" d="M6.811,24.25c0.329,0.695,0.658,1.389,0.986,2.083
		C7.017,25.823,6.755,25.067,6.811,24.25z"/>
</g>
</svg>
