<?xml version="1.0" encoding="utf-8"?>
<!-- Generator: Adobe Illustrator 16.0.0, SVG Export Plug-In . SVG Version: 6.00 Build 0)  -->
<!DOCTYPE svg PUBLIC "-//W3C//DTD SVG 1.1//EN" "http://www.w3.org/Graphics/SVG/1.1/DTD/svg11.dtd">
<svg version="1.1" id="Capa_1" xmlns="http://www.w3.org/2000/svg" xmlns:xlink="http://www.w3.org/1999/xlink" x="0px" y="0px"
	 width="9.704px" height="12px" viewBox="236.363 235.214 9.704 12" enable-background="new 236.363 235.214 9.704 12"
	 xml:space="preserve">
<g>
	<g>
		<path fill="#051D6B" d="M244.695,236.652h-1.867c-0.094-0.808-0.781-1.438-1.614-1.438s-1.52,0.63-1.613,1.438h-1.868
			c-0.756,0-1.371,0.615-1.371,1.371v0.07c0,0.578,0.359,1.072,0.866,1.273v6.476c0,0.756,0.615,1.371,1.371,1.371h5.229
			c0.756,0,1.371-0.615,1.371-1.371v-6.476c0.507-0.202,0.866-0.696,0.866-1.273v-0.07
			C246.066,237.268,245.451,236.652,244.695,236.652z M241.214,235.865c0.474,0,0.869,0.339,0.957,0.788h-1.913
			C240.346,236.204,240.741,235.865,241.214,235.865z M244.55,245.843c0,0.397-0.323,0.721-0.721,0.721H238.6
			c-0.397,0-0.721-0.323-0.721-0.721v-6.378h6.67V245.843z M245.416,238.094c0,0.397-0.323,0.721-0.721,0.721h-6.962
			c-0.397,0-0.721-0.323-0.721-0.721v-0.07c0-0.397,0.323-0.721,0.721-0.721h6.962c0.397,0,0.721,0.324,0.721,0.721V238.094
			L245.416,238.094z"/>
		<path fill="#051D6B" d="M239.472,245.733c0.18,0,0.325-0.146,0.325-0.325v-3.66c0-0.18-0.146-0.325-0.325-0.325
			s-0.325,0.146-0.325,0.325v3.66C239.146,245.587,239.292,245.733,239.472,245.733z"/>
		<path fill="#051D6B" d="M241.214,245.733c0.18,0,0.325-0.146,0.325-0.325v-3.66c0-0.18-0.146-0.325-0.325-0.325
			c-0.179,0-0.325,0.146-0.325,0.325v3.66C240.89,245.587,241.035,245.733,241.214,245.733z"/>
		<path fill="#051D6B" d="M242.958,245.733c0.179,0,0.324-0.146,0.324-0.325v-3.66c0-0.18-0.146-0.325-0.324-0.325
			c-0.18,0-0.325,0.146-0.325,0.325v3.66C242.633,245.587,242.778,245.733,242.958,245.733z"/>
	</g>
</g>
</svg>
