<?xml version="1.0" encoding="utf-8"?>
<!-- Generator: Adobe Illustrator 16.0.0, SVG Export Plug-In . SVG Version: 6.00 Build 0)  -->
<!DOCTYPE svg PUBLIC "-//W3C//DTD SVG 1.1//EN" "http://www.w3.org/Graphics/SVG/1.1/DTD/svg11.dtd">
<svg version="1.1" id="Capa_1" xmlns="http://www.w3.org/2000/svg" xmlns:xlink="http://www.w3.org/1999/xlink" x="0px" y="0px"
	 width="11.568px" height="12px" viewBox="0 0 11.568 12" enable-background="new 0 0 11.568 12" xml:space="preserve">
<g>
	<g>
		<g>
			<path fill="#8E8E8E" d="M10.542,1.301c-0.023-0.001-0.049-0.001-0.073,0H9.543V0.506C9.543,0.188,9.239,0,8.922,0H8.068
				C7.75,0,7.519,0.188,7.519,0.506v0.795H4.05V0.506C4.05,0.188,3.818,0,3.5,0H2.646C2.328,0,2.024,0.188,2.024,0.506v0.795H1.099
				C0.51,1.284,0.016,1.75,0,2.341c0,0.024,0,0.05,0,0.074v8.356C0,11.407,0.462,12,1.099,12h9.368c0.637,0,1.1-0.594,1.1-1.229
				V2.415C11.592,1.824,11.133,1.325,10.542,1.301z M8.068,0.578h0.896v1.59H8.068V0.578z M2.647,0.578h0.824v1.59H2.647V0.578
				L2.647,0.578z M10.989,10.771c0,0.317-0.203,0.649-0.521,0.649H1.099c-0.318,0-0.521-0.332-0.521-0.649V4.626h10.41
				L10.989,10.771L10.989,10.771z M10.989,2.414v1.634H0.579V2.414C0.555,2.143,0.754,1.904,1.024,1.88
				c0.025-0.002,0.05-0.002,0.075-0.001h0.925v0.318c0,0.318,0.304,0.549,0.622,0.549H3.5c0.296,0.008,0.541-0.225,0.55-0.52
				c0-0.011,0-0.021,0-0.029V1.879h3.47v0.318c-0.01,0.295,0.225,0.541,0.52,0.549c0.01,0,0.021,0,0.029,0h0.854
				c0.317,0,0.621-0.23,0.621-0.549V1.879h0.926c0.271-0.018,0.505,0.189,0.521,0.46C10.991,2.364,10.991,2.389,10.989,2.414z"/>
			<path fill="#8E8E8E" d="M4.179,8.573l-0.261,1.444c-0.01,0.063,0,0.126,0.029,0.183c0.074,0.142,0.249,0.196,0.391,0.122
				l1.301-0.681l1.301,0.681l0.131,0.028c0.063,0.001,0.123-0.02,0.173-0.059c0.087-0.063,0.131-0.168,0.116-0.274L7.099,8.573
				L8.155,7.56c0.075-0.08,0.103-0.195,0.072-0.303C8.188,7.157,8.1,7.086,7.996,7.069L6.551,6.852L5.9,5.536
				C5.872,5.479,5.824,5.432,5.766,5.402c-0.145-0.07-0.317-0.01-0.386,0.134L4.729,6.852L3.283,7.069
				c-0.104,0.018-0.191,0.089-0.23,0.188C3.021,7.363,3.05,7.479,3.124,7.56L4.179,8.573z M4.974,7.402
				c0.091-0.015,0.167-0.074,0.202-0.159l0.463-0.926l0.462,0.926c0.034,0.085,0.111,0.146,0.202,0.159L7.33,7.547L6.593,8.255
				C6.525,8.323,6.492,8.42,6.506,8.516L6.68,9.542L5.769,9.05l-0.13-0.028L5.51,9.05L4.598,9.542l0.173-1.026
				C4.785,8.42,4.753,8.324,4.684,8.255L3.947,7.547L4.974,7.402z"/>
		</g>
	</g>
</g>
</svg>
