<?xml version="1.0" encoding="utf-8"?>
<!-- Generator: Adobe Illustrator 16.0.0, SVG Export Plug-In . SVG Version: 6.00 Build 0)  -->
<!DOCTYPE svg PUBLIC "-//W3C//DTD SVG 1.1//EN" "http://www.w3.org/Graphics/SVG/1.1/DTD/svg11.dtd">
<svg version="1.1" id="Layer_1" xmlns="http://www.w3.org/2000/svg" xmlns:xlink="http://www.w3.org/1999/xlink" x="0px" y="0px"
	 width="453px" height="453px" viewBox="0 0 453 453" enable-background="new 0 0 453 453" xml:space="preserve">
<path fill="#096CB7" d="M344.616,3.839c-2.857-2.841-7.145-3.687-10.867-2.14c-3.722,1.547-6.15,5.18-6.15,9.214v53.242
	c-53.886,2.147-80.876,24.481-85.004,28.2c-27.19,22.314-45.755,53.41-52.498,87.927c-3.371,16.678-3.976,33.797-1.781,50.67
	l0.008,0.058c0.02,0.148,0.043,0.301,0.066,0.449l2.12,12.188c0.713,4.104,3.906,7.336,8.002,8.1
	c4.101,0.764,8.24-1.104,10.384-4.674l6.353-10.59c19.519-32.459,43.845-53.975,72.31-63.949c12.838-4.537,26.441-6.532,40.04-5.87
	v55.144c0,4.038,2.437,7.682,6.17,9.221c3.738,1.544,8.033,0.679,10.883-2.186l105.443-105.978
	c3.886-3.905,3.87-10.224-0.035-14.109L344.616,3.839z"/>
<path fill="#096CB7" d="M416.435,294.741c-5.508,0-9.979,4.467-9.979,9.978v42.174c-0.016,16.521-13.408,29.914-29.934,29.934H49.89
	c-16.526-0.02-29.915-13.412-29.934-29.934V109.169c0.02-16.526,13.408-29.915,29.934-29.934h69.008
	c5.511,0,9.978-4.467,9.978-9.978s-4.467-9.978-9.978-9.978H49.89C22.349,59.311,0.031,81.628,0,109.169v237.723
	c0.031,27.536,22.349,49.854,49.89,49.89h326.632c27.54-0.035,49.858-22.354,49.89-49.89v-42.174
	C426.412,299.208,421.945,294.741,416.435,294.741z"/>
</svg>
