<?xml version="1.0" encoding="utf-8"?>
<!-- Generator: Adobe Illustrator 16.0.0, SVG Export Plug-In . SVG Version: 6.00 Build 0)  -->
<!DOCTYPE svg PUBLIC "-//W3C//DTD SVG 1.1//EN" "http://www.w3.org/Graphics/SVG/1.1/DTD/svg11.dtd">
<svg version="1.1" id="Capa_1" xmlns="http://www.w3.org/2000/svg" xmlns:xlink="http://www.w3.org/1999/xlink" x="0px" y="0px"
	 width="10.251px" height="11.738px" viewBox="-0.54 -0.183 10.251 11.738" enable-background="new -0.54 -0.183 10.251 11.738"
	 xml:space="preserve">
<g>
	<path fill="#7A7979" d="M4.586-0.183c-2.831,0-5.126,2.295-5.126,5.126c0,1.936,1.073,3.619,2.657,4.493l-0.061,2.119l2.419-1.491
		c0.037,0,0.072,0.007,0.111,0.007c2.829,0,5.125-2.294,5.125-5.125C9.711,2.113,7.416-0.183,4.586-0.183z M5.238,7.93H3.925V3.702
		h1.313V7.93z M4.573,3.185c-0.417,0-0.691-0.293-0.682-0.659C3.882,2.146,4.159,1.86,4.583,1.86c0.423,0,0.691,0.286,0.701,0.666
		C5.282,2.892,5.004,3.185,4.573,3.185z"/>
</g>
</svg>
