<?xml version="1.0" ?><svg enable-background="new 0 0 24 24" id="Layer_1" version="1.1" viewBox="0 0 24 24" xml:space="preserve" xmlns="http://www.w3.org/2000/svg" xmlns:xlink="http://www.w3.org/1999/xlink"><g><path d="M12,0C5.3833008,0,0,5.3833008,0,12s5.3833008,12,12,12s12-5.3833008,12-12S18.6166992,0,12,0z" fill="#303C42"/><path d="M12,23C5.9345703,23,1,18.0654297,1,12S5.9345703,1,12,1s11,4.9345703,11,11S18.0654297,23,12,23z" fill="#FED600"/><path d="M19.119751,3.630249C20.7561646,5.5509644,21.75,8.0349121,21.75,10.75   c0,6.0654297-4.9345703,11-11,11c-2.7150879,0-5.1990356-0.9938354-7.119751-2.630249C5.6494751,21.4898682,8.6496582,23,12,23   c6.0654297,0,11-4.9345703,11-11C23,8.6496582,21.4898682,5.6494751,19.119751,3.630249z" fill="#010101" opacity="0.1"/><circle cx="8" cy="9" fill="#303C42" r="1"/><circle cx="16" cy="9" fill="#303C42" r="1"/><path d="M17.5893555,17.0083008l-11-2c-0.2695313-0.0522461-0.5322266,0.1303711-0.5810547,0.4023438   c-0.0498047,0.2714844,0.1303711,0.5317383,0.4023438,0.5810547l11,2C17.440918,17.9975586,17.4707031,18,17.5004883,18   c0.2373047,0,0.4477539-0.1689453,0.4912109-0.4106445C18.0415039,17.3178711,17.8613281,17.0576172,17.5893555,17.0083008z" fill="#303C42"/><linearGradient gradientUnits="userSpaceOnUse" id="SVGID_1_" x1="1.1249185" x2="22.875082" y1="6.9288664" y2="17.0711346"><stop offset="0" style="stop-color:#FFFFFF;stop-opacity:0.2"/><stop offset="1" style="stop-color:#FFFFFF;stop-opacity:0"/></linearGradient><path d="M12,0C5.3833008,0,0,5.3833008,0,12s5.3833008,12,12,12s12-5.3833008,12-12S18.6166992,0,12,0z" fill="url(#SVGID_1_)"/></g><g/><g/><g/><g/><g/><g/><g/><g/><g/><g/><g/><g/><g/><g/><g/></svg>