<?xml version="1.0" encoding="utf-8"?>
<!-- Generator: Adobe Illustrator 16.0.0, SVG Export Plug-In . SVG Version: 6.00 Build 0)  -->
<!DOCTYPE svg PUBLIC "-//W3C//DTD SVG 1.1//EN" "http://www.w3.org/Graphics/SVG/1.1/DTD/svg11.dtd">
<svg version="1.1" id="Layer_1" xmlns="http://www.w3.org/2000/svg" xmlns:xlink="http://www.w3.org/1999/xlink" x="0px" y="0px"
	 width="16px" height="16px" viewBox="2.25 2.25 16 16" enable-background="new 2.25 2.25 16 16" xml:space="preserve">
<path fill="#5B5B5B" d="M17.341,15.431c-1.384-1.353-2.086-2.938-2.086-4.74V8.076c0.014-1.997-1.356-3.318-2.533-3.854
	c-0.332-0.146-0.679-0.26-1.037-0.346V3.704c0-0.804-0.666-1.454-1.484-1.454c-0.819,0-1.484,0.646-1.484,1.454v0.207
	C8.396,3.994,8.081,4.099,7.78,4.225c-1.3,0.586-2.616,2.002-2.63,3.848v2.611c0,1.854-0.669,3.454-1.99,4.732
	c-0.08,0.076-0.106,0.189-0.074,0.293c0.033,0.105,0.121,0.188,0.233,0.199l2.818,0.479c0.531,0.098,1.014,0.159,1.469,0.228
	c0.518,0.995,1.537,1.635,2.647,1.635c1.114,0,2.131-0.64,2.648-1.635c0.451-0.063,0.933-0.131,1.462-0.228l2.818-0.479
	c0.108-0.021,0.197-0.094,0.231-0.199C17.449,15.622,17.419,15.508,17.341,15.431z M9.31,3.708c0-0.479,0.399-0.874,0.892-0.874
	c0.49,0,0.892,0.396,0.892,0.874v0.063C10.5,3.688,9.897,3.693,9.31,3.791V3.708L9.31,3.708z M6.933,8.364L6.933,8.364
	C6.769,8.362,6.636,8.223,6.638,8.07c0.01-1.361,1.114-2.229,1.764-2.521c1.144-0.517,2.551-0.517,3.702-0.001
	c0.149,0.067,0.216,0.24,0.148,0.393c-0.067,0.146-0.244,0.211-0.393,0.146c-0.999-0.44-2.218-0.442-3.208,0
	C8.125,6.321,7.238,7.01,7.23,8.081C7.23,8.234,7.098,8.364,6.933,8.364z M12.163,16.707c-0.451,0.604-1.152,0.966-1.907,0.966
	c-0.752,0-1.457-0.357-1.907-0.966l0,0c0.118,0.023,0.234,0.023,0.347,0.031c0.055,0.005,0.109,0.012,0.162,0.017
	c0.042,0.003,0.084,0.012,0.125,0.015c0.862,0.063,1.657,0.063,2.519,0.002c0.05-0.007,0.099-0.014,0.148-0.016
	c0.064-0.007,0.133-0.015,0.195-0.018c0.104-0.018,0.203-0.02,0.309-0.026C12.154,16.707,12.159,16.707,12.163,16.707z"/>
</svg>
