<?xml version="1.0" encoding="utf-8"?>
<!-- Generator: Adobe Illustrator 16.0.0, SVG Export Plug-In . SVG Version: 6.00 Build 0)  -->
<!DOCTYPE svg PUBLIC "-//W3C//DTD SVG 1.1//EN" "http://www.w3.org/Graphics/SVG/1.1/DTD/svg11.dtd">
<svg version="1.1" id="Layer_1" xmlns="http://www.w3.org/2000/svg" xmlns:xlink="http://www.w3.org/1999/xlink" x="0px" y="0px"
	 width="16px" height="16px" viewBox="2.25 2.25 16 16" enable-background="new 2.25 2.25 16 16" xml:space="preserve">
<g>
	<path fill="#5B5B5B" stroke="#5B5B5B" stroke-width="0.5" stroke-miterlimit="10" d="M16.384,15.238
		c-1.197-1.299-1.805-2.828-1.805-4.558V8.154c0.011-1.911-1.171-3.19-2.19-3.701c-0.292-0.141-0.592-0.261-0.899-0.341V3.949
		c0-0.773-0.573-1.399-1.283-1.399c-0.707,0-1.282,0.622-1.282,1.399v0.181c-0.277,0.08-0.546,0.181-0.81,0.319
		C6.99,5.015,5.851,6.376,5.84,8.147v2.521c0,1.787-0.58,3.318-1.723,4.559c-0.068,0.072-0.091,0.18-0.064,0.279
		c0.03,0.104,0.106,0.182,0.202,0.193l2.437,0.461c0.455,0.086,0.875,0.152,1.271,0.22c0.449,0.953,1.33,1.57,2.291,1.57
		c0.961,0,1.842-0.624,2.291-1.574c0.396-0.06,0.812-0.134,1.261-0.219l2.439-0.463c0.095-0.02,0.171-0.1,0.2-0.192
		C16.478,15.422,16.451,15.313,16.384,15.238z M9.438,3.95c0-0.462,0.346-0.842,0.77-0.842c0.426,0,0.77,0.382,0.77,0.842V4
		c-0.51-0.081-1.03-0.077-1.54,0.019V3.95L9.438,3.95z M10.253,17.397c-0.649,0-1.258-0.353-1.647-0.93
		c0.573,0.061,1.11,0.101,1.645,0.101c0.537,0,1.075-0.033,1.653-0.101C11.514,17.046,10.906,17.397,10.253,17.397z M13.721,15.622
		c-0.491,0.092-0.943,0.166-1.372,0.221l0,0c-0.188,0.024-0.374,0.053-0.55,0.067c-0.002,0-0.006,0-0.009,0
		c-0.161,0.019-0.321,0.033-0.48,0.045c-0.03,0.002-0.061,0.004-0.092,0.016c-0.136,0.011-0.273,0.021-0.404,0.021
		c-0.029,0-0.058,0.001-0.084,0.003c-0.322,0.018-0.636,0.018-0.956,0c-0.028-0.002-0.057-0.002-0.085-0.003
		c-0.134-0.009-0.268-0.021-0.403-0.021c-0.032-0.009-0.063-0.012-0.094-0.016c-0.154-0.009-0.311-0.02-0.472-0.044
		c-0.005-0.001-0.01-0.001-0.017-0.001c-0.176-0.021-0.358-0.041-0.546-0.061c-0.001,0-0.001,0-0.001,0
		c-0.429-0.062-0.881-0.142-1.375-0.222l-1.969-0.377c1.023-1.275,1.541-2.812,1.541-4.575V8.154c0.01-1.523,0.998-2.7,1.977-3.19
		c0.291-0.141,0.591-0.257,0.898-0.333c0.002,0,0.005,0,0.008-0.002c0.633-0.154,1.307-0.161,1.946-0.018c0.004,0,0.009,0,0.01,0
		c0.336,0.067,0.665,0.184,0.982,0.343c0.948,0.471,1.899,1.641,1.892,3.19v2.523c0,1.689,0.559,3.268,1.62,4.574L13.721,15.622z"/>
	<path fill="#5B5B5B" stroke="#5B5B5B" stroke-width="0.5" stroke-miterlimit="10" d="M11.853,5.726c-0.993-0.497-2.21-0.498-3.2,0
		C8.091,6.01,7.133,6.839,7.126,8.153c0,0.157,0.114,0.281,0.256,0.283c0,0,0,0,0,0c0.139,0,0.256-0.124,0.257-0.278
		c0.005-1.024,0.773-1.692,1.228-1.912c0.854-0.423,1.911-0.422,2.775,0c0.127,0.06,0.281,0.001,0.337-0.141
		C12.041,5.958,11.983,5.789,11.853,5.726z"/>
</g>
</svg>
