<?xml version="1.0" encoding="utf-8"?>
<!-- Generator: Adobe Illustrator 16.0.0, SVG Export Plug-In . SVG Version: 6.00 Build 0)  -->
<!DOCTYPE svg PUBLIC "-//W3C//DTD SVG 1.1//EN" "http://www.w3.org/Graphics/SVG/1.1/DTD/svg11.dtd">
<svg version="1.1" id="Layer_1" xmlns="http://www.w3.org/2000/svg" xmlns:xlink="http://www.w3.org/1999/xlink" x="0px" y="0px"
	 width="16px" height="16px" viewBox="2.25 2.25 16 16" enable-background="new 2.25 2.25 16 16" xml:space="preserve">
<g>
	<path fill="none" stroke="#5B5B5B" stroke-width="0.7" stroke-miterlimit="10" d="M14.815,12c0,0.913,0,1.827,0,2.739
		c-1.442,0.744-9.056,0.679-10.741-0.089c0-0.912,0-1.829,0-2.741C7.647,12.644,11.224,12.627,14.815,12z"/>
	<path fill="none" stroke="#5B5B5B" stroke-width="0.7" stroke-miterlimit="10" d="M12.138,8.495
		c-0.74,0.026-1.474,0.068-2.215,0.076C8.354,8.586,6.79,8.51,5.236,8.246C4.888,8.186,4.54,8.093,4.193,8.021
		C4.101,8.002,4.075,7.956,4.076,7.852c0.004-0.953,0-1.904,0.004-2.856c0.001-0.287,0.194-0.429,0.386-0.543
		c0.429-0.261,0.899-0.4,1.375-0.505c1.401-0.316,2.821-0.4,4.25-0.348c0.547,0.019,1.094,0.074,1.64,0.115
		c0.058,0.003,0.104,0.018,0.175,0.024c0,0.226,0,0.446,0,0.672c-0.386-0.032-0.761-0.07-1.14-0.09
		C9.168,4.243,7.569,4.258,5.989,4.604c-0.192,0.043-0.384,0.118-0.58,0.194c-0.125,0.05-0.292,0.109-0.292,0.288
		c-0.004,0.189,0.169,0.257,0.3,0.3c0.354,0.111,0.712,0.228,1.075,0.291c1.31,0.229,2.631,0.248,3.953,0.202
		c0.058-0.001,0.116,0,0.184,0c0.002,0.042,0.006,0.081,0.006,0.117c0.002,0.359,0.112,0.675,0.323,0.942
		c0.398,0.502,0.793,1.005,1.191,1.509C12.144,8.463,12.143,8.479,12.138,8.495z"/>
	<path fill="none" stroke="#5B5B5B" stroke-width="0.7" stroke-miterlimit="10" d="M14.821,15.056c0,0.576,0.006,1.148-0.009,1.723
		c-0.004,0.096-0.083,0.222-0.156,0.274c-0.186,0.124-0.385,0.237-0.589,0.315c-0.745,0.271-1.513,0.375-2.299,0.455
		c-1.271,0.135-2.547,0.152-3.819,0.071c-1.051-0.071-2.096-0.173-3.109-0.526c-0.207-0.073-0.401-0.191-0.593-0.304
		c-0.127-0.076-0.18-0.213-0.178-0.391c0.006-0.519,0.001-1.031,0.001-1.549c0-0.056,0-0.112,0-0.161
		C7.65,15.701,11.224,15.687,14.821,15.056z"/>
	<path fill="none" stroke="#5B5B5B" stroke-width="0.7" stroke-miterlimit="10" d="M4.069,8.51c2.406,0.575,4.814,0.625,7.268,0.537
		c-0.079,0.056-0.121,0.088-0.164,0.124c-0.404,0.314-0.577,0.868-0.465,1.484c0.095,0.514,0.45,0.913,0.909,0.988
		c0.188,0.031,0.382,0.01,0.574,0.002c0.695-0.03,1.388-0.061,2.079-0.091c0.083,0.168-0.013,0.185-0.102,0.196
		c-0.627,0.084-1.249,0.189-1.883,0.246c-1.434,0.136-2.875,0.149-4.309,0.072c-1.26-0.069-2.51-0.193-3.741-0.513
		c-0.133-0.035-0.171-0.098-0.169-0.253c0.006-0.87,0.002-1.74,0.002-2.612C4.069,8.638,4.069,8.579,4.069,8.51z"/>
	<path fill="none" stroke="#5B5B5B" stroke-width="0.7" stroke-miterlimit="10" d="M15.51,10.697c-0.136,0-0.294-0.006-0.455,0.003
		c-1.083,0.045-2.157,0.095-3.237,0.142c-0.268,0.013-0.434-0.188-0.441-0.52c-0.017-0.33,0.143-0.534,0.414-0.546
		c1.177-0.056,2.356-0.107,3.532-0.161c0.071-0.003,0.144,0,0.249,0c-0.101-0.128-0.173-0.22-0.249-0.315
		c-0.074-0.092-0.148-0.185-0.22-0.277c-0.206-0.256-0.209-0.613-0.01-0.843c0.199-0.236,0.508-0.233,0.723,0.024
		c0.355,0.428,0.706,0.862,1.061,1.293c0.074,0.097,0.156,0.19,0.229,0.289c0.186,0.246,0.184,0.585-0.019,0.814
		c-0.411,0.479-0.826,0.948-1.246,1.412c-0.206,0.232-0.511,0.22-0.706-0.014c-0.188-0.232-0.183-0.59,0.017-0.831
		C15.274,11.009,15.395,10.847,15.51,10.697z"/>
	<path fill="none" stroke="#5B5B5B" stroke-width="0.7" stroke-miterlimit="10" d="M12.979,7.508c0-0.062,0-0.119,0-0.181
		c0-1.381,0-2.76,0.002-4.14c0-0.385,0.16-0.571,0.484-0.559c0.27,0.01,0.421,0.196,0.421,0.538c0,1.351,0,2.704,0,4.052
		c0,0.107,0,0.218,0,0.371c0.182-0.193,0.341-0.354,0.487-0.512c0.253-0.256,0.556-0.25,0.749,0.007S15.282,7.7,15.035,7.96
		c-0.431,0.457-0.864,0.913-1.302,1.366c-0.271,0.289-0.555,0.271-0.799-0.054c-0.366-0.484-0.734-0.968-1.099-1.454
		c-0.136-0.175-0.163-0.38-0.099-0.599c0.067-0.222,0.215-0.345,0.408-0.375c0.176-0.025,0.32,0.048,0.437,0.199
		c0.122,0.156,0.244,0.315,0.364,0.474C12.957,7.517,12.969,7.512,12.979,7.508z"/>
</g>
</svg>
