<?xml version="1.0" encoding="utf-8"?>
<!-- Generator: Adobe Illustrator 16.0.0, SVG Export Plug-In . SVG Version: 6.00 Build 0)  -->
<!DOCTYPE svg PUBLIC "-//W3C//DTD SVG 1.1//EN" "http://www.w3.org/Graphics/SVG/1.1/DTD/svg11.dtd">
<svg version="1.1" id="Layer_1" xmlns="http://www.w3.org/2000/svg" xmlns:xlink="http://www.w3.org/1999/xlink" x="0px" y="0px"
	 width="16px" height="16px" viewBox="2.25 2.25 16 16" enable-background="new 2.25 2.25 16 16" xml:space="preserve">
<g>
	<path fill="#5B5B5B" d="M14.892,12.039c0,0.864,0,1.735,0,2.599c-1.61,0.703-10.106,0.644-11.986-0.086c0-0.864,0-1.731,0-2.599
		C6.894,12.649,10.883,12.633,14.892,12.039z"/>
	<path fill="#5B5B5B" d="M11.895,7.913C11.072,7.937,10.25,7.98,9.426,7.988c-1.752,0.015-3.5-0.063-5.235-0.323
		c-0.39-0.061-0.777-0.152-1.165-0.223C2.92,7.425,2.895,7.377,2.895,7.278C2.898,6.337,2.896,5.396,2.9,4.455
		c0.002-0.284,0.219-0.422,0.432-0.538c0.477-0.256,1.001-0.393,1.532-0.499c1.566-0.313,3.151-0.393,4.745-0.342
		c0.611,0.02,1.221,0.072,1.829,0.112c0.065,0.004,0.122,0.018,0.19,0.026c0,0.222,0,0.437,0,0.663
		c-0.427-0.028-0.84-0.067-1.27-0.085C8.578,3.713,6.793,3.727,5.032,4.07c-0.22,0.043-0.429,0.115-0.649,0.191
		c-0.14,0.051-0.325,0.107-0.328,0.285C4.054,4.733,4.244,4.8,4.391,4.841c0.397,0.11,0.795,0.225,1.199,0.287
		c1.463,0.226,2.937,0.247,4.413,0.201c0.066-0.002,0.129,0,0.205,0c0.005,0.044,0.008,0.079,0.008,0.115
		c0.004,0.356,0.121,0.666,0.361,0.932c0.444,0.497,0.885,0.993,1.33,1.49C11.902,7.882,11.9,7.898,11.895,7.913z"/>
	<path fill="#5B5B5B" d="M14.898,15.511c0,0.549,0.009,1.092-0.008,1.636c-0.004,0.089-0.092,0.212-0.175,0.258
		c-0.21,0.118-0.432,0.227-0.656,0.296c-0.835,0.257-1.693,0.358-2.564,0.437c-1.423,0.126-2.846,0.144-4.266,0.065
		c-1.17-0.065-2.338-0.159-3.471-0.496c-0.228-0.067-0.446-0.181-0.662-0.289c-0.142-0.071-0.2-0.203-0.2-0.37
		c0.009-0.488,0.005-0.978,0.005-1.468c0-0.055,0-0.108,0-0.153C6.894,16.122,10.885,16.107,14.898,15.511z"/>
	<path fill="#5B5B5B" d="M2.896,8.251c2.685,0.544,5.375,0.595,8.112,0.509c-0.085,0.054-0.133,0.085-0.183,0.116
		c-0.451,0.299-0.643,0.824-0.516,1.409c0.104,0.485,0.501,0.866,1.012,0.937c0.209,0.028,0.428,0.01,0.643,0
		c0.773-0.023,1.548-0.055,2.318-0.084c0.095,0.158-0.015,0.175-0.111,0.186c-0.701,0.083-1.396,0.18-2.102,0.237
		c-1.603,0.129-3.21,0.142-4.81,0.067c-1.408-0.063-2.8-0.183-4.175-0.489c-0.151-0.033-0.191-0.092-0.189-0.238
		c0.007-0.826,0.001-1.65,0.001-2.476C2.896,8.372,2.896,8.316,2.896,8.251z"/>
	<path fill="#5B5B5B" d="M15.672,10.325c-0.152,0-0.331-0.005-0.512,0.002c-1.204,0.043-2.409,0.091-3.61,0.135
		c-0.299,0.013-0.483-0.18-0.497-0.494c-0.013-0.314,0.158-0.505,0.468-0.517c1.313-0.054,2.628-0.102,3.94-0.153
		c0.077-0.005,0.158,0,0.279,0c-0.113-0.121-0.194-0.211-0.279-0.3c-0.083-0.087-0.161-0.173-0.249-0.263
		c-0.226-0.243-0.227-0.581-0.007-0.8C15.431,7.71,15.77,7.717,16.01,7.96c0.396,0.405,0.789,0.816,1.184,1.224
		c0.086,0.091,0.177,0.18,0.258,0.273c0.207,0.236,0.204,0.556-0.019,0.775c-0.46,0.451-0.927,0.898-1.394,1.336
		c-0.232,0.221-0.57,0.209-0.787-0.014c-0.209-0.22-0.206-0.559,0.016-0.79C15.404,10.621,15.542,10.468,15.672,10.325z"/>
	<path fill="#5B5B5B" d="M12.421,6.878c0-0.058,0-0.113,0-0.171c0-1.309,0-2.619,0.001-3.928c0-0.366,0.182-0.542,0.539-0.53
		c0.304,0.01,0.472,0.188,0.472,0.512c0,1.283,0,2.563,0,3.845c0,0.104,0,0.203,0,0.351c0.204-0.182,0.383-0.336,0.545-0.485
		c0.284-0.242,0.622-0.238,0.838,0.008c0.218,0.243,0.174,0.585-0.1,0.832c-0.481,0.434-0.966,0.865-1.451,1.297
		c-0.31,0.272-0.62,0.253-0.894-0.05c-0.41-0.461-0.82-0.921-1.228-1.38c-0.149-0.168-0.181-0.364-0.106-0.57
		C11.11,6.4,11.272,6.28,11.492,6.252c0.193-0.023,0.356,0.046,0.485,0.189c0.136,0.15,0.271,0.299,0.405,0.451
		C12.394,6.885,12.409,6.881,12.421,6.878z"/>
</g>
</svg>
