<?xml version="1.0" encoding="utf-8"?>
<!-- Generator: Adobe Illustrator 25.0.0, SVG Export Plug-In . SVG Version: 6.00 Build 0)  -->
<svg version="1.1" id="Layer_1" xmlns="http://www.w3.org/2000/svg" xmlns:xlink="http://www.w3.org/1999/xlink" x="0px" y="0px"
	 viewBox="0 0 16.5 16" style="enable-background:new 0 0 16.5 16;" xml:space="preserve">
<style type="text/css">
	.st0{fill:none;stroke:#5B5B5B;stroke-miterlimit:10;}
</style>
<g>
	<path class="st0" d="M12.2,1c-0.1-0.1-0.2-0.1-0.4-0.1c-0.1,0.1-0.2,0.2-0.2,0.3v1.9C9.8,3.2,8.9,4,8.8,4.1C7.9,4.9,7.2,6,7,7.2
		C6.9,7.8,6.9,8.4,7,9v0c0,0,0,0,0,0L7,9.4c0,0.1,0.1,0.3,0.3,0.3c0.1,0,0.3,0,0.4-0.2l0.2-0.4C8.5,8,9.4,7.3,10.3,6.9
		c0.4-0.2,0.9-0.2,1.3-0.2v1.9c0,0.1,0.1,0.3,0.2,0.3C12,9,12.1,9,12.2,8.9l3.6-3.7c0.1-0.1,0.1-0.4,0-0.5L12.2,1z"/>
	<path class="st0" d="M14.7,11.2c-0.2,0-0.3,0.2-0.3,0.4v1.5c0,0.6-0.5,1.1-1,1.1H2.3c-0.6,0-1-0.5-1-1.1V4.7c0-0.6,0.5-1.1,1-1.1
		h2.3c0.2,0,0.3-0.2,0.3-0.3C4.9,3.1,4.8,3,4.6,3H2.3C1.3,3,0.6,3.7,0.6,4.7v8.4c0,1,0.8,1.8,1.7,1.8h11.1c0.9,0,1.7-0.8,1.7-1.8
		v-1.5C15,11.4,14.9,11.2,14.7,11.2z"/>
</g>
</svg>
