<?xml version="1.0" encoding="utf-8"?>
<!-- Generator: Adobe Illustrator 16.0.0, SVG Export Plug-In . SVG Version: 6.00 Build 0)  -->
<!DOCTYPE svg PUBLIC "-//W3C//DTD SVG 1.1//EN" "http://www.w3.org/Graphics/SVG/1.1/DTD/svg11.dtd">
<svg version="1.1" id="Layer_1" xmlns="http://www.w3.org/2000/svg" xmlns:xlink="http://www.w3.org/1999/xlink" x="0px" y="0px"
	 width="16.5px" height="16px" viewBox="0 0 16.5 16" enable-background="new 0 0 16.5 16" xml:space="preserve">
<g>
	<path fill="#5B5B5B" stroke="#5B5B5B" stroke-miterlimit="10" d="M12.228,1.036c-0.098-0.1-0.238-0.132-0.366-0.074
		c-0.121,0.055-0.207,0.18-0.207,0.323v1.857C9.84,3.223,8.929,4,8.792,4.135C7.874,4.91,7.248,5.997,7.024,7.209
		C6.91,7.794,6.891,8.393,6.965,8.982v0.001c0,0.014,0.003,0.018,0.003,0.018l0.072,0.42c0.02,0.144,0.129,0.26,0.269,0.277
		c0.137,0.027,0.274-0.036,0.349-0.161l0.213-0.381c0.657-1.137,1.476-1.89,2.438-2.238c0.438-0.156,0.889-0.229,1.343-0.198v1.93
		c0,0.141,0.086,0.271,0.209,0.323c0.123,0.054,0.267,0.024,0.366-0.078l3.548-3.706c0.129-0.131,0.129-0.362,0-0.488L12.228,1.036z
		"/>
	<path fill="#5B5B5B" stroke="#5B5B5B" stroke-miterlimit="10" d="M14.644,11.212c-0.188,0-0.338,0.164-0.338,0.35v1.476
		c0,0.577-0.448,1.047-1.006,1.047H2.306c-0.555,0-1.007-0.47-1.007-1.047V4.721c0-0.578,0.453-1.046,1.007-1.046h2.322
		c0.186,0,0.335-0.159,0.335-0.343c0-0.198-0.152-0.343-0.335-0.343H2.306c-0.928,0-1.679,0.776-1.679,1.749v8.316
		c0,0.955,0.751,1.746,1.679,1.746H13.3c0.924,0,1.682-0.775,1.682-1.746v-1.481C14.975,11.368,14.825,11.212,14.644,11.212z"/>
</g>
</svg>
