<?xml version="1.0" encoding="utf-8"?>
<!-- Generator: Adobe Illustrator 16.0.0, SVG Export Plug-In . SVG Version: 6.00 Build 0)  -->
<!DOCTYPE svg PUBLIC "-//W3C//DTD SVG 1.1//EN" "http://www.w3.org/Graphics/SVG/1.1/DTD/svg11.dtd">
<svg version="1.1" id="Layer_1" xmlns="http://www.w3.org/2000/svg" xmlns:xlink="http://www.w3.org/1999/xlink" x="0px" y="0px"
	 width="16px" height="16px" viewBox="2.25 2.25 16 16" enable-background="new 2.25 2.25 16 16" xml:space="preserve">
<g>
	<g>
		<g>
			<path fill="#5C5C5C" stroke="#5C5C5C" stroke-width="0.25" stroke-miterlimit="10" d="M17.721,8.837h-1.912
				c-0.166,0-0.299,0.134-0.299,0.299v1.512c0,0.164,0.133,0.297,0.299,0.297s0.303-0.133,0.303-0.297V9.436h1.313v7.875h-0.658
				h-0.656V12.89c0-0.164-0.133-0.299-0.305-0.299c-0.164,0-0.295,0.135-0.295,0.299v4.421h-0.604v-6.193
				c0-0.166-0.135-0.299-0.301-0.299h-1.914c-0.162,0-0.299,0.133-0.299,0.299v6.193h-0.6v-4.097c0-0.169-0.133-0.302-0.299-0.302
				H9.58c-0.167,0-0.3,0.133-0.3,0.302v4.097h-0.6v-2.383c0-0.162-0.135-0.301-0.3-0.301H6.462c-0.163,0-0.297,0.137-0.297,0.301
				v2.383H3.59c-0.163,0-0.299-0.133-0.299-0.302V3.489c0-0.165,0.136-0.3,0.299-0.3h7.718v1.975c0,0.495,0.402,0.897,0.902,0.897
				h1.971V9.74c0,0.166,0.135,0.301,0.299,0.301c0.17,0,0.303-0.135,0.303-0.301V5.764c0-0.081-0.031-0.155-0.088-0.212
				l-2.873-2.871c-0.061-0.057-0.133-0.088-0.211-0.088H3.595c-0.497,0-0.896,0.403-0.896,0.898v13.519
				c0,0.498,0.4,0.899,0.896,0.899h14.122c0.162,0,0.297-0.135,0.297-0.299V9.136C18.025,8.97,17.889,8.837,17.721,8.837z
				 M11.92,3.613l1.852,1.85h-1.553c-0.164,0-0.303-0.135-0.303-0.301V3.613H11.92z M8.09,17.311H6.776v-2.083H8.09V17.311z
				 M11.201,17.311H9.887v-3.8h1.314V17.311z M14.313,17.311H13v-5.894h1.313V17.311z"/>
		</g>
	</g>
	<g>
		<g>
			<path fill="#5C5C5C" stroke="#5C5C5C" stroke-width="0.25" stroke-miterlimit="10" d="M7.062,4.229
				c-0.164,0-0.297,0.136-0.297,0.301v0.538C5.383,5.217,4.308,6.384,4.308,7.803c0,1.518,1.235,2.751,2.751,2.751
				c1.417,0,2.586-1.076,2.734-2.455h0.542c0.164,0,0.299-0.133,0.299-0.299C10.634,5.832,9.033,4.229,7.062,4.229z M7.062,9.955
				c-1.188,0-2.154-0.965-2.154-2.153c0-1.086,0.809-1.986,1.857-2.135v2.135c0,0.165,0.135,0.3,0.297,0.3h2.136
				C9.046,9.148,8.145,9.955,7.062,9.955z M7.36,7.502L7.36,7.502v-2.66c1.404,0.142,2.521,1.26,2.658,2.66H7.36z"/>
		</g>
	</g>
	<g>
		<g>
			<path fill="#5C5C5C" stroke="#5C5C5C" stroke-width="0.25" stroke-miterlimit="10" d="M10.335,11.393H4.622
				c-0.165,0-0.303,0.135-0.303,0.303c0,0.164,0.138,0.299,0.303,0.299h5.713c0.166,0,0.302-0.135,0.302-0.299
				C10.635,11.527,10.5,11.393,10.335,11.393z"/>
		</g>
	</g>
	<g>
		<g>
			<path fill="#5C5C5C" stroke="#5C5C5C" stroke-width="0.25" stroke-miterlimit="10" d="M6.537,12.838H4.623
				c-0.167,0-0.303,0.135-0.303,0.301s0.136,0.297,0.303,0.297h1.914c0.165,0,0.299-0.131,0.299-0.297S6.699,12.838,6.537,12.838z"
				/>
		</g>
	</g>
	<g>
		<g>
			<path fill="#5C5C5C" stroke="#5C5C5C" stroke-width="0.25" stroke-miterlimit="10" d="M8.246,12.926
				c-0.058-0.059-0.135-0.088-0.213-0.088c-0.078,0-0.156,0.029-0.21,0.088c-0.057,0.056-0.088,0.135-0.088,0.211
				c0,0.079,0.032,0.157,0.088,0.21c0.054,0.056,0.132,0.089,0.21,0.089c0.078,0,0.156-0.033,0.213-0.089
				c0.057-0.053,0.088-0.131,0.088-0.21C8.334,13.061,8.303,12.979,8.246,12.926z"/>
		</g>
	</g>
</g>
</svg>
