<?xml version="1.0" encoding="utf-8"?>
<!-- Generator: Adobe Illustrator 16.0.0, SVG Export Plug-In . SVG Version: 6.00 Build 0)  -->
<!DOCTYPE svg PUBLIC "-//W3C//DTD SVG 1.1//EN" "http://www.w3.org/Graphics/SVG/1.1/DTD/svg11.dtd">
<svg version="1.1" id="Layer_1" xmlns="http://www.w3.org/2000/svg" xmlns:xlink="http://www.w3.org/1999/xlink" x="0px" y="0px"
	 width="16px" height="16px" viewBox="2.25 2.25 16 16" enable-background="new 2.25 2.25 16 16" xml:space="preserve">
<g>
	<g>
		<path fill="#5C5C5D" stroke="#5C5C5D" stroke-width="0.25" stroke-miterlimit="10" d="M6.991,8.053h2.558
			c0,1.501-1.146,2.715-2.558,2.715c-1.409,0-2.557-1.214-2.557-2.715c0-1.5,1.143-2.716,2.557-2.716V8.053L6.991,8.053z"/>
		<path fill="#5C5C5D" stroke="#5C5C5D" stroke-width="0.25" stroke-miterlimit="10" d="M7.516,3.811v3.623h3.409
			C10.925,5.434,9.401,3.811,7.516,3.811z"/>
		<path fill="#5C5C5D" stroke="#5C5C5D" stroke-width="0.25" stroke-miterlimit="10" d="M11.909,5.291V3.572l1.93,2.05h-1.617
			C12.049,5.623,11.909,5.474,11.909,5.291z"/>
	</g>
	
		<rect x="16.39" y="8.954" fill="#5C5C5D" stroke="#5C5C5D" stroke-width="0.25" stroke-miterlimit="10" width="1.119" height="8.36"/>
	
		<rect x="13.048" y="11.122" fill="#5C5C5D" stroke="#5C5C5D" stroke-width="0.25" stroke-miterlimit="10" width="1.221" height="6.293"/>
	
		<rect x="9.904" y="13.44" fill="#5C5C5D" stroke="#5C5C5D" stroke-width="0.25" stroke-miterlimit="10" width="1.1" height="3.975"/>
	
		<rect x="6.576" y="15.296" fill="#5C5C5D" stroke="#5C5C5D" stroke-width="0.25" stroke-miterlimit="10" width="1.225" height="2.119"/>
	<g>
		<g>
			<g>
				<g>
					<g>
						<path fill="#5C5C5D" stroke="#5C5C5D" stroke-width="0.25" stroke-miterlimit="10" d="M17.924,8.81h-1.995
							c-0.172,0-0.313,0.14-0.313,0.312v1.58c0,0.171,0.142,0.313,0.313,0.313c0.174,0,0.313-0.142,0.313-0.313V9.434h1.372v8.224
							h-0.687H16.24v-4.612c0-0.174-0.14-0.314-0.313-0.314c-0.176,0-0.314,0.141-0.314,0.314v4.612h-0.622v-6.467
							c0-0.172-0.144-0.312-0.314-0.312h-1.995c-0.17,0-0.312,0.14-0.312,0.312v6.467h-0.623v-4.276c0-0.175-0.14-0.313-0.314-0.313
							H9.438c-0.173,0-0.312,0.138-0.312,0.313v4.276H8.503v-2.484c0-0.176-0.14-0.313-0.314-0.313H6.194
							c-0.172,0-0.312,0.138-0.312,0.313v2.484H3.2c-0.171,0-0.311-0.137-0.311-0.312V3.226c0-0.174,0.139-0.314,0.311-0.314h8.045
							v2.063c0,0.516,0.419,0.938,0.936,0.938h2.057v3.842c0,0.174,0.142,0.312,0.313,0.312c0.176,0,0.313-0.138,0.313-0.312V5.601
							c0-0.083-0.033-0.161-0.091-0.22l-2.993-3c-0.062-0.06-0.139-0.093-0.222-0.093H3.204c-0.516,0-0.935,0.421-0.935,0.938v14.12
							c0,0.517,0.419,0.941,0.935,0.941h14.713c0.173,0,0.313-0.143,0.313-0.314V9.122C18.238,8.947,18.098,8.81,17.924,8.81z
							 M11.876,3.356l1.93,1.932h-1.618c-0.172,0-0.312-0.14-0.312-0.313V3.356z M7.888,17.658H6.516v-2.176h1.372V17.658z
							 M11.131,17.658H9.758V13.69h1.373V17.658z M14.373,17.658h-1.374v-6.155h1.374V17.658z"/>
					</g>
				</g>
				<g>
					<g>
						<path fill="#5C5C5D" stroke="#5C5C5D" stroke-width="0.25" stroke-miterlimit="10" d="M10.223,11.483H4.27
							c-0.172,0-0.313,0.139-0.313,0.313c0,0.173,0.143,0.313,0.313,0.313h5.954c0.174,0,0.314-0.14,0.314-0.313
							C10.537,11.622,10.397,11.483,10.223,11.483z"/>
					</g>
				</g>
				<g>
					<g>
						<path fill="#5C5C5D" stroke="#5C5C5D" stroke-width="0.25" stroke-miterlimit="10" d="M6.267,12.989H4.271
							c-0.175,0-0.313,0.142-0.313,0.314s0.14,0.313,0.313,0.313h1.995c0.17,0,0.311-0.14,0.311-0.313S6.437,12.989,6.267,12.989z"
							/>
					</g>
				</g>
				<g>
					<g>
						<path fill="#5C5C5D" stroke="#5C5C5D" stroke-width="0.25" stroke-miterlimit="10" d="M8.047,13.081
							c-0.059-0.061-0.139-0.093-0.221-0.093s-0.161,0.032-0.219,0.093c-0.059,0.058-0.092,0.139-0.092,0.221
							c0,0.081,0.033,0.162,0.092,0.221s0.138,0.092,0.219,0.092c0.083,0,0.162-0.033,0.221-0.092
							c0.058-0.059,0.091-0.141,0.091-0.221C8.138,13.22,8.105,13.137,8.047,13.081z"/>
					</g>
				</g>
			</g>
		</g>
	</g>
</g>
</svg>
