<?xml version="1.0" encoding="utf-8"?>
<!-- Generator: Adobe Illustrator 16.0.0, SVG Export Plug-In . SVG Version: 6.00 Build 0)  -->
<!DOCTYPE svg PUBLIC "-//W3C//DTD SVG 1.1//EN" "http://www.w3.org/Graphics/SVG/1.1/DTD/svg11.dtd">
<svg version="1.1" id="Layer_1" xmlns="http://www.w3.org/2000/svg" xmlns:xlink="http://www.w3.org/1999/xlink" x="0px" y="0px"
	 width="16.5px" height="16px" viewBox="0 0 16.5 16" enable-background="new 0 0 16.5 16" xml:space="preserve">
<g>
	<rect x="9.232" y="1.68" fill="#5B5B5B" width="1.959" height="3.265"/>
	<path fill="#5B5B5B" d="M13.283,0.046H0.411v16H16.09V2.85L13.283,0.046z M3.679,0.699h8.479v5.225H3.679V0.699z M13.15,15.393
		H3.026V8.538H13.15V15.393z"/>
	<path fill="#5B5B5B" d="M4.657,10.495h2.285c0.184,0,0.326-0.146,0.326-0.327c0-0.188-0.146-0.326-0.326-0.326H4.657
		c-0.182,0-0.324,0.146-0.324,0.326C4.331,10.349,4.476,10.495,4.657,10.495z"/>
	<path fill="#5B5B5B" d="M4.657,11.801h3.27c0.189,0,0.324-0.146,0.324-0.317c0-0.188-0.145-0.327-0.324-0.327h-3.27
		c-0.182,0-0.324,0.146-0.324,0.327C4.333,11.656,4.476,11.801,4.657,11.801z"/>
	<path fill="#5B5B5B" d="M8.904,11.801c0.09,0,0.17-0.027,0.229-0.095c0.064-0.063,0.105-0.146,0.105-0.229s-0.037-0.17-0.105-0.229
		c-0.104-0.12-0.342-0.12-0.462,0c-0.063,0.063-0.1,0.146-0.1,0.229s0.035,0.17,0.096,0.229C8.733,11.765,8.816,11.801,8.904,11.801
		z"/>
</g>
</svg>
