<?xml version="1.0" encoding="utf-8"?>
<!-- Generator: Adobe Illustrator 16.0.0, SVG Export Plug-In . SVG Version: 6.00 Build 0)  -->
<!DOCTYPE svg PUBLIC "-//W3C//DTD SVG 1.1//EN" "http://www.w3.org/Graphics/SVG/1.1/DTD/svg11.dtd">
<svg version="1.1" id="Layer_1" xmlns="http://www.w3.org/2000/svg" xmlns:xlink="http://www.w3.org/1999/xlink" x="0px" y="0px"
	 width="16.5px" height="16px" viewBox="0 0 16.5 16" enable-background="new 0 0 16.5 16" xml:space="preserve">
<g>
	<path fill="#5B5B5B" stroke="#5B5B5B" stroke-width="0.5" stroke-miterlimit="10" d="M13.041,0.333h-0.757H3.521H0.704v15.336
		h2.192h10.329h2.495V3.021L13.041,0.333z M11.662,0.961v4.373H4.148V0.961H11.662z M3.521,15.044V9.097h9.078v5.947H3.521z
		 M15.102,15.044h-1.877V8.472H2.897v6.57H1.333V0.961h2.188v5.007h8.765V0.961h0.5l2.321,2.32L15.102,15.044L15.102,15.044z"/>
	<path fill="#5B5B5B" stroke="#5B5B5B" stroke-width="0.5" stroke-miterlimit="10" d="M4.773,10.662h2.19
		c0.172,0,0.313-0.141,0.313-0.306c0-0.18-0.141-0.313-0.313-0.313h-2.19c-0.174,0-0.314,0.14-0.314,0.313
		C4.459,10.522,4.599,10.662,4.773,10.662z"/>
	<path fill="#5B5B5B" stroke="#5B5B5B" stroke-width="0.5" stroke-miterlimit="10" d="M7.903,11.288h-3.13
		c-0.176,0-0.314,0.14-0.314,0.305c0,0.18,0.14,0.313,0.314,0.313h3.13c0.182,0,0.313-0.14,0.313-0.313
		C8.216,11.427,8.077,11.288,7.903,11.288z"/>
	<path fill="#5B5B5B" stroke="#5B5B5B" stroke-width="0.5" stroke-miterlimit="10" d="M8.621,11.38
		c-0.058,0.06-0.092,0.139-0.092,0.218c0,0.082,0.034,0.163,0.092,0.221c0.062,0.061,0.141,0.098,0.221,0.098
		s0.163-0.035,0.219-0.098c0.063-0.061,0.101-0.141,0.101-0.221c0-0.079-0.033-0.162-0.101-0.218
		C8.95,11.264,8.735,11.264,8.621,11.38z"/>
	<path fill="#5B5B5B" stroke="#5B5B5B" stroke-width="0.5" stroke-miterlimit="10" d="M11.034,1.585H9.155V4.72h1.879V1.585z
		 M10.407,4.089H9.785V2.212h0.622V4.089z"/>
</g>
</svg>
