<?xml version="1.0" encoding="utf-8"?>
<!-- Generator: Adobe Illustrator 16.0.0, SVG Export Plug-In . SVG Version: 6.00 Build 0)  -->
<!DOCTYPE svg PUBLIC "-//W3C//DTD SVG 1.1//EN" "http://www.w3.org/Graphics/SVG/1.1/DTD/svg11.dtd">
<svg version="1.1" id="Layer_1" xmlns="http://www.w3.org/2000/svg" xmlns:xlink="http://www.w3.org/1999/xlink" x="0px" y="0px"
	 width="16px" height="16px" viewBox="2.25 2.25 16 16" enable-background="new 2.25 2.25 16 16" xml:space="preserve">
<g>
	<path fill="#5B5B5B" d="M10.264,7.587c-1.455,0-2.637,1.199-2.637,2.667c0,1.477,1.183,2.665,2.637,2.665
		c1.453,0,2.637-1.187,2.637-2.665C12.9,8.786,11.712,7.587,10.264,7.587z"/>
	<path fill="#5B5B5B" d="M17.351,8.478h-0.596c-0.145-0.563-0.371-1.104-0.659-1.617l0.415-0.422
		c0.155-0.147,0.239-0.354,0.239-0.583c0-0.229-0.083-0.429-0.239-0.583l-1.339-1.354c-0.311-0.313-0.846-0.313-1.15,0l-0.426,0.422
		c-0.507-0.292-1.041-0.517-1.591-0.667v-0.6c0-0.453-0.364-0.823-0.813-0.823H9.315C8.865,2.25,8.5,2.622,8.5,3.074v0.6
		C7.943,3.825,7.409,4.05,6.912,4.341L6.483,3.918c-0.309-0.313-0.845-0.313-1.154,0L3.991,5.272
		C3.847,5.42,3.762,5.627,3.762,5.856c0,0.228,0.083,0.434,0.229,0.583l0.426,0.422C4.129,7.379,3.903,7.92,3.758,8.478H3.163
		c-0.451,0-0.813,0.369-0.813,0.813v1.918c0,0.453,0.364,0.823,0.813,0.823h0.596c0.145,0.561,0.372,1.103,0.659,1.607l-0.426,0.424
		c-0.144,0.146-0.229,0.354-0.229,0.581c0,0.227,0.083,0.437,0.229,0.583l1.338,1.354c0.311,0.313,0.844,0.313,1.153,0l0.43-0.421
		c0.501,0.293,1.036,0.518,1.587,0.669v0.597c0,0.454,0.366,0.823,0.816,0.823h1.875c0.45,0,0.81-0.369,0.81-0.823V16.83
		c0.555-0.15,1.091-0.376,1.592-0.671l0.42,0.423c0.311,0.313,0.845,0.313,1.151,0l1.339-1.354c0.146-0.146,0.231-0.354,0.231-0.583
		c0-0.227-0.083-0.436-0.231-0.583l-0.417-0.421c0.289-0.518,0.514-1.061,0.662-1.619h0.596c0.445,0,0.805-0.358,0.805-0.813V9.3
		C18.174,8.848,17.805,8.478,17.351,8.478z M13.771,10.255c0,1.961-1.574,3.563-3.512,3.563c-1.939,0-3.516-1.602-3.516-3.563
		s1.579-3.556,3.519-3.556C12.201,6.7,13.771,8.295,13.771,10.255z"/>
</g>
</svg>
