<?xml version="1.0" encoding="utf-8"?>
<!-- Generator: Adobe Illustrator 16.0.0, SVG Export Plug-In . SVG Version: 6.00 Build 0)  -->
<!DOCTYPE svg PUBLIC "-//W3C//DTD SVG 1.1//EN" "http://www.w3.org/Graphics/SVG/1.1/DTD/svg11.dtd">
<svg version="1.1" id="Layer_1" xmlns="http://www.w3.org/2000/svg" xmlns:xlink="http://www.w3.org/1999/xlink" x="0px" y="0px"
	 width="16px" height="16px" viewBox="2.25 2.25 16 16" enable-background="new 2.25 2.25 16 16" xml:space="preserve">
<path fill="#5B5B5B" stroke="#5B5B5B" stroke-width="0.5" stroke-miterlimit="10" d="M17.627,10.245
	c0-4.244-3.308-7.695-7.377-7.695c-4.062,0-7.377,3.452-7.377,7.695c0,2.241,0.926,4.271,2.401,5.673l-0.009,0.014l0.237,0.21
	c0.019,0.02,0.034,0.02,0.049,0.041c0.135,0.103,0.258,0.219,0.404,0.313c0.058,0.025,0.095,0.059,0.135,0.099
	c0.135,0.102,0.288,0.201,0.443,0.296c0.031,0.021,0.06,0.042,0.097,0.06c0.168,0.102,0.324,0.184,0.51,0.267
	c0.017,0.013,0.019,0.02,0.037,0.02c0.557,0.271,1.159,0.468,1.786,0.586c0.02,0.006,0.024,0.009,0.05,0.012
	c0.195,0.037,0.395,0.062,0.594,0.081c0.02,0.004,0.059,0.004,0.069,0.008c0.205,0.021,0.403,0.027,0.597,0.027
	c0.201,0,0.403-0.018,0.595-0.027c0.019-0.002,0.058-0.004,0.078-0.007c0.201-0.018,0.392-0.048,0.588-0.08
	c0.02-0.004,0.029-0.006,0.057-0.012c0.621-0.114,1.211-0.31,1.762-0.58c0.018-0.012,0.042-0.021,0.056-0.021
	c0.172-0.08,0.326-0.172,0.48-0.261c0.04-0.02,0.075-0.048,0.121-0.067c0.133-0.093,0.288-0.181,0.424-0.278
	c0.057-0.026,0.094-0.063,0.138-0.1c0.121-0.091,0.236-0.181,0.347-0.273c0.02-0.021,0.058-0.042,0.079-0.062l0.251-0.217
	l-0.009-0.009C16.7,14.529,17.627,12.5,17.627,10.245z M3.409,10.245c0-3.935,3.071-7.135,6.841-7.135
	c3.775,0,6.838,3.202,6.838,7.135c0,2.122-0.893,4.029-2.303,5.337c-0.079-0.058-0.158-0.099-0.241-0.144l-2.271-1.183
	c-0.209-0.1-0.324-0.319-0.324-0.558v-0.822c0.052-0.063,0.098-0.142,0.165-0.225c0.287-0.427,0.53-0.908,0.707-1.429
	c0.335-0.174,0.561-0.521,0.561-0.919V9.307c0-0.246-0.088-0.477-0.239-0.662V7.339c0.015-0.14,0.058-0.968-0.514-1.638
	c-0.487-0.589-1.291-0.892-2.372-0.892c-1.092,0-1.894,0.302-2.38,0.892C7.307,6.373,7.355,7.198,7.36,7.338v1.303
	c-0.15,0.185-0.236,0.421-0.236,0.662v0.99c0,0.302,0.133,0.595,0.364,0.783c0.212,0.893,0.663,1.562,0.825,1.784v0.819
	c0,0.219-0.125,0.431-0.314,0.541l-2.123,1.204c-0.068,0.042-0.134,0.082-0.208,0.142C4.291,14.246,3.409,12.353,3.409,10.245z"/>
</svg>
