<?xml version="1.0" encoding="utf-8"?>
<!-- Generator: Adobe Illustrator 16.0.0, SVG Export Plug-In . SVG Version: 6.00 Build 0)  -->
<!DOCTYPE svg PUBLIC "-//W3C//DTD SVG 1.1//EN" "http://www.w3.org/Graphics/SVG/1.1/DTD/svg11.dtd">
<svg version="1.1" id="Layer_1" xmlns="http://www.w3.org/2000/svg" xmlns:xlink="http://www.w3.org/1999/xlink" x="0px" y="0px"
	 width="16px" height="16px" viewBox="2.25 2.25 16 16" enable-background="new 2.25 2.25 16 16" xml:space="preserve">
<path fill="#5B5B5B" stroke="#5B5B5B" stroke-width="0.5" stroke-miterlimit="10" d="M18.151,10.247
	c0-4.411-3.546-7.997-7.901-7.997c-4.352,0-7.9,3.585-7.9,7.997c0,2.328,0.988,4.435,2.57,5.892l-0.009,0.01l0.255,0.224
	c0.021,0.021,0.036,0.021,0.059,0.04c0.145,0.107,0.271,0.229,0.432,0.318C5.716,16.765,5.76,16.8,5.8,16.835
	c0.149,0.104,0.309,0.216,0.473,0.313c0.03,0.019,0.065,0.041,0.104,0.061c0.178,0.104,0.348,0.19,0.544,0.285
	c0.018,0.008,0.018,0.018,0.039,0.021c0.599,0.275,1.243,0.479,1.916,0.604c0.02,0.003,0.029,0.011,0.054,0.017
	c0.208,0.037,0.425,0.063,0.637,0.084c0.022,0.003,0.063,0.003,0.072,0.01c0.219,0.021,0.432,0.021,0.64,0.021
	c0.218,0,0.432-0.014,0.636-0.021c0.021-0.003,0.063-0.007,0.085-0.008c0.211-0.021,0.418-0.058,0.63-0.083
	c0.021-0.004,0.031-0.009,0.054-0.02c0.662-0.116,1.297-0.313,1.884-0.602c0.023-0.011,0.048-0.021,0.063-0.023
	c0.181-0.082,0.353-0.185,0.516-0.271c0.043-0.021,0.081-0.05,0.128-0.075c0.142-0.093,0.31-0.188,0.454-0.29
	c0.061-0.028,0.103-0.065,0.154-0.104c0.125-0.098,0.251-0.188,0.372-0.287c0.021-0.021,0.061-0.04,0.08-0.062l0.271-0.223
	l-0.015-0.008C17.161,14.696,18.151,12.588,18.151,10.247z M2.924,10.247c0-4.088,3.287-7.415,7.326-7.415
	c4.045,0,7.327,3.327,7.327,7.415c0,2.202-0.958,4.184-2.472,5.542c-0.08-0.063-0.166-0.104-0.253-0.147l-2.436-1.229
	c-0.225-0.104-0.35-0.332-0.35-0.58v-0.859c0.056-0.07,0.104-0.146,0.179-0.236c0.309-0.443,0.564-0.945,0.757-1.482
	c0.355-0.184,0.597-0.544,0.597-0.952V9.257c0-0.253-0.092-0.491-0.256-0.689V7.206c0.017-0.145,0.061-1.001-0.554-1.704
	c-0.517-0.604-1.381-0.922-2.547-0.922c-1.162,0-2.018,0.312-2.538,0.921C7.094,6.203,7.146,7.062,7.148,7.207v1.354
	c-0.16,0.187-0.257,0.437-0.257,0.687v1.03c0,0.313,0.144,0.611,0.391,0.814c0.225,0.919,0.712,1.611,0.883,1.852v0.843
	c0,0.24-0.14,0.456-0.347,0.571l-2.271,1.251c-0.072,0.043-0.144,0.086-0.225,0.14C3.865,14.402,2.924,12.434,2.924,10.247z
	 M14.548,16.248c-0.101,0.071-0.198,0.146-0.308,0.213c-0.048,0.03-0.098,0.062-0.144,0.102c-0.136,0.084-0.271,0.167-0.414,0.242
	c-0.024,0.021-0.062,0.022-0.092,0.049c-0.324,0.168-0.66,0.314-1.007,0.438c-0.022,0.008-0.022,0.018-0.037,0.021
	c-0.183,0.062-0.354,0.106-0.555,0.156H11.99c-0.186,0.048-0.376,0.083-0.554,0.11c-0.006,0-0.023,0.002-0.023,0.002
	c-0.185,0.021-0.348,0.056-0.536,0.065c-0.032,0.001-0.063,0.001-0.103,0.006c-0.186,0.021-0.35,0.021-0.551,0.021
	c-0.185,0-0.354-0.02-0.545-0.024c-0.02,0-0.063-0.002-0.103-0.006c-0.187-0.021-0.355-0.037-0.546-0.063
	c-0.018,0-0.021-0.002-0.021-0.005C8.625,17.515,8.248,17.42,7.89,17.3c-0.018-0.009-0.021-0.011-0.03-0.021
	c-0.185-0.063-0.349-0.133-0.534-0.209c-0.004,0-0.007-0.002-0.009-0.002c-0.168-0.063-0.327-0.146-0.487-0.228
	c-0.021-0.022-0.045-0.022-0.061-0.03c-0.144-0.08-0.291-0.164-0.432-0.254c-0.042-0.027-0.085-0.061-0.128-0.082
	c-0.131-0.084-0.263-0.186-0.39-0.27c-0.021-0.011-0.021-0.021-0.039-0.021c0.018-0.006,0.021-0.019,0.021-0.019l2.281-1.254
	c0.39-0.217,0.637-0.629,0.637-1.082v-1.05l-0.06-0.081c-0.012-0.006-0.638-0.772-0.863-1.81v-0.141l-0.104-0.064
	c-0.144-0.089-0.227-0.233-0.227-0.395V9.25c0-0.135,0.063-0.261,0.159-0.355L7.729,8.81V7.19V7.15
	C7.714,7.143,7.632,6.451,8.118,5.88c0.414-0.479,1.132-0.722,2.118-0.722c0.984,0,1.704,0.241,2.119,0.717
	c0.474,0.561,0.396,1.27,0.393,1.274v1.648l0.103,0.087c0.101,0.102,0.155,0.231,0.155,0.355v1.037c0,0.207-0.143,0.396-0.35,0.455
	l-0.144,0.047l-0.037,0.147c-0.173,0.524-0.416,1.02-0.721,1.463c-0.064,0.104-0.143,0.201-0.218,0.271l-0.06,0.083v1.075
	c0,0.467,0.268,0.89,0.675,1.1l2.435,1.231c0.021,0.008,0.032,0.017,0.06,0.019C14.611,16.203,14.583,16.223,14.548,16.248z"/>
</svg>
