<?xml version="1.0" encoding="utf-8"?>
<!-- Generator: Adobe Illustrator 16.0.0, SVG Export Plug-In . SVG Version: 6.00 Build 0)  -->
<!DOCTYPE svg PUBLIC "-//W3C//DTD SVG 1.1//EN" "http://www.w3.org/Graphics/SVG/1.1/DTD/svg11.dtd">
<svg version="1.1" id="Layer_1" xmlns="http://www.w3.org/2000/svg" xmlns:xlink="http://www.w3.org/1999/xlink" x="0px" y="0px"
	 width="16px" height="16px" viewBox="2.25 2.25 16 16" enable-background="new 2.25 2.25 16 16" xml:space="preserve">
<g id="surface1_2_">
	<path fill="none" stroke="#5B5B5B" stroke-width="0.75" stroke-miterlimit="10" d="M6.971,13.458
		c-0.073,0.184-0.117,0.385-0.117,0.594c0,0.212,0.044,0.409,0.117,0.593h7.515c0.074-0.183,0.114-0.381,0.114-0.593
		c0-0.209-0.04-0.409-0.114-0.594H6.971z"/>
	<path fill="none" stroke="#5B5B5B" stroke-width="0.75" stroke-miterlimit="10" d="M10.73,2.587c-3.062,0-5.545,2.479-5.545,5.533
		c0,1.754,0.827,3.393,2.231,4.436v0.053h1.677v-2.046L8.34,9.814c-0.202-0.202-0.202-0.532,0-0.732
		c0.208-0.203,0.533-0.203,0.739,0L9.978,9.98c0.1,0.097,0.157,0.229,0.157,0.37v2.262h1.192V10.35c0-0.14,0.052-0.272,0.148-0.37
		l0.906-0.899c0.194-0.203,0.536-0.203,0.73,0c0.203,0.201,0.203,0.531,0,0.732l-0.745,0.749v2.046h1.671v-0.053
		c1.405-1.044,2.233-2.682,2.233-4.436C16.271,5.067,13.783,2.587,10.73,2.587z"/>
	<path fill="none" stroke="#5B5B5B" stroke-width="0.75" stroke-miterlimit="10" d="M10.73,17.913c1.34,0,2.458-0.96,2.704-2.228
		h-5.41C8.27,16.953,9.388,17.913,10.73,17.913z"/>
</g>
</svg>
