<?xml version="1.0" encoding="utf-8"?>
<!-- Generator: Adobe Illustrator 16.0.0, SVG Export Plug-In . SVG Version: 6.00 Build 0)  -->
<!DOCTYPE svg PUBLIC "-//W3C//DTD SVG 1.1//EN" "http://www.w3.org/Graphics/SVG/1.1/DTD/svg11.dtd">
<svg version="1.1" id="Layer_1" xmlns="http://www.w3.org/2000/svg" xmlns:xlink="http://www.w3.org/1999/xlink" x="0px" y="0px"
	 width="16px" height="16px" viewBox="2.25 2.25 16 16" enable-background="new 2.25 2.25 16 16" xml:space="preserve">
<g id="surface1_1_">
	<path fill="#5B5B5B" d="M6.337,13.599C6.262,13.79,6.22,14,6.22,14.219c0,0.217,0.042,0.427,0.117,0.619h7.83
		c0.076-0.192,0.117-0.402,0.117-0.619c0-0.219-0.041-0.429-0.117-0.62H6.337z"/>
	<path fill="#5B5B5B" d="M10.25,2.25c-3.184,0-5.772,2.589-5.772,5.773c0,1.833,0.862,3.542,2.324,4.633v0.055h1.744v-2.135
		L7.763,9.795c-0.209-0.211-0.209-0.554,0-0.768c0.216-0.212,0.557-0.212,0.768,0l0.94,0.938c0.1,0.103,0.16,0.24,0.16,0.386v2.361
		h1.239v-2.361c0-0.146,0.059-0.281,0.16-0.386l0.945-0.938c0.201-0.212,0.555-0.212,0.758,0c0.211,0.214,0.211,0.557,0,0.768
		l-0.779,0.781v2.135h1.742v-0.055c1.463-1.091,2.326-2.799,2.326-4.633C16.022,4.839,13.433,2.25,10.25,2.25z"/>
	<path fill="#5B5B5B" d="M10.25,18.25c1.397,0,2.559-1.005,2.817-2.326H7.435C7.69,17.245,8.854,18.25,10.25,18.25z"/>
</g>
</svg>
