<?xml version="1.0" encoding="utf-8"?>
<!-- Generator: Adobe Illustrator 25.0.0, SVG Export Plug-In . SVG Version: 6.00 Build 0)  -->
<svg version="1.1" id="Layer_1" xmlns="http://www.w3.org/2000/svg" xmlns:xlink="http://www.w3.org/1999/xlink" x="0px" y="0px"
	 viewBox="0 0 64 64" style="enable-background:new 0 0 64 64;" xml:space="preserve">
<style type="text/css">
	.st0{fill:#1D1D1B;}
</style>
<path class="st0" d="M62.3,51.2c0,2.8-2.3,5-5,5H6.8c-2.8,0-5-2.3-5-5V12.8c0-2.8,2.3-5,5-5h50.5c2.8,0,5,2.3,5,5V51.2z M6.8,11.8
	c-0.5,0-1,0.5-1,1v38.4c0,0.5,0.5,1,1,1h50.5c0.5,0,1-0.5,1-1V12.8c0-0.5-0.5-1-1-1C57.2,11.8,6.8,11.8,6.8,11.8z M15.8,28
	c-3.3,0-6.1-2.7-6.1-6.1s2.7-6.1,6.1-6.1c3.3,0,6.1,2.7,6.1,6.1S19.2,28,15.8,28z M54.2,48.2H9.8v-6.1L19.9,32l5,5l16.2-16.2
	L54.2,34V48.2z"/>
</svg>
