<?xml version="1.0" encoding="utf-8"?>
<!-- Generator: Adobe Illustrator 16.0.0, SVG Export Plug-In . SVG Version: 6.00 Build 0)  -->
<!DOCTYPE svg PUBLIC "-//W3C//DTD SVG 1.1//EN" "http://www.w3.org/Graphics/SVG/1.1/DTD/svg11.dtd">
<svg version="1.1" id="Capa_1" xmlns="http://www.w3.org/2000/svg" xmlns:xlink="http://www.w3.org/1999/xlink" x="0px" y="0px"
	 width="8.268px" height="12px" viewBox="0 0 8.268 12" enable-background="new 0 0 8.268 12" xml:space="preserve">
<g>
	<path id="Facebook_Places" fill="#8E8E8E" d="M8.072,2.986c-0.043-0.16-0.13-0.331-0.194-0.48C7.11,0.661,5.433,0,4.078,0
		C2.265,0,0.267,1.216,0,3.722v0.512c0,0.021,0.008,0.213,0.019,0.311C0.168,5.738,1.11,7.008,1.814,8.201
		C2.571,9.482,3.357,10.74,4.136,12c0.479-0.82,0.958-1.652,1.427-2.453C5.691,9.313,5.84,9.076,5.968,8.854
		C6.053,8.705,6.217,8.555,6.29,8.416c0.758-1.387,1.978-2.784,1.978-4.161V3.691C8.267,3.542,8.081,3.019,8.072,2.986z
		 M4.111,5.557c-0.533,0-1.117-0.267-1.405-1.003c-0.043-0.116-0.04-0.352-0.04-0.373V3.85c0-0.938,0.798-1.365,1.49-1.365
		c0.854,0,1.514,0.683,1.514,1.536S4.965,5.557,4.111,5.557z"/>
</g>
</svg>
