<?xml version="1.0" encoding="utf-8"?>
<!-- Generator: Adobe Illustrator 16.0.0, SVG Export Plug-In . SVG Version: 6.00 Build 0)  -->
<!DOCTYPE svg PUBLIC "-//W3C//DTD SVG 1.1//EN" "http://www.w3.org/Graphics/SVG/1.1/DTD/svg11.dtd">
<svg version="1.1" id="Layer_1" xmlns="http://www.w3.org/2000/svg" xmlns:xlink="http://www.w3.org/1999/xlink" x="0px" y="0px"
	 width="12px" height="12.046px" viewBox="0 0 12 12.046" enable-background="new 0 0 12 12.046" xml:space="preserve">
<g>
	<path fill-rule="evenodd" clip-rule="evenodd" fill="#040404" d="M5.999,6.508c-0.785,0-1.57,0.001-2.355,0
		C3.328,6.507,3.021,6.538,3.007,6.052C2.995,5.608,3.21,5.526,3.578,5.528C5.227,5.535,6.875,5.533,8.524,5.53
		c0.313,0,0.503,0.079,0.519,0.457c0.019,0.444-0.202,0.529-0.57,0.525C7.648,6.502,6.823,6.508,5.999,6.508z"/>
	<path fill-rule="evenodd" clip-rule="evenodd" fill="#010101" d="M4.977,9.025c-0.469,0-0.938-0.009-1.407,0.003
		c-0.4,0.011-0.564-0.173-0.55-0.565c0.013-0.354,0.202-0.47,0.527-0.469C4.523,7.999,5.501,8.007,6.479,7.99
		c0.418-0.007,0.542,0.179,0.53,0.567c-0.01,0.355-0.174,0.478-0.508,0.47C5.993,9.018,5.485,9.025,4.977,9.025z"/>
	<path fill-rule="evenodd" clip-rule="evenodd" fill="#040404" d="M0.063,2.019c0.05-1.492,1.005-2.213,2.487-1.974
		c0.355,0.057,0.479,0.179,0.466,0.519C3.003,0.908,2.852,1.072,2.504,1.036C1.44,0.926,0.928,1.38,1.045,2.47
		C1.091,2.903,0.853,3.044,0.478,3C-0.272,2.913,0.216,2.31,0.063,2.019z"/>
	<path fill-rule="evenodd" clip-rule="evenodd" fill="#040404" d="M11.99,2.104c-0.111,0.285,0.267,0.821-0.396,0.897
		c-0.728,0.084-0.581-0.453-0.582-0.863c-0.002-0.902-0.534-1.16-1.322-1.099C9.263,1.073,9.009,0.962,9.034,0.467
		c0.026-0.502,0.385-0.394,0.685-0.411C11.269-0.032,11.971,0.59,11.99,2.104z"/>
	<path fill-rule="evenodd" clip-rule="evenodd" fill="#040404" d="M2.072,11.982c-1.521-0.034-2.293-1.031-2.016-2.512
		c0.051-0.271,0.118-0.442,0.413-0.438c0.277,0.004,0.605-0.003,0.566,0.396c-0.112,1.152,0.348,1.711,1.541,1.578
		c0.394-0.044,0.452,0.221,0.435,0.521C2.967,12.28,2.373,11.86,2.072,11.982z"/>
	<path fill-rule="evenodd" clip-rule="evenodd" fill="#040404" d="M11.99,9.973c-0.035,1.521-1.035,2.293-2.519,2.019
		c-0.274-0.052-0.44-0.119-0.433-0.414c0.008-0.272-0.019-0.604,0.392-0.565c1.146,0.107,1.72-0.34,1.584-1.541
		c-0.044-0.391,0.221-0.456,0.522-0.438C12.29,9.077,11.866,9.673,11.99,9.973z"/>
	<path fill-rule="evenodd" clip-rule="evenodd" fill="#040404" d="M5.921,4.121c-0.786,0-1.573-0.009-2.359,0.002
		C3.11,4.13,2.925,3.928,2.94,3.48c0.013-0.408,0.22-0.548,0.596-0.547C5.188,2.937,6.84,2.938,8.491,2.931
		c0.448-0.002,0.637,0.19,0.624,0.642c-0.015,0.503-0.328,0.553-0.717,0.55C7.572,4.118,6.747,4.122,5.921,4.121z"/>
</g>
</svg>
