<?xml version="1.0" encoding="utf-8"?>
<!-- Generator: Adobe Illustrator 16.0.0, SVG Export Plug-In . SVG Version: 6.00 Build 0)  -->
<!DOCTYPE svg PUBLIC "-//W3C//DTD SVG 1.1//EN" "http://www.w3.org/Graphics/SVG/1.1/DTD/svg11.dtd">
<svg version="1.1" id="Capa_1" xmlns="http://www.w3.org/2000/svg" xmlns:xlink="http://www.w3.org/1999/xlink" x="0px" y="0px"
	 width="12px" height="13.55px" viewBox="269.401 268.625 12 13.55" enable-background="new 269.401 268.625 12 13.55"
	 xml:space="preserve">
<g>
	<path d="M280.642,273.472h-0.325v-1.57c0-0.01-0.002-0.02-0.003-0.03c-0.001-0.063-0.021-0.124-0.063-0.172l-2.612-2.984
		c-0.001-0.001-0.002-0.001-0.002-0.002c-0.016-0.017-0.034-0.032-0.053-0.044c-0.006-0.004-0.012-0.007-0.018-0.01
		c-0.017-0.009-0.034-0.017-0.053-0.022c-0.005-0.001-0.009-0.003-0.014-0.005c-0.021-0.004-0.041-0.007-0.062-0.007h-6.42
		c-0.293,0-0.531,0.238-0.531,0.531v4.315h-0.326c-0.419,0-0.759,0.34-0.759,0.759v3.949c0,0.42,0.34,0.76,0.759,0.76h0.326v2.703
		c0,0.293,0.238,0.532,0.531,0.532h8.768c0.292,0,0.531-0.239,0.531-0.532v-2.703h0.325c0.419,0,0.759-0.34,0.759-0.76v-3.949
		C281.4,273.812,281.061,273.472,280.642,273.472z M271.017,269.157h6.155v2.719c0,0.147,0.119,0.266,0.266,0.266h2.348v1.331
		h-8.768V269.157z M277.452,275.944c0,0.684-0.249,1.154-0.594,1.446c-0.377,0.313-0.948,0.461-1.648,0.461
		c-0.418,0-0.715-0.026-0.917-0.053v-3.508c0.296-0.048,0.684-0.075,1.091-0.075c0.679,0,1.118,0.122,1.463,0.381
		C277.219,274.874,277.452,275.313,277.452,275.944z M270.329,276.055c0-1.07,0.684-1.87,1.738-1.87
		c1.097,0,1.696,0.821,1.696,1.807c0,1.172-0.71,1.882-1.754,1.882C270.949,277.873,270.329,277.072,270.329,276.055z
		 M279.785,281.5h-8.768v-2.56h8.768V281.5L279.785,281.5z M278.856,277.868c-0.407,0-0.811-0.106-1.012-0.218l0.164-0.668
		c0.218,0.111,0.551,0.223,0.896,0.223c0.371,0,0.567-0.153,0.567-0.387c0-0.223-0.17-0.35-0.599-0.503
		c-0.594-0.207-0.98-0.536-0.98-1.055c0-0.609,0.509-1.076,1.352-1.076c0.402,0,0.699,0.084,0.911,0.18l-0.181,0.652
		c-0.143-0.069-0.397-0.169-0.747-0.169s-0.52,0.159-0.52,0.345c0,0.228,0.202,0.328,0.663,0.503
		c0.631,0.233,0.927,0.562,0.927,1.065C280.298,277.358,279.837,277.868,278.856,277.868z"/>
	<path d="M275.47,274.836c-0.18,0-0.297,0.016-0.366,0.032v2.337c0.069,0.016,0.18,0.016,0.281,0.016
		c0.731,0.006,1.209-0.397,1.209-1.251C276.599,275.229,276.164,274.836,275.47,274.836z"/>
	<path d="M272.91,276.019c0-0.642-0.307-1.193-0.864-1.193c-0.546,0-0.864,0.519-0.864,1.213c0,0.7,0.329,1.192,0.869,1.192
		C272.597,277.231,272.91,276.712,272.91,276.019z"/>
</g>
</svg>
