<svg id="Capa_1" enable-background="new 0 0 512 512" height="512" viewBox="0 0 512 512" width="512" xmlns="http://www.w3.org/2000/svg"><path d="m410.54 0v512h-383v-385.63l126.41-126.37z" fill="#eaf2f9"/><path d="m291.04 0h119.5v512h-119.5z" fill="#c6dcf8"/><path d="m97.62 220.1h386.84v203.27h-386.84z" fill="#fd4b49"/><path d="m291.04 220.1h193.42v203.27h-193.42z" fill="#e70b69"/><path d="m163.332 387.978h-30v-130.918h47.733c24.25 0 43.979 19.729 43.979 43.979s-19.729 43.979-43.979 43.979h-17.733zm0-72.959h17.733c7.708 0 13.979-6.271 13.979-13.979s-6.271-13.979-13.979-13.979h-17.733z" fill="#eaf2f9"/><path d="m448.79 287.06v-30h-81.987v130.918h30v-42.959h41.32v-30h-41.32v-27.959z" fill="#c6dcf8"/><path d="m296.18 257.06h-47.65v130.49h47.65c24.3 0 44.06-19.76 44.06-44.06v-42.37c0-24.29-19.76-44.06-44.06-44.06zm14.06 86.43c0 7.76-6.31 14.06-14.06 14.06h-17.65v-70.49h17.65c7.75 0 14.06 6.31 14.06 14.06z" fill="#eaf2f9"/><path d="m205.6 112.67h137.44v30h-137.44z" fill="#445ea0"/><path d="m27.54 126.369h126.412v-126.369z" fill="#c6dcf8"/><path d="m340.24 301.12v42.37c0 24.3-19.76 44.06-44.06 44.06h-5.14v-30h5.14c7.75 0 14.06-6.3 14.06-14.06v-42.37c0-7.75-6.31-14.06-14.06-14.06h-5.14v-30h5.14c24.3 0 44.06 19.77 44.06 44.06z" fill="#c6dcf8"/><path d="m291.04 112.67h52v30h-52z" fill="#224070"/></svg>