<?xml version="1.0" encoding="utf-8"?>
<!-- Generator: Adobe Illustrator 16.0.0, SVG Export Plug-In . SVG Version: 6.00 Build 0)  -->
<!DOCTYPE svg PUBLIC "-//W3C//DTD SVG 1.1//EN" "http://www.w3.org/Graphics/SVG/1.1/DTD/svg11.dtd">
<svg version="1.1" id="Layer_1" xmlns="http://www.w3.org/2000/svg" xmlns:xlink="http://www.w3.org/1999/xlink" x="0px" y="0px"
	 width="18.779px" height="25px" viewBox="0 0 18.779 25" enable-background="new 0 0 18.779 25" xml:space="preserve">
<g>
	<path fill-rule="evenodd" clip-rule="evenodd" fill="#999999" d="M13.098,25c-3.889,0-7.779,0-11.669,0
		c-0.122-0.041-0.247-0.075-0.367-0.123C0.369,24.6,0,24,0,23.15c0-7.1,0-14.201,0-21.301c0-0.073,0-0.146,0.003-0.22
		c0.031-0.756,0.535-1.383,1.266-1.577C1.323,0.038,1.376,0.018,1.429,0c3.891,0,7.78,0,11.669,0
		c0.014,0.009,0.025,0.023,0.039,0.028c0.955,0.278,1.379,0.841,1.379,1.833c0,1.439,0,2.879,0,4.319c0,0.085,0,0.17,0,0.249
		c0.055,0.01,0.07,0.015,0.086,0.015c0.83,0.001,1.66,0,2.49,0.002c0.994,0.003,1.68,0.672,1.682,1.662
		c0.006,2.701,0.006,5.401,0,8.101c0,0.996-0.678,1.664-1.672,1.668c-0.773,0.002-1.547,0-2.318,0c-0.086,0-0.172,0-0.268,0
		c0,0.139,0,0.235,0,0.333c0,1.692,0.004,3.384-0.002,5.075c-0.002,0.822-0.508,1.46-1.307,1.669
		C13.17,24.964,13.135,24.984,13.098,25z M13.327,6.445c0-1.27,0-2.509,0-3.748c-4.056,0-8.095,0-12.135,0
		c0,6.397,0,12.779,0,19.163c4.056,0,8.095,0,12.137,0c0-1.329,0-2.643,0-3.98c-0.092,0-0.172,0-0.252,0
		c-0.91,0-1.822-0.007-2.732,0.007c-0.129,0.002-0.285,0.067-0.377,0.156c-0.802,0.786-1.592,1.584-2.387,2.377
		c-0.058,0.059-0.12,0.112-0.227,0.211c0-0.954,0-1.838,0-2.751c-0.297,0-0.571,0.001-0.846-0.001
		c-1.073-0.004-1.737-0.662-1.738-1.732c-0.003-2.652-0.003-5.305,0-7.958c0.001-1.082,0.67-1.743,1.756-1.743
		c2.164,0,4.329,0,6.493,0C13.114,6.445,13.211,6.445,13.327,6.445z M8.071,18.926c0.556-0.558,1.059-1.055,1.55-1.563
		c0.135-0.141,0.271-0.196,0.467-0.195c2.318,0.006,4.637,0.004,6.955,0.003c0.668-0.001,1.027-0.359,1.027-1.025
		c0-2.651,0-5.304,0-7.956c0-0.676-0.346-1.027-1.02-1.027c-3.514-0.002-7.029-0.001-10.543,0c-0.689,0-1.024,0.345-1.024,1.042
		c0,2.066,0,4.133,0,6.2c0,0.602-0.002,1.203,0.001,1.806c0.002,0.577,0.361,0.944,0.94,0.96c0.268,0.008,0.537,0.002,0.805,0.002
		c0.274,0,0.548,0,0.842,0C8.071,17.752,8.071,18.301,8.071,18.926z M8.104,23.301c-0.007-0.465-0.405-0.849-0.869-0.835
		c-0.458,0.013-0.828,0.399-0.823,0.856c0.006,0.457,0.388,0.836,0.843,0.838C7.716,24.161,8.11,23.763,8.104,23.301z M7.266,1.621
		c0.561,0,1.121-0.001,1.682,0c0.15,0,0.294-0.02,0.289-0.209C9.231,1.243,9.099,1.218,8.955,1.218
		c-1.129,0.002-2.258,0.001-3.387,0c-0.151,0-0.291,0.02-0.287,0.21C5.284,1.606,5.42,1.621,5.56,1.621
		C6.128,1.62,6.697,1.62,7.266,1.621z"/>
	<text transform="matrix(1 0 0 1 6.2207 14.0234)" fill="#999999" font-family="'Arial-BoldMT'" font-size="5.3685">OTP</text>
</g>
</svg>
