<?xml version="1.0" encoding="utf-8"?>
<!-- Generator: Adobe Illustrator 16.0.0, SVG Export Plug-In . SVG Version: 6.00 Build 0)  -->
<!DOCTYPE svg PUBLIC "-//W3C//DTD SVG 1.1//EN" "http://www.w3.org/Graphics/SVG/1.1/DTD/svg11.dtd">
<svg version="1.1" id="Layer_1" xmlns="http://www.w3.org/2000/svg" xmlns:xlink="http://www.w3.org/1999/xlink" x="0px" y="0px"
	 width="511.596px" height="511.104px" viewBox="0 0 511.596 511.104" enable-background="new 0 0 511.596 511.104"
	 xml:space="preserve">
<g>
	<path fill-rule="evenodd" clip-rule="evenodd" fill="#61CCF1" d="M354.453,1c8.936,2.189,18.162,3.057,26.949,5.943
		c6.41,2.105,13.008,3.699,18.994,6.963c0.488,0.863,0.193,1.688-0.383,2.277c-7.539,7.707-14.609,15.897-23.168,22.568
		c-0.793,0.235-1.596,0.293-2.416,0.225c-12.104-3.574-24.504-5.395-37.055-6.383c-9.143-0.719-18.115,0.943-27.145,1.77
		c-9.237,0.961-18.068,3.661-26.896,6.346c-44.532,16.452-74.823,47.015-90.854,91.707c-2.516,8.123-4.878,16.275-5.766,24.775
		c-3.137,21.66-1.908,43.033,4.149,64.089c0.207,1.32,0.529,2.638,0.29,3.991c-6.758,7.04-13.751,13.854-20.697,20.715
		c-1.199,1.184-2.453,2.97-4.635,1.548c-6.498-13.836-9.739-28.572-11.964-43.575c-0.555-3.742-0.821-7.527-1.221-11.292
		c-2.834-6.235-3.489-12.555-0.737-19.008c1.391-10.848,1.966-21.788,4.336-32.524c3.567-16.156,9.625-31.372,16.719-46.232
		c-0.275-1.782,0.578-3.215,1.412-4.668c26.477-46.157,66.191-74.442,117.502-87.107c5.486-1.354,11.173-0.959,16.669-2.127
		C323.844,1,339.148,1,354.453,1z"/>
	<path fill-rule="evenodd" clip-rule="evenodd" fill="#14A8DC" d="M252.604,341.504c-3.83-2.49-7.665-4.974-12.027-6.478
		c-5.252-1.097-9.074-4.767-13.327-7.588c-6.797-4.508-13.089-9.734-18.921-15.411c-2.942-2.863-4.721-2.424-7.34,0.232
		c-12.965,13.145-26.069,26.151-39.124,39.205c-46.575,46.576-93.138,93.162-139.76,139.689c-2.324,2.32-4.081,5.246-7.067,6.889
		c-17.31-18.068-17.49-44.516,0.1-62.178c53.715-53.929,107.604-107.685,161.431-161.505c0.348-0.349,0.757-0.636,1.138-0.952
		c2.438-0.55,3.111,1.541,4.004,2.932c5.915,9.209,12.82,17.596,20.26,25.611c2.379,2.563,3.801,2.352,5.965,0.128
		c4.727-4.854,9.536-9.628,14.369-14.376c1.509-1.482,2.929-3.265,5.467-2.812c2.49,0.772,4.16,2.66,5.959,4.378
		c12.808,12.23,27.916,20.75,44.2,27.368c4.914,1.846,9.731,3.977,14.947,4.907c46.199,11.814,88.923,4.039,127.16-24.308
		c32.656-24.207,51.49-57.307,57.539-97.476c2.957-19.63,1.352-39.12-3.58-58.333c-1.324-5.585-3.295-10.957-5.424-16.275
		c-6.133-15.676-14.877-29.767-25.834-42.513c-1.895-2.689-5.287-4.225-6.035-7.803c0.158-1.803,1.416-2.938,2.57-4.104
		c5.23-5.286,10.49-10.542,15.771-15.774c1.164-1.154,2.279-2.434,4.076-2.637c3.383,0.905,4.584,3.88,6.156,6.505
		c13.182,15.502,24.25,32.292,32.24,51.115c43.824,103.228-18.996,223.219-128.494,245.469c-8.801,1.787-17.727,2.394-26.539,3.929
		c-6.318,2.479-12.645,2.41-18.979,0.061c-19.888-1.202-39.069-5.7-57.778-12.396C260.569,347.042,256.552,344.354,252.604,341.504z
		"/>
	<path fill-rule="evenodd" clip-rule="evenodd" fill="#0C90BD" d="M15.038,498.043c0.935-2.178,2.454-3.896,4.116-5.557
		c60.63-60.602,121.261-121.204,181.799-181.896c2.801-2.809,4.348-3.267,7.444-0.224c8.985,8.828,18.981,16.449,29.874,22.848
		c0.836,0.49,1.542,1.203,2.308,1.813c-53.795,53.778-107.628,107.521-161.352,161.37c-10.047,10.072-21.749,15.563-36.077,14.6
		C32.189,510.26,22.628,506.223,15.038,498.043z"/>
	<path fill-rule="evenodd" clip-rule="evenodd" fill="#61CCF1" d="M171.788,262.51c0.087-0.361,0.174-0.722,0.261-1.082
		c0.385-2.132,2.061-3.342,3.441-4.736c6.403-6.47,12.914-12.833,19.219-19.402c0.479-0.101,0.936-0.041,1.367,0.199
		c5.345,10.783,10.93,21.427,18.395,30.952c3.05,3.894,5.977,7.895,9.667,11.238c1.208,1.884,4.091,2.777,3.438,5.768
		c-3.456,0.576-4.946,3.667-7.167,5.756c-4.46,4.194-8.807,8.523-12.989,12.993c-2.18,2.329-3.417,1.973-5.454-0.29
		c-8.296-9.218-16.275-18.654-22.72-29.302c-0.313-0.519-1.018-0.802-1.541-1.195C176.801,269.196,174.153,265.93,171.788,262.51z"
		/>
	<path fill-rule="evenodd" clip-rule="evenodd" fill="#61CCF1" d="M459.137,52.93c-7.75,6.874-15.064,14.182-21.934,21.936
		c-0.383,0.289-0.801,0.356-1.258,0.206c-1.801-1.023-3.053-2.682-4.619-3.979c-12.197-11.072-25.887-19.861-40.83-26.738
		c-0.326-0.367-0.488-0.798-0.49-1.288c7.064-8.382,14.51-16.377,23.313-23c11.688,4.664,21.588,12.169,31.377,19.826
		c3.65,2.856,7.098,5.971,10.639,8.968C456.947,49.894,459.398,50.145,459.137,52.93z"/>
	<path fill-rule="evenodd" clip-rule="evenodd" fill="#5BC3E7" d="M413.318,20.067c-7.295,7.952-14.865,15.627-22.896,22.84
		c-5.086,0.407-9.516-0.986-13.082-4.76c5.637-7.107,12.65-12.884,18.816-19.477c1.453-1.552,2.83-3.175,4.24-4.765
		C405.084,15.162,409.441,17.114,413.318,20.067z"/>
	<path fill-rule="evenodd" clip-rule="evenodd" fill="#5AC3E7" d="M194.792,237.477c-0.023,1.245-0.636,2.185-1.496,3.03
		c-7.088,6.968-14.167,13.945-21.248,20.921c-2.043-3.973-4.087-7.944-6.131-11.917c-0.032-0.66-0.064-1.32-0.097-1.979
		c2.1-0.001,3.118-1.669,4.372-2.91c5.376-5.323,10.692-10.706,16.073-16.023c1.253-1.238,2.242-2.93,4.319-3.019
		C193.511,229.007,195.769,232.669,194.792,237.477z"/>
	<path fill-rule="evenodd" clip-rule="evenodd" fill="#F2652E" d="M357.459,77.683c10.07,1.659,17.07,6.803,19.455,17.166
		c2.951,12.834-9.313,26.987-22.117,24.365c-24.273-4.97-45.195,0.493-63.063,17.647c-6.674-4.306-11.776-10.414-17.646-15.633
		c-4.244-3.774-8.877-7.385-11.679-12.582c14.594-16.482,33.139-25.998,54.366-30.719c7.459-1.66,15.063-2.136,22.689-2.225
		C345.514,75.884,351.5,76.672,357.459,77.683z"/>
	<path fill-rule="evenodd" clip-rule="evenodd" fill="#F2CE40" d="M262.41,108.646c9.749,9.432,20.276,18.053,29.322,28.214
		c-4.786,5.806-8.683,12.187-12.165,18.836c-12.626,13.118-25.673,25.817-38.542,38.693c-1.388,1.389-2.658,3.677-5.344,2.244
		c-1.63-4.862-1.165-10.008-2.023-14.974c0.411-24.966,7.492-47.626,23.331-67.228C258.646,112.384,260.596,110.569,262.41,108.646z
		"/>
	<path fill-rule="evenodd" clip-rule="evenodd" fill="#FED946" d="M235.681,196.635c2.302-0.048,3.376-1.925,4.742-3.284
		c11.486-11.432,22.923-22.916,34.409-34.348c1.366-1.36,2.441-3.232,4.734-3.305c-4.623,13.506-5.921,27.195-1.96,41.083
		c2.06,7.221,5.103,14.008,10.039,19.803c0.705,1.582,1.767,2.884,3.115,3.961c0.364,0.634,0.728,1.268,1.091,1.902
		c0.072,3.337-2.645,4.903-4.683,6.57c-6.154,5.035-11.511,10.869-17.221,16.349c-2.25,2.159-4.493,4.387-7.608,5.342
		c-1.516-1.487-3.03-2.973-4.545-4.46c-9.786-12.742-17.194-26.667-21.079-42.345c-0.432-1.745-0.808-3.503-1.21-5.255
		C235.565,197.976,235.623,197.305,235.681,196.635z"/>
	<path fill-rule="evenodd" clip-rule="evenodd" fill="#6FBE6C" d="M262.34,250.707c9.837-9.42,19.673-18.84,29.512-28.26
		c1.848,1.46,3.695,2.921,5.543,4.382c5.282,1.969,9.459,5.885,14.652,8.099c21.188,9.031,41.264,7.049,60.422-5.543
		c3.445-2.265,6.275-5.4,10.094-7.136c3.891,0.974,6.311,4.121,9.074,6.58c6.299,5.608,11.779,12.101,18.451,17.339
		c1.418,1.112,2.738,2.448,3.018,4.414c-14.906,16.351-33.465,26.17-54.932,30.866c-9.807,2.146-19.736,2.097-29.682,1.964
		c-5.322-0.949-10.645-1.898-15.967-2.847c-17.14-4.951-32.689-12.8-45.732-25.182C265.234,253.902,263.821,252.269,262.34,250.707z
		"/>
	<path fill-rule="evenodd" clip-rule="evenodd" fill="#14A8DC" d="M413.105,250.582c-10.295-9.08-20.205-18.561-29.861-28.311
		c-0.041-2.387,1.689-3.878,2.902-5.603c2.863-4.071,5.455-8.282,7.494-12.84c1.273-2.843,0.492-3.895-2.588-3.875
		c-9.104,0.06-18.209,0.081-27.313-0.007c-9.623-0.093-15.684-5.271-19.389-13.719c-0.807-1.838-1.502-3.756,0.197-5.544
		c2.629-12.137,6.311-15.847,17.912-18.047c18.789,0.058,37.576,0.152,56.363,0.146c4.172-0.001,8.301,0.112,12.355,1.171
		c3.754,2.154,6.652,5.18,8.949,8.816c3.061,16.496-1.135,31.971-7.078,47.051C428.506,231.353,421.566,241.502,413.105,250.582z"/>
</g>
</svg>
