<?xml version="1.0" encoding="utf-8"?>
<!-- Generator: Adobe Illustrator 16.0.0, SVG Export Plug-In . SVG Version: 6.00 Build 0)  -->
<!DOCTYPE svg PUBLIC "-//W3C//DTD SVG 1.1//EN" "http://www.w3.org/Graphics/SVG/1.1/DTD/svg11.dtd">
<svg version="1.1" id="Capa_1" xmlns="http://www.w3.org/2000/svg" xmlns:xlink="http://www.w3.org/1999/xlink" x="0px" y="0px"
	 width="11.656px" height="11.156px" viewBox="0 0 11.656 11.156" enable-background="new 0 0 11.656 11.156" xml:space="preserve">
<g>
	<g id="Zoom_2_">
		<g>
			<path fill="#FFFFFF" stroke="#FFFFFF" stroke-miterlimit="10" d="M10.923,9.74L8.546,7.457C9.13,6.734,9.477,5.829,9.477,4.844
				c0-2.356-1.994-4.273-4.448-4.273c-2.453,0-4.449,1.917-4.449,4.273c0,2.355,1.996,4.275,4.449,4.275
				c1.059,0,2.03-0.357,2.795-0.953l2.369,2.275c0.102,0.098,0.232,0.145,0.363,0.145c0.133,0,0.266-0.047,0.365-0.145
				C11.126,10.246,11.126,9.936,10.923,9.74z M1.613,4.844c0-1.811,1.532-3.283,3.417-3.283c1.885,0,3.42,1.473,3.42,3.283
				S6.915,8.127,5.03,8.127C3.145,8.127,1.613,6.654,1.613,4.844z"/>
		</g>
	</g>
</g>
</svg>
