<?xml version="1.0" encoding="utf-8"?>
<!-- Generator: Adobe Illustrator 25.0.0, SVG Export Plug-In . SVG Version: 6.00 Build 0)  -->
<svg version="1.1" id="Capa_1" xmlns="http://www.w3.org/2000/svg" xmlns:xlink="http://www.w3.org/1999/xlink" x="0px" y="0px"
	 viewBox="0 0 9.7 12" style="enable-background:new 0 0 9.7 12;" xml:space="preserve">
<style type="text/css">
	.st0{fill:#051D6B;}
</style>
<path class="st0" d="M7.7,0.9c-0.8,0-1.4,0.6-1.4,1.4c0,0.1,0,0.2,0,0.3l-3.4,2C2.6,4.4,2.3,4.3,2,4.3C1.2,4.3,0.5,5,0.5,5.8
	S1.2,7.2,2,7.2c0.3,0,0.7-0.1,0.9-0.3l3.4,2c0,0.1,0,0.2,0,0.3c0,0.8,0.6,1.4,1.4,1.4s1.4-0.6,1.4-1.4S8.5,7.7,7.7,7.7
	C7.4,7.7,7.1,7.8,6.8,8L3.4,6c0-0.1,0-0.2,0-0.3c0-0.1,0-0.2,0-0.3l3.4-2c0.3,0.2,0.6,0.3,0.9,0.3c0.8,0,1.4-0.6,1.4-1.4
	S8.5,0.9,7.7,0.9z"/>
</svg>
