<?xml version="1.0" encoding="utf-8"?>
<!-- Generator: Adobe Illustrator 16.0.0, SVG Export Plug-In . SVG Version: 6.00 Build 0)  -->
<!DOCTYPE svg PUBLIC "-//W3C//DTD SVG 1.1//EN" "http://www.w3.org/Graphics/SVG/1.1/DTD/svg11.dtd">
<svg version="1.1" id="Capa_1" xmlns="http://www.w3.org/2000/svg" xmlns:xlink="http://www.w3.org/1999/xlink" x="0px" y="0px"
	 width="9.704px" height="12px" viewBox="0 0 9.704 12" enable-background="new 0 0 9.704 12" xml:space="preserve">
<path fill="#051D6B" stroke="#051D6B" stroke-width="0.25" stroke-miterlimit="10" d="M8.931,11.76H0.773
	c-0.134,0-0.241-0.107-0.241-0.24c0-0.043,0.013-0.087,0.036-0.126L3.851,6L0.568,0.606c-0.069-0.113-0.034-0.261,0.08-0.33
	c0.038-0.022,0.082-0.035,0.125-0.035h8.158c0.133,0,0.241,0.108,0.241,0.24c0,0.132-0.108,0.24-0.241,0.24H1.199l3.138,5.154
	c0.047,0.078,0.047,0.173,0,0.251L1.199,11.28h7.732c0.133,0,0.241,0.107,0.241,0.239C9.172,11.652,9.064,11.76,8.931,11.76z"/>
</svg>
