<?xml version="1.0" encoding="utf-8"?>
<!-- Generator: Adobe Illustrator 16.0.0, SVG Export Plug-In . SVG Version: 6.00 Build 0)  -->
<!DOCTYPE svg PUBLIC "-//W3C//DTD SVG 1.1//EN" "http://www.w3.org/Graphics/SVG/1.1/DTD/svg11.dtd">
<svg version="1.1" id="Capa_1" xmlns="http://www.w3.org/2000/svg" xmlns:xlink="http://www.w3.org/1999/xlink" x="0px" y="0px"
	 width="12.988px" height="16px" viewBox="0 0 12.988 16" enable-background="new 0 0 12.988 16" xml:space="preserve">
<g>
	<path fill="#3A4E91" stroke="#3A4E91" stroke-width="0.75" stroke-miterlimit="10" d="M12.115,2.817
		c0.24,0,0.438-0.195,0.438-0.438V0.976c0-0.242-0.195-0.438-0.438-0.438H0.873c-0.168,0-0.32,0.096-0.395,0.248
		C0.406,0.935,0.427,1.117,0.532,1.247l5.402,6.754l-5.402,6.752c-0.104,0.132-0.125,0.313-0.054,0.464
		c0.073,0.15,0.227,0.247,0.395,0.247h11.242c0.24,0,0.438-0.196,0.438-0.438v-1.404c0-0.243-0.195-0.438-0.438-0.438
		s-0.439,0.194-0.439,0.438v0.967H1.782l5.052-6.313c0.128-0.16,0.128-0.389,0-0.549L1.782,1.414h9.893v0.969
		C11.676,2.622,11.873,2.817,12.115,2.817z"/>
</g>
</svg>
