<?xml version="1.0" encoding="utf-8"?>
<!-- Generator: Adobe Illustrator 16.0.0, SVG Export Plug-In . SVG Version: 6.00 Build 0)  -->
<!DOCTYPE svg PUBLIC "-//W3C//DTD SVG 1.1//EN" "http://www.w3.org/Graphics/SVG/1.1/DTD/svg11.dtd">
<svg version="1.1" id="Layer_1" xmlns="http://www.w3.org/2000/svg" xmlns:xlink="http://www.w3.org/1999/xlink" x="0px" y="0px"
	 width="446.878px" height="200.113px" viewBox="0 0 446.878 200.113" enable-background="new 0 0 446.878 200.113"
	 xml:space="preserve">
<g>
	<path fill="#3E56A4" d="M8353.406,5.783h-0.986h-11.428h-3.674v20h2.855h13.471h3.266V9.288L8353.406,5.783z M8351.604,6.6v5.714
		h-9.797V6.6H8351.604z M8340.992,24.967v-7.755h11.836v7.755H8340.992z M8356.094,24.967h-2.449V16.4h-13.471v8.564h-2.039V6.6
		h2.855v6.522h11.43V6.6h0.646l3.027,3.021V24.967L8356.094,24.967z"/>
	<path fill="#3E56A4" d="M8342.625,19.252h2.855c0.227,0,0.408-0.188,0.408-0.399c0-0.229-0.182-0.408-0.408-0.408h-2.855
		c-0.227,0-0.408,0.188-0.408,0.408C8342.217,19.065,8342.398,19.252,8342.625,19.252z"/>
	<path fill="#3E56A4" d="M8346.705,20.069h-4.08c-0.227,0-0.408,0.188-0.408,0.407c0,0.229,0.182,0.401,0.408,0.401h4.08
		c0.227,0,0.408-0.183,0.408-0.401C8347.113,20.251,8346.932,20.069,8346.705,20.069z"/>
	<path fill="#3E56A4" d="M8347.641,20.188c-0.072,0.077-0.117,0.188-0.117,0.289c0,0.104,0.045,0.213,0.117,0.291
		c0.076,0.066,0.18,0.11,0.289,0.11c0.107,0,0.213-0.044,0.291-0.11c0.072-0.078,0.117-0.188,0.117-0.291
		c0-0.104-0.045-0.212-0.117-0.289C8348.068,20.037,8347.791,20.037,8347.641,20.188z"/>
	<path fill="#3E56A4" d="M8350.787,7.416h-2.449v4.082h2.449V7.416z M8349.971,10.681h-0.816V8.232h0.816V10.681z"/>
</g>
<g>
	<rect x="8348.335" y="35.92" fill="#3E56A4" width="2.451" height="4.082"/>
	<path fill="#3E56A4" d="M8353.404,33.879h-16.086v20h19.592V37.384L8353.404,33.879z M8341.398,34.696h10.613v6.531h-10.613V34.696
		z M8353.236,53.064h-12.654V44.5h12.654V53.064z"/>
	<path fill="#3E56A4" d="M8342.623,46.941h2.857c0.225,0,0.408-0.188,0.408-0.398c0-0.229-0.184-0.408-0.408-0.408h-2.857
		c-0.225,0-0.408,0.188-0.408,0.408C8342.215,46.759,8342.398,46.941,8342.623,46.941z"/>
	<path fill="#3E56A4" d="M8342.623,48.574h4.082c0.225,0,0.408-0.188,0.408-0.408c0-0.229-0.184-0.408-0.408-0.408h-4.082
		c-0.225,0-0.408,0.188-0.408,0.408C8342.215,48.39,8342.398,48.574,8342.623,48.574z"/>
	<path fill="#3E56A4" d="M8347.93,48.574c0.109,0,0.211-0.055,0.289-0.117c0.074-0.078,0.117-0.188,0.117-0.291
		c0-0.103-0.043-0.213-0.117-0.289c-0.15-0.146-0.424-0.146-0.576,0c-0.076,0.076-0.121,0.188-0.121,0.289
		c0,0.104,0.045,0.213,0.119,0.291C8347.717,48.529,8347.818,48.574,8347.93,48.574z"/>
</g>
<polygon points="93.577,69.307 86.782,76.103 83.233,72.554 82.63,73.156 86.782,77.307 94.179,69.91 "/>
<linearGradient id="SVGID_1_" gradientUnits="userSpaceOnUse" x1="2427.355" y1="-5246.54" x2="2452.355" y2="-5246.54" gradientTransform="matrix(1 0 0 -1 -2178 -5133.8633)">
	<stop  offset="0" style="stop-color:#E5D3E7"/>
	<stop  offset="0.5161" style="stop-color:#7C77B7"/>
	<stop  offset="1" style="stop-color:#474098"/>
</linearGradient>
<circle fill="url(#SVGID_1_)" cx="261.855" cy="112.677" r="12.5"/>
<g>
	
		<linearGradient id="SVGID_2_" gradientUnits="userSpaceOnUse" x1="2289.814" y1="-5234.04" x2="2289.814" y2="-5259.04" gradientTransform="matrix(1 0 0 -1 -2178 -5133.8633)">
		<stop  offset="0" style="stop-color:#FFBE97"/>
		<stop  offset="1" style="stop-color:#FF3757"/>
	</linearGradient>
	<circle fill="url(#SVGID_2_)" cx="111.814" cy="112.677" r="12.5"/>
</g>
<g>
	
		<linearGradient id="SVGID_3_" gradientUnits="userSpaceOnUse" x1="2477.3569" y1="-5246.9111" x2="2502.3569" y2="-5246.9111" gradientTransform="matrix(1 0 0 -1 -2178 -5133.8633)">
		<stop  offset="0" style="stop-color:#F5926A"/>
		<stop  offset="0.3338" style="stop-color:#E7796E"/>
		<stop  offset="1" style="stop-color:#C53E76"/>
	</linearGradient>
	<circle fill="url(#SVGID_3_)" cx="311.857" cy="113.048" r="12.5"/>
</g>
<g>
	<g>
		
			<radialGradient id="SVGID_4_" cx="2239.4995" cy="-5246.9795" r="12.5" gradientTransform="matrix(1 0 0 -1 -2178 -5133.8633)" gradientUnits="userSpaceOnUse">
			<stop  offset="0" style="stop-color:#10A6FF"/>
			<stop  offset="1" style="stop-color:#1379C2"/>
		</radialGradient>
		<circle fill="url(#SVGID_4_)" cx="61.5" cy="113.116" r="12.5"/>
	</g>
	<g>
		<path fill="#FFFFFF" d="M61.019,108.764h-0.485v2.896h-2.9v0.479c0,1.86,1.518,3.389,3.385,3.389c1.865,0,3.384-1.521,3.384-3.389
			C64.402,110.282,62.882,108.764,61.019,108.764z M61.019,114.564c-1.168,0-2.146-0.83-2.37-1.938h2.853v-2.854
			c1.1,0.228,1.934,1.199,1.934,2.369C63.434,113.48,62.351,114.564,61.019,114.564z"/>
		<path fill="#FFFFFF" d="M59.567,106.831h-0.484c-1.867,0-3.384,1.521-3.384,3.383v0.484h3.867L59.567,106.831L59.567,106.831z
			 M58.6,109.73h-1.885c0.192-0.945,0.939-1.689,1.885-1.896V109.73z"/>
		<path fill="#FFFFFF" d="M53.764,104.866v14.565c0,1.063,0.868,1.935,1.935,1.935H67.3c1.067,0,1.935-0.867,1.935-1.935v-2.899
			h-2.901v-11.666H53.764z M54.733,119.432V105.83h10.636v13.604c0,0.352,0.092,0.685,0.262,0.965h-9.929
			C55.166,120.398,54.733,119.963,54.733,119.432z M68.268,117.499v1.938c0,0.521-0.433,0.965-0.965,0.965
			c-0.533,0-0.967-0.438-0.967-0.965v-1.938H68.268z"/>
		<path fill="#FFFFFF" d="M55.699,116.532H64.4v0.965h-8.701V116.532z"/>
		<path fill="#FFFFFF" d="M55.699,118.463H64.4v0.978h-8.701V118.463z"/>
	</g>
</g>
<g>
	
		<linearGradient id="SVGID_5_" gradientUnits="userSpaceOnUse" x1="2389.856" y1="-5234.04" x2="2389.856" y2="-5259.04" gradientTransform="matrix(1 0 0 -1 -2178 -5133.8633)">
		<stop  offset="0" style="stop-color:#A6DBE0"/>
		<stop  offset="0.1996" style="stop-color:#7AC5CA"/>
		<stop  offset="0.4663" style="stop-color:#46ABAF"/>
		<stop  offset="0.6983" style="stop-color:#20989C"/>
		<stop  offset="0.8839" style="stop-color:#098C90"/>
		<stop  offset="1" style="stop-color:#00888C"/>
	</linearGradient>
	<circle fill="url(#SVGID_5_)" cx="211.856" cy="112.677" r="12.5"/>
	<g id="Play_1_">
		<path fill="#FFFFFF" d="M217.773,111.844l-7.833-4.934c-0.23-0.139-0.521-0.111-0.734-0.111c-0.867,0-0.863,0.668-0.863,0.847
			v10.071c0,0.146-0.004,0.849,0.863,0.849c0.215,0,0.504,0.021,0.734-0.111l7.833-4.938c0.646-0.386,0.525-0.824,0.525-0.824
			S218.417,112.227,217.773,111.844z"/>
	</g>
</g>
<g>
	<g>
		<path fill="#FFFFFF" d="M109.586,111.729c0.113,0.73,0.685,1.687,1.625,2.019c0.386,0.133,0.808,0.133,1.193-0.006
			c0.925-0.334,1.514-1.271,1.631-2.013c0.124-0.021,0.287-0.188,0.462-0.813c0.241-0.854-0.016-0.979-0.233-0.957
			c0.041-0.108,0.073-0.229,0.093-0.354c0.368-2.207-0.719-2.277-0.719-2.277s-0.182-0.348-0.656-0.604
			c-0.317-0.188-0.759-0.342-1.341-0.289c-0.189,0.014-0.368,0.049-0.537,0.104l0,0c-0.213,0.074-0.412,0.188-0.589,0.312
			c-0.218,0.142-0.424,0.313-0.605,0.502c-0.287,0.299-0.543,0.678-0.654,1.146c-0.094,0.354-0.073,0.729,0.005,1.123l0,0
			c0.021,0.111,0.052,0.229,0.094,0.346c-0.219-0.021-0.474,0.106-0.233,0.961C109.299,111.543,109.461,111.715,109.586,111.729z"/>
		<path fill="#FFFFFF" d="M116.079,114.624c-1.323-0.34-2.396-1.095-2.396-1.095l-0.839,2.652l-0.157,0.498l-0.004-0.018
			l-0.137,0.43l-0.443-1.262c1.087-1.519-0.22-1.502-0.292-1.498c-0.073-0.004-1.38-0.021-0.293,1.498l-0.442,1.262l-0.137-0.43
			l-0.002,0.018l-0.158-0.498l-0.84-2.652c0,0-1.074,0.755-2.396,1.095c-0.986,0.25-1.033,1.396-0.994,1.951
			c0,0,0.056,0.764,0.113,1.1c0,0,1.927,1.25,5.151,1.252c3.226,0,5.151-1.252,5.151-1.252c0.057-0.336,0.114-1.1,0.114-1.1
			C117.112,116.014,117.065,114.874,116.079,114.624z"/>
	</g>
</g>
<g>
	<g>
		<path fill="#FFFFFF" d="M267.318,109.736h-2.104v-2.521c0-0.229-0.188-0.422-0.42-0.422h-8.399c-0.229,0-0.418,0.188-0.418,0.422
			v9.664c0,0.937,0.752,1.688,1.687,1.688h8.397c0.931,0,1.687-0.752,1.687-1.688v-6.723
			C267.742,109.924,267.55,109.736,267.318,109.736z M259.335,108.896h2.521c0.229,0,0.42,0.188,0.42,0.418
			c0,0.229-0.188,0.422-0.42,0.422h-2.521c-0.229,0-0.42-0.188-0.42-0.422C258.917,109.084,259.104,108.896,259.335,108.896z
			 M263.119,116.879h-5.041c-0.229,0-0.42-0.188-0.42-0.422c0-0.229,0.188-0.418,0.42-0.418h5.041c0.229,0,0.42,0.188,0.42,0.418
			C263.539,116.691,263.352,116.879,263.119,116.879z M263.119,115.198h-5.041c-0.229,0-0.42-0.188-0.42-0.421
			c0-0.229,0.188-0.42,0.42-0.42h5.041c0.229,0,0.42,0.188,0.42,0.42C263.539,115.008,263.352,115.198,263.119,115.198z
			 M263.119,113.518h-5.041c-0.229,0-0.42-0.188-0.42-0.42c0-0.229,0.188-0.43,0.42-0.43h5.041c0.229,0,0.42,0.188,0.42,0.43
			C263.539,113.329,263.352,113.518,263.119,113.518z M263.119,111.836h-5.041c-0.229,0-0.42-0.188-0.42-0.42
			c0-0.229,0.188-0.42,0.42-0.42h5.041c0.229,0,0.42,0.188,0.42,0.42C263.539,111.648,263.352,111.836,263.119,111.836z
			 M266.898,116.879c0,0.461-0.377,0.838-0.84,0.838s-0.848-0.377-0.848-0.838v-6.303h1.688V116.879L266.898,116.879z"/>
	</g>
</g>
<linearGradient id="SVGID_6_" gradientUnits="userSpaceOnUse" x1="2181.4995" y1="-5246.9795" x2="2206.4995" y2="-5246.9795" gradientTransform="matrix(1 0 0 -1 -2178 -5133.8633)">
	<stop  offset="0" style="stop-color:#7E94A4"/>
	<stop  offset="1" style="stop-color:#415564"/>
</linearGradient>
<circle fill="url(#SVGID_6_)" cx="16" cy="113.116" r="12.5"/>
<g>
	<rect x="9.774" y="106.866" fill="#FFFFFF" width="3.224" height="3.127"/>
	<rect x="14.315" y="106.866" fill="#FFFFFF" width="3.224" height="3.127"/>
	<rect x="19.001" y="106.866" fill="#FFFFFF" width="3.224" height="3.127"/>
	<rect x="9.774" y="111.551" fill="#FFFFFF" width="3.224" height="3.125"/>
	<rect x="14.315" y="111.551" fill="#FFFFFF" width="3.224" height="3.125"/>
	<rect x="19.001" y="111.551" fill="#FFFFFF" width="3.224" height="3.125"/>
	<rect x="9.774" y="116.24" fill="#FFFFFF" width="3.224" height="3.127"/>
	<rect x="14.315" y="116.24" fill="#FFFFFF" width="3.224" height="3.127"/>
	<rect x="19.001" y="116.24" fill="#FFFFFF" width="3.224" height="3.127"/>
</g>
<g>
	
		<linearGradient id="SVGID_7_" gradientUnits="userSpaceOnUse" x1="2339.8569" y1="-5234.4111" x2="2339.8569" y2="-5259.4111" gradientTransform="matrix(1 0 0 -1 -2178 -5133.8633)">
		<stop  offset="0" style="stop-color:#F2A36F"/>
		<stop  offset="1" style="stop-color:#BB6F3E"/>
	</linearGradient>
	<circle fill="url(#SVGID_7_)" cx="161.857" cy="113.048" r="12.5"/>
</g>
<g transform="translate(-1)">
	<g>
		<g>
			<path fill="#FFFFFF" d="M161.035,114.098c0.596,0.842,1.178,1.568,1.561,2.047c0.082,0.104,0.16,0.189,0.231,0.273l0.115,0.146
				c0.046,0.058,0.114,0.082,0.184,0.082c0.069,0,0.137-0.026,0.184-0.084l0.112-0.145c0.069-0.086,0.147-0.18,0.229-0.271
				c0.385-0.479,0.967-1.207,1.563-2.049c0.577-0.795,1.098-1.644,1.554-2.502c0.457-0.896,0.688-1.625,0.688-2.162
				c-0.005-1.146-0.461-2.244-1.271-3.063l-0.006-0.004v-0.002c-0.813-0.813-1.906-1.271-3.056-1.272
				c-1.147,0-2.25,0.462-3.064,1.271s-1.269,1.916-1.266,3.063c0,0.526,0.231,1.271,0.688,2.153
				C159.937,112.467,160.458,113.305,161.035,114.098z M161.422,107.486c0.451-0.451,1.064-0.703,1.703-0.701
				c0.132,0,0.241,0.104,0.241,0.236c0,0.139-0.109,0.242-0.241,0.242c-0.919,0-1.712,0.646-1.89,1.551
				c-0.177,0.896,0.304,1.803,1.151,2.146c0.851,0.354,1.83,0.063,2.338-0.709c0.51-0.765,0.411-1.771-0.241-2.431
				c-0.061-0.063-0.086-0.151-0.063-0.233c0.022-0.084,0.088-0.146,0.173-0.172c0.083-0.021,0.175,0.004,0.232,0.063
				c0.689,0.688,0.895,1.728,0.522,2.621c-0.371,0.896-1.249,1.479-2.223,1.479s-1.853-0.584-2.223-1.479
				C160.528,109.209,160.733,108.174,161.422,107.486z"/>
			<path fill="#FFFFFF" d="M169.833,117.982l-1.479-2.646c-0.049-0.084-0.138-0.135-0.235-0.133h-3.116
				c-0.378,0.5-0.722,0.938-0.977,1.246c-0.058,0.068-0.112,0.135-0.164,0.197h1.188c0.134,0,0.241,0.104,0.241,0.237
				c0,0.135-0.107,0.232-0.241,0.232h-1.917h-0.006h-0.006h-1.919c-0.133,0-0.242-0.104-0.242-0.232
				c0-0.143,0.107-0.237,0.242-0.237h1.187c-0.052-0.063-0.104-0.129-0.162-0.199c-0.254-0.313-0.599-0.744-0.977-1.244h-3.115
				c-0.098-0.002-0.187,0.049-0.235,0.131l-1.48,2.646c-0.039,0.063-0.039,0.146,0.003,0.225c0.049,0.082,0.137,0.131,0.232,0.129
				h12.946c0.097,0.002,0.186-0.047,0.234-0.129C169.873,118.135,169.873,118.051,169.833,117.982z M159.753,117.852h-1.925
				c-0.132,0-0.241-0.104-0.241-0.242c0-0.133,0.109-0.235,0.241-0.235h1.925c0.135,0,0.241,0.104,0.241,0.235
				C159.994,117.743,159.888,117.852,159.753,117.852z M160.437,116.782c-0.037,0.053-0.092,0.09-0.153,0.102
				c-0.063,0.021-0.128,0-0.182-0.023l-0.662-0.438h-0.889c-0.134,0-0.241-0.104-0.241-0.235c0-0.137,0.107-0.236,0.241-0.236h0.961
				c0.049,0,0.095,0.016,0.135,0.041l0.721,0.479c0.052,0.031,0.091,0.099,0.101,0.15
				C160.486,116.663,160.471,116.729,160.437,116.782z M166.012,116.889c-0.106,0-0.201-0.072-0.229-0.18
				c-0.032-0.103,0.007-0.215,0.095-0.271l0.724-0.479c0.039-0.021,0.086-0.036,0.132-0.036h0.962c0.133,0,0.24,0.104,0.24,0.237
				s-0.107,0.241-0.24,0.241h-0.89l-0.661,0.438C166.104,116.874,166.061,116.889,166.012,116.889z M168.419,117.852h-1.928
				c-0.132,0-0.241-0.104-0.241-0.242c0-0.133,0.109-0.235,0.241-0.235h1.928c0.132,0,0.241,0.104,0.241,0.235
				C168.659,117.743,168.551,117.852,168.419,117.852z"/>
		</g>
	</g>
</g>
<g>
	<path fill="#FFFFFF" d="M312.376,112.15h6.971c-0.256-3.732-3.229-6.717-6.971-6.977V112.15z"/>
	<path fill="#FFFFFF" d="M317.396,117.758c1.115-1.221,1.854-2.813,1.973-4.563h-6.543L317.396,117.758z"/>
	<path fill="#FFFFFF" d="M311.339,112.454v-7.271c-3.906,0.269-6.989,3.519-6.989,7.479c0,1.896,0.696,3.609,1.854,4.938
		L311.339,112.454z"/>
	<path fill="#FFFFFF" d="M311.707,113.551l-4.777,4.779c1.318,1.146,3.043,1.854,4.939,1.854c1.811,0,3.469-0.646,4.766-1.719
		L311.707,113.551z"/>
</g>
<circle fill="#FFFFFF" cx="261.855" cy="163.676" r="12.5"/>
<g>
	<circle fill="#FFFFFF" cx="111.814" cy="163.676" r="12.5"/>
</g>
<g>
	<circle fill="#FFFFFF" cx="311.857" cy="164.047" r="12.5"/>
</g>
<g>
	<g>
		<circle fill="#FFFFFF" cx="61.5" cy="164.116" r="12.5"/>
	</g>
	<g>
		<path fill="#051D6B" d="M61.019,159.764h-0.485v2.896h-2.9v0.479c0,1.861,1.518,3.387,3.385,3.387
			c1.865,0,3.384-1.521,3.384-3.387C64.402,161.282,62.882,159.764,61.019,159.764z M61.019,165.564c-1.168,0-2.146-0.83-2.37-1.938
			h2.853v-2.854c1.1,0.228,1.934,1.199,1.934,2.369C63.434,164.48,62.351,165.564,61.019,165.564z"/>
		<path fill="#051D6B" d="M59.567,157.831h-0.484c-1.867,0-3.384,1.521-3.384,3.383v0.483h3.867L59.567,157.831L59.567,157.831z
			 M58.6,160.73h-1.885c0.192-0.945,0.939-1.689,1.885-1.896V160.73z"/>
		<path fill="#051D6B" d="M53.764,155.866v14.565c0,1.063,0.868,1.935,1.935,1.935H67.3c1.067,0,1.935-0.867,1.935-1.935v-2.899
			h-2.901v-11.666H53.764z M54.733,170.432V156.83h10.636v13.604c0,0.352,0.092,0.687,0.262,0.965h-9.929
			C55.166,171.398,54.733,170.963,54.733,170.432z M68.268,168.499v1.938c0,0.521-0.433,0.965-0.965,0.965
			c-0.533,0-0.967-0.438-0.967-0.965v-1.938H68.268z"/>
		<path fill="#051D6B" d="M55.699,167.532H64.4v0.965h-8.701V167.532z"/>
		<path fill="#051D6B" d="M55.699,169.463H64.4v0.978h-8.701V169.463z"/>
	</g>
</g>
<g>
	<circle fill="#FFFFFF" cx="211.856" cy="163.676" r="12.5"/>
	<g id="Play_2_">
		<path fill="#051D6B" d="M217.773,162.844l-7.833-4.934c-0.23-0.139-0.521-0.111-0.734-0.111c-0.867,0-0.863,0.668-0.863,0.847
			v10.071c0,0.146-0.004,0.849,0.863,0.849c0.215,0,0.504,0.021,0.734-0.111l7.833-4.938c0.646-0.386,0.525-0.824,0.525-0.824
			S218.417,163.227,217.773,162.844z"/>
	</g>
</g>
<g>
	<g>
		<path fill="#051D6B" d="M109.586,162.729c0.113,0.73,0.685,1.687,1.625,2.019c0.386,0.133,0.808,0.133,1.193-0.004
			c0.925-0.336,1.514-1.271,1.631-2.015c0.124-0.021,0.287-0.188,0.462-0.813c0.241-0.854-0.016-0.979-0.233-0.957
			c0.041-0.108,0.073-0.229,0.093-0.354c0.368-2.207-0.719-2.277-0.719-2.277s-0.182-0.348-0.656-0.604
			c-0.317-0.188-0.759-0.342-1.341-0.289c-0.189,0.014-0.368,0.049-0.537,0.104l0,0c-0.213,0.074-0.412,0.188-0.589,0.312
			c-0.218,0.142-0.424,0.313-0.605,0.504c-0.287,0.297-0.543,0.678-0.654,1.146c-0.094,0.354-0.073,0.729,0.005,1.123l0,0
			c0.021,0.111,0.052,0.229,0.094,0.346c-0.219-0.021-0.474,0.106-0.233,0.97C109.299,162.543,109.461,162.715,109.586,162.729z"/>
		<path fill="#051D6B" d="M116.079,165.624c-1.323-0.34-2.396-1.095-2.396-1.095l-0.839,2.652l-0.157,0.494l-0.004-0.014
			l-0.137,0.43l-0.443-1.262c1.087-1.519-0.22-1.502-0.292-1.498c-0.073-0.004-1.38-0.021-0.293,1.498l-0.442,1.262l-0.137-0.43
			l-0.002,0.014l-0.158-0.494l-0.84-2.652c0,0-1.074,0.755-2.396,1.095c-0.986,0.25-1.033,1.396-0.994,1.951
			c0,0,0.056,0.764,0.113,1.1c0,0,1.927,1.25,5.151,1.252c3.226,0,5.151-1.252,5.151-1.252c0.057-0.336,0.114-1.1,0.114-1.1
			C117.112,167.014,117.065,165.874,116.079,165.624z"/>
	</g>
</g>
<g>
	<g>
		<path fill="#051D6B" d="M267.318,160.736h-2.104v-2.521c0-0.229-0.188-0.422-0.42-0.422h-8.399c-0.229,0-0.418,0.188-0.418,0.422
			v9.664c0,0.937,0.752,1.688,1.687,1.688h8.397c0.931,0,1.687-0.752,1.687-1.688v-6.724
			C267.742,160.924,267.55,160.736,267.318,160.736z M259.335,159.896h2.521c0.229,0,0.42,0.188,0.42,0.418
			c0,0.229-0.188,0.422-0.42,0.422h-2.521c-0.229,0-0.42-0.188-0.42-0.422C258.917,160.084,259.104,159.896,259.335,159.896z
			 M263.119,167.879h-5.041c-0.229,0-0.42-0.188-0.42-0.422c0-0.229,0.188-0.418,0.42-0.418h5.041c0.229,0,0.42,0.188,0.42,0.418
			C263.539,167.691,263.352,167.879,263.119,167.879z M263.119,166.198h-5.041c-0.229,0-0.42-0.188-0.42-0.421
			c0-0.229,0.188-0.42,0.42-0.42h5.041c0.229,0,0.42,0.188,0.42,0.42C263.539,166.008,263.352,166.198,263.119,166.198z
			 M263.119,164.518h-5.041c-0.229,0-0.42-0.188-0.42-0.42c0-0.229,0.188-0.43,0.42-0.43h5.041c0.229,0,0.42,0.188,0.42,0.43
			C263.539,164.329,263.352,164.518,263.119,164.518z M263.119,162.836h-5.041c-0.229,0-0.42-0.188-0.42-0.42
			c0-0.229,0.188-0.42,0.42-0.42h5.041c0.229,0,0.42,0.188,0.42,0.42C263.539,162.648,263.352,162.836,263.119,162.836z
			 M266.898,167.879c0,0.461-0.377,0.838-0.84,0.838s-0.848-0.377-0.848-0.838v-6.303h1.688V167.879L266.898,167.879z"/>
	</g>
</g>
<circle fill="#FFFFFF" cx="16" cy="164.116" r="12.5"/>
<g>
	<rect x="9.774" y="157.866" fill="#051D6B" width="3.224" height="3.127"/>
	<rect x="14.315" y="157.866" fill="#051D6B" width="3.224" height="3.127"/>
	<rect x="19.001" y="157.866" fill="#051D6B" width="3.224" height="3.127"/>
	<rect x="9.774" y="162.551" fill="#051D6B" width="3.224" height="3.125"/>
	<rect x="14.315" y="162.551" fill="#051D6B" width="3.224" height="3.125"/>
	<rect x="19.001" y="162.551" fill="#051D6B" width="3.224" height="3.125"/>
	<rect x="9.774" y="167.239" fill="#051D6B" width="3.224" height="3.128"/>
	<rect x="14.315" y="167.239" fill="#051D6B" width="3.224" height="3.128"/>
	<rect x="19.001" y="167.239" fill="#051D6B" width="3.224" height="3.128"/>
</g>
<g>
	<circle fill="#FFFFFF" cx="161.857" cy="164.047" r="12.5"/>
</g>
<g transform="translate(-1)">
	<g>
		<g>
			<path fill="#051D6B" d="M161.035,165.098c0.596,0.842,1.178,1.568,1.561,2.047c0.082,0.104,0.16,0.189,0.231,0.273l0.115,0.146
				c0.046,0.058,0.114,0.082,0.184,0.082c0.069,0,0.137-0.026,0.184-0.084l0.112-0.145c0.069-0.086,0.147-0.18,0.229-0.271
				c0.385-0.479,0.967-1.207,1.563-2.049c0.577-0.795,1.098-1.644,1.554-2.502c0.457-0.896,0.688-1.625,0.688-2.162
				c-0.005-1.146-0.461-2.244-1.271-3.063l-0.006-0.004v-0.002c-0.813-0.813-1.906-1.271-3.056-1.271
				c-1.147,0-2.25,0.459-3.064,1.271c-0.814,0.813-1.269,1.916-1.266,3.063c0,0.526,0.231,1.27,0.688,2.152
				C159.937,163.467,160.458,164.305,161.035,165.098z M161.422,158.486c0.451-0.451,1.064-0.703,1.703-0.701
				c0.132,0,0.241,0.104,0.241,0.236c0,0.139-0.109,0.242-0.241,0.242c-0.919,0-1.712,0.646-1.89,1.551
				c-0.177,0.896,0.304,1.803,1.151,2.146c0.851,0.354,1.83,0.063,2.338-0.709c0.51-0.765,0.411-1.771-0.241-2.431
				c-0.061-0.063-0.086-0.151-0.063-0.233c0.022-0.084,0.088-0.146,0.173-0.172c0.083-0.021,0.175,0.004,0.232,0.063
				c0.689,0.688,0.895,1.726,0.522,2.619c-0.371,0.896-1.249,1.479-2.223,1.479s-1.853-0.584-2.223-1.479
				C160.528,160.209,160.733,159.174,161.422,158.486z"/>
			<path fill="#051D6B" d="M169.833,168.982l-1.479-2.646c-0.049-0.084-0.138-0.135-0.235-0.133h-3.116
				c-0.378,0.5-0.722,0.938-0.977,1.246c-0.058,0.068-0.112,0.135-0.164,0.197h1.188c0.134,0,0.241,0.104,0.241,0.237
				c0,0.135-0.107,0.232-0.241,0.232h-1.917h-0.006h-0.006h-1.919c-0.133,0-0.242-0.104-0.242-0.232
				c0-0.143,0.107-0.237,0.242-0.237h1.187c-0.052-0.063-0.104-0.129-0.162-0.199c-0.254-0.313-0.599-0.744-0.977-1.244h-3.115
				c-0.098-0.002-0.187,0.049-0.235,0.131l-1.48,2.646c-0.039,0.063-0.039,0.146,0.003,0.225c0.049,0.082,0.137,0.131,0.232,0.129
				h12.946c0.097,0.002,0.186-0.047,0.234-0.129C169.873,169.135,169.873,169.051,169.833,168.982z M159.753,168.852h-1.925
				c-0.132,0-0.241-0.104-0.241-0.242c0-0.133,0.109-0.235,0.241-0.235h1.925c0.135,0,0.241,0.104,0.241,0.235
				C159.994,168.743,159.888,168.852,159.753,168.852z M160.437,167.782c-0.037,0.053-0.092,0.09-0.153,0.102
				c-0.063,0.021-0.128,0-0.182-0.023l-0.662-0.438h-0.889c-0.134,0-0.241-0.104-0.241-0.235c0-0.137,0.107-0.236,0.241-0.236h0.961
				c0.049,0,0.095,0.016,0.135,0.041l0.721,0.479c0.052,0.03,0.091,0.098,0.101,0.149
				C160.486,167.663,160.471,167.729,160.437,167.782z M166.012,167.889c-0.106,0-0.201-0.072-0.229-0.18
				c-0.032-0.103,0.007-0.215,0.095-0.271l0.724-0.479c0.039-0.021,0.086-0.033,0.132-0.033h0.962c0.133,0,0.24,0.104,0.24,0.234
				s-0.107,0.241-0.24,0.241h-0.89l-0.661,0.438C166.104,167.874,166.061,167.889,166.012,167.889z M168.419,168.852h-1.928
				c-0.132,0-0.241-0.104-0.241-0.242c0-0.133,0.109-0.235,0.241-0.235h1.928c0.132,0,0.241,0.104,0.241,0.235
				C168.659,168.743,168.551,168.852,168.419,168.852z"/>
		</g>
	</g>
</g>
<g>
	<path fill="#051D6B" d="M312.376,163.15h6.971c-0.256-3.732-3.229-6.717-6.971-6.978V163.15z"/>
	<path fill="#051D6B" d="M317.396,168.758c1.115-1.221,1.854-2.813,1.973-4.563h-6.543L317.396,168.758z"/>
	<path fill="#051D6B" d="M311.339,163.454v-7.271c-3.906,0.269-6.989,3.519-6.989,7.479c0,1.896,0.696,3.609,1.854,4.938
		L311.339,163.454z"/>
	<path fill="#051D6B" d="M311.707,164.551l-4.777,4.779c1.318,1.146,3.043,1.854,4.939,1.854c1.811,0,3.469-0.646,4.766-1.719
		L311.707,164.551z"/>
</g>
<g>
	<path fill="#5B5B5B" d="M118.088,68.86c-0.071-0.071-0.178-0.095-0.274-0.054c-0.091,0.037-0.156,0.13-0.156,0.229v1.342
		c-1.359,0.061-2.042,0.618-2.146,0.724c-0.688,0.56-1.157,1.344-1.325,2.219c-0.086,0.422-0.101,0.854-0.046,1.28V74.6
		c0,0.004,0.002,0.008,0.002,0.013l0.054,0.304c0.017,0.104,0.099,0.188,0.203,0.204c0.103,0.021,0.206-0.027,0.261-0.117
		l0.16-0.271c0.493-0.819,1.106-1.363,1.83-1.614c0.325-0.113,0.664-0.165,1.006-0.145v1.393c0,0.104,0.065,0.195,0.156,0.233
		c0.094,0.04,0.202,0.019,0.275-0.063l2.663-2.675c0.096-0.1,0.096-0.261,0-0.354L118.088,68.86z"/>
	<path fill="#5B5B5B" d="M119.902,76.204c-0.139,0-0.253,0.113-0.253,0.252v1.064c0,0.417-0.338,0.756-0.755,0.756h-8.246
		c-0.417,0-0.756-0.339-0.756-0.756v-6.002c0-0.417,0.339-0.755,0.756-0.755h1.741c0.14,0,0.252-0.114,0.252-0.251
		c0-0.146-0.114-0.248-0.252-0.248h-1.741c-0.697,0-1.26,0.561-1.26,1.259v6.002c0,0.688,0.564,1.26,1.26,1.26h8.246
		c0.695,0,1.261-0.563,1.261-1.26v-1.066C120.153,76.317,120.04,76.204,119.902,76.204z"/>
</g>
<g>
	<path fill="#5B5B5B" stroke="#5B5B5B" stroke-width="0.5" stroke-miterlimit="10" d="M182.058,0.119
		c-0.115-0.115-0.285-0.152-0.438-0.086c-0.146,0.063-0.248,0.208-0.248,0.373v2.146c-2.177,0.093-3.271,0.989-3.437,1.146
		c-1.101,0.895-1.852,2.149-2.121,3.55c-0.137,0.676-0.16,1.366-0.071,2.048v0.001c0,0.014,0.003,0.021,0.003,0.021l0.086,0.483
		c0.025,0.167,0.156,0.299,0.324,0.321c0.164,0.032,0.33-0.044,0.418-0.188l0.257-0.438c0.789-1.313,1.771-2.183,2.929-2.584
		c0.521-0.181,1.063-0.264,1.609-0.229v2.229c0,0.163,0.104,0.313,0.25,0.373c0.148,0.063,0.322,0.029,0.439-0.09l4.26-4.28
		c0.154-0.151,0.154-0.417,0-0.563L182.058,0.119z"/>
	<path fill="#5B5B5B" stroke="#5B5B5B" stroke-width="0.5" stroke-miterlimit="10" d="M184.958,11.871
		c-0.223,0-0.404,0.188-0.404,0.402v1.704c0,0.667-0.541,1.209-1.207,1.209h-13.196c-0.667,0-1.209-0.542-1.209-1.209V4.374
		c0-0.667,0.542-1.208,1.209-1.208h2.786c0.224,0,0.403-0.184,0.403-0.396c0-0.229-0.183-0.396-0.403-0.396h-2.786
		c-1.115,0-2.016,0.896-2.016,2.018v9.604c0,1.104,0.902,2.016,2.016,2.016h13.196c1.11,0,2.019-0.896,2.019-2.016v-1.71
		C185.36,12.051,185.179,11.871,184.958,11.871z"/>
</g>
<g>
	<g>
		<path fill="#5B5B5B" d="M137.911,71.717c1.329-1.194,3.317-1.22,4.664-0.124l-1.067,0.041c-0.138,0.013-0.245,0.119-0.239,0.265
			c0.005,0.134,0.116,0.231,0.248,0.231c0.004,0,0.006,0,0.009,0l1.639-0.062c0.134-0.006,0.239-0.113,0.239-0.248V71.8
			c0-0.003,0-0.006,0-0.009V71.79l0,0l-0.061-1.621c-0.005-0.138-0.121-0.244-0.257-0.23c-0.138,0.005-0.245,0.111-0.239,0.257
			l0.039,1.017c-0.667-0.545-1.489-0.856-2.368-0.902c-1.088-0.059-2.133,0.314-2.94,1.053c-1.11,1.005-1.581,2.531-1.228,3.983
			c0.028,0.112,0.128,0.188,0.241,0.188c0.02,0,0.039-0.001,0.059-0.007c0.132-0.033,0.215-0.167,0.182-0.308
			C136.523,73.943,136.935,72.599,137.911,71.717z"/>
		<path fill="#5B5B5B" d="M144.349,73.526c-0.033-0.133-0.167-0.215-0.3-0.188c-0.132,0.033-0.214,0.167-0.182,0.307
			c0.311,1.271-0.103,2.623-1.078,3.505c-0.687,0.62-1.546,0.925-2.402,0.925c-0.818,0-1.634-0.277-2.292-0.825l1.081-0.099
			c0.136-0.015,0.237-0.132,0.224-0.271c-0.013-0.137-0.133-0.229-0.271-0.224l-1.634,0.146c-0.136,0.021-0.237,0.141-0.224,0.271
			l0.147,1.634c0.011,0.129,0.12,0.229,0.247,0.229c0.007,0,0.014,0,0.022-0.002c0.136-0.021,0.237-0.14,0.224-0.271l-0.088-0.994
			c0.667,0.54,1.485,0.854,2.358,0.897c0.07,0.004,0.14,0.006,0.208,0.006c1.013,0,1.976-0.37,2.733-1.055
			C144.231,76.51,144.702,74.983,144.349,73.526z"/>
	</g>
</g>
<g>
	<path fill="#5B5B5B" d="M403.537,2.409c0.238,0,0.428-0.192,0.428-0.429c0-0.237-0.188-0.434-0.428-0.434
		c-4.963,0-8.996,4.039-8.996,9c0,1.021,0.17,2.021,0.5,2.971c0.156,0.451,0.352,0.896,0.582,1.32
		c0.059,0.104,0.113,0.199,0.174,0.3c0.176,0.297,0.371,0.587,0.58,0.861l0,0c1.721,2.254,4.33,3.548,7.16,3.548
		c4.961,0,8.994-4.034,8.994-8.998c0-2.05-0.707-4.057-1.994-5.647c-1.268-1.565-3.041-2.676-5.006-3.122
		c-0.229-0.054-0.457,0.091-0.512,0.325c-0.053,0.23,0.1,0.46,0.328,0.512c1.77,0.404,3.375,1.405,4.52,2.826
		c1.166,1.438,1.805,3.253,1.805,5.107c0,4.49-3.645,8.144-8.135,8.144c-2.434,0-4.688-1.059-6.238-2.913l2.904-2.776l0.816,0.882
		c0.4,0.432,0.971,0.688,1.559,0.697c0.594,0.01,1.172-0.222,1.586-0.638l2.734-2.704l0.732,0.737
		c0.201,0.204,0.516,0.266,0.787,0.152c0.27-0.108,0.445-0.373,0.445-0.665V7.705c0-0.479-0.396-0.867-0.867-0.867h-3.76
		c-0.303,0-0.564,0.176-0.668,0.444c-0.111,0.274-0.059,0.578,0.146,0.787l0.73,0.729l-1.801,1.777l-0.799-0.86
		c-0.398-0.433-0.947-0.683-1.531-0.695c-0.592-0.021-1.15,0.194-1.574,0.601l-3.1,2.96c-0.174-0.662-0.26-1.343-0.26-2.035
		C395.396,6.06,399.048,2.409,403.537,2.409z M399.349,10.242c0.258-0.246,0.598-0.375,0.955-0.365
		c0.354,0.014,0.688,0.159,0.934,0.423l1.098,1.185c0.076,0.088,0.193,0.137,0.305,0.138c0.117,0.002,0.23-0.04,0.314-0.122
		l2.223-2.186c0.135-0.139,0.211-0.317,0.211-0.511c0-0.191-0.07-0.375-0.207-0.513l-0.596-0.596h3.428
		c0.006,0,0.016,0.002,0.016,0.006v3.43l-0.605-0.599c-0.281-0.278-0.73-0.28-1.018-0.001l-2.842,2.803
		c-0.242,0.249-0.602,0.392-0.959,0.387c-0.354-0.009-0.695-0.157-0.939-0.424l-1.113-1.197c-0.08-0.083-0.188-0.134-0.301-0.139
		c-0.111-0.004-0.23,0.036-0.314,0.115l-3.145,3.006c-0.338-0.499-0.615-1.033-0.834-1.594L399.349,10.242z"/>
</g>
<g>
	<path fill="#5B5B5B" stroke="#5B5B5B" stroke-width="0.75" stroke-miterlimit="10" d="M403.535,35.948
		c0.238,0,0.432-0.19,0.432-0.429c0-0.237-0.188-0.431-0.432-0.431c-4.963,0-8.996,4.038-8.996,9c0,1.022,0.168,2.021,0.5,2.971
		c0.156,0.454,0.354,0.896,0.59,1.321c0.049,0.102,0.107,0.198,0.164,0.299c0.178,0.296,0.373,0.587,0.582,0.859l0,0
		c1.717,2.256,4.33,3.551,7.162,3.551c4.963,0,8.996-4.035,8.996-9c0-2.051-0.709-4.058-1.99-5.649
		c-1.27-1.569-3.045-2.678-5.004-3.121c-0.229-0.055-0.459,0.09-0.51,0.321c-0.061,0.229,0.092,0.46,0.32,0.512
		c1.771,0.405,3.379,1.408,4.521,2.824c1.166,1.442,1.803,3.256,1.803,5.112c0,4.49-3.646,8.143-8.141,8.143
		c-2.439,0-4.689-1.057-6.238-2.913l2.906-2.773l0.813,0.881c0.4,0.434,0.973,0.688,1.563,0.698c0.588,0.011,1.168-0.22,1.584-0.639
		l2.729-2.702l0.734,0.738c0.207,0.206,0.52,0.267,0.787,0.149c0.273-0.108,0.449-0.373,0.449-0.664v-3.761
		c0-0.479-0.389-0.869-0.869-0.869h-3.76c-0.291,0-0.557,0.175-0.666,0.447c-0.113,0.272-0.055,0.576,0.15,0.786l0.736,0.731
		l-1.801,1.776l-0.809-0.86c-0.395-0.434-0.939-0.684-1.521-0.697c-0.6-0.021-1.148,0.196-1.574,0.6l-3.105,2.96
		c-0.172-0.664-0.258-1.341-0.258-2.036C395.396,39.602,399.046,35.948,403.535,35.948z"/>
</g>
<g>
	<path fill="#5B5B5B" d="M433.203,9.121c1.156,0,2.096-0.939,2.096-2.097s-0.938-2.098-2.096-2.098s-2.096,0.94-2.096,2.098
		S432.046,9.121,433.203,9.121z M433.203,6.157c0.479,0,0.867,0.389,0.867,0.867c0,0.478-0.391,0.867-0.867,0.867
		c-0.479,0-0.867-0.39-0.867-0.867C432.335,6.546,432.724,6.157,433.203,6.157z"/>
	<path fill="#5B5B5B" d="M443.917,1h-19.455c-0.422,0-0.766,0.344-0.766,0.768v16.467c0,0.422,0.344,0.766,0.766,0.766h19.455
		c0.424,0,0.768-0.344,0.768-0.766V1.766C444.685,1.344,444.341,1,443.917,1z M443.455,2.23v9.73l-3.867-3.868
		c-0.252-0.252-0.662-0.252-0.914,0l-5.471,5.471l-3.494-3.494c-0.121-0.123-0.285-0.19-0.457-0.19
		c-0.174,0-0.336,0.067-0.457,0.189l-3.867,3.867V2.23H443.455z M424.927,17.77v-2.095l4.324-4.324l3.494,3.494
		c0.121,0.121,0.285,0.188,0.457,0.188c0.174,0,0.336-0.067,0.457-0.188l5.471-5.471l4.324,4.325v4.07H424.927z"/>
</g>
<g>
	<path fill="#5B5B5B" d="M424.056,47.789l4.738-4.737c0.121-0.122,0.283-0.188,0.457-0.188c0.172,0,0.336,0.067,0.457,0.188
		l3.494,3.494l5.471-5.47c0.252-0.252,0.662-0.252,0.914,0l4.736,4.737h0.354V34.749c0-0.422-0.344-0.767-0.766-0.767H424.46
		c-0.424,0-0.768,0.344-0.768,0.767V47.79L424.056,47.789L424.056,47.789z M433.203,37.91c1.156,0,2.096,0.941,2.096,2.097
		c0,1.156-0.938,2.097-2.096,2.097s-2.096-0.94-2.096-2.097C431.107,38.851,432.046,37.91,433.203,37.91z"/>
	<path fill="#5B5B5B" d="M433.203,40.874c0.479,0,0.867-0.389,0.867-0.867s-0.391-0.866-0.867-0.866
		c-0.479,0-0.867,0.389-0.867,0.866C432.335,40.485,432.724,40.874,433.203,40.874z"/>
	<path fill="#5B5B5B" d="M444.07,47.043c-0.17,0-0.324-0.068-0.436-0.18l-4.506-4.505l-5.471,5.47
		c-0.121,0.122-0.283,0.189-0.457,0.189c-0.172,0-0.334-0.067-0.457-0.19l-3.494-3.494l-4.504,4.504
		c-0.111,0.111-0.271,0.181-0.439,0.181h-0.611v2.196c0,0.422,0.344,0.767,0.768,0.767h19.455c0.422,0,0.766-0.345,0.766-0.767
		v-4.173h-0.609v0.002H444.07z"/>
</g>
<g id="surface1_1_">
	<path fill="#5B5B5B" d="M428.607,97.793c-0.084,0.216-0.133,0.451-0.133,0.697s0.049,0.481,0.133,0.697h8.807
		c0.086-0.216,0.133-0.451,0.133-0.697s-0.047-0.481-0.133-0.697H428.607z"/>
	<path fill="#5B5B5B" d="M433.009,85.025c-3.582,0-6.494,2.914-6.494,6.496c0,2.062,0.971,3.985,2.615,5.211v0.063h1.963v-2.404
		l-0.879-0.878c-0.236-0.237-0.236-0.624,0-0.863c0.24-0.238,0.625-0.238,0.863,0l1.057,1.056c0.113,0.115,0.182,0.271,0.182,0.434
		v2.657h1.395v-2.657c0-0.163,0.064-0.317,0.178-0.434l1.063-1.056c0.23-0.238,0.625-0.238,0.855,0c0.238,0.239,0.238,0.625,0,0.863
		l-0.875,0.878v2.404h1.959v-0.063c1.646-1.226,2.617-3.149,2.617-5.211C439.505,87.939,436.591,85.025,433.009,85.025z"/>
	<path fill="#5B5B5B" d="M433.009,103.025c1.572,0,2.881-1.129,3.168-2.616h-6.334C430.13,101.896,431.441,103.025,433.009,103.025z
		"/>
</g>
<g id="surface1_2_">
	<path fill="none" stroke="#5B5B5B" stroke-width="0.75" stroke-miterlimit="10" d="M428.607,72.792
		c-0.084,0.217-0.133,0.452-0.133,0.698s0.049,0.481,0.133,0.698h8.807c0.086-0.217,0.133-0.452,0.133-0.698
		s-0.047-0.481-0.133-0.698H428.607z"/>
	<path fill="none" stroke="#5B5B5B" stroke-width="0.75" stroke-miterlimit="10" d="M433.009,60.025
		c-3.582,0-6.494,2.914-6.494,6.497c0,2.061,0.971,3.984,2.615,5.21v0.064h1.963v-2.405l-0.879-0.878
		c-0.236-0.238-0.236-0.625,0-0.863c0.24-0.238,0.625-0.238,0.863,0l1.057,1.056c0.113,0.115,0.182,0.271,0.182,0.433v2.658h1.395
		v-2.658c0-0.163,0.064-0.317,0.178-0.433l1.063-1.056c0.23-0.238,0.625-0.238,0.855,0c0.238,0.239,0.238,0.625,0,0.863
		l-0.875,0.878v2.405h1.959v-0.064c1.646-1.226,2.617-3.149,2.617-5.21C439.505,62.939,436.591,60.025,433.009,60.025z"/>
	<path fill="none" stroke="#5B5B5B" stroke-width="0.75" stroke-miterlimit="10" d="M433.009,78.025
		c1.572,0,2.881-1.129,3.168-2.616h-6.334C430.13,76.896,431.441,78.025,433.009,78.025z"/>
</g>
<g>
	<path fill="#5B5B5B" d="M411.488,95.293c0,0.799,0,1.601,0,2.4c-1.488,0.649-9.33,0.594-11.066-0.08c0-0.799,0-1.6,0-2.4
		C404.103,95.857,407.785,95.842,411.488,95.293z"/>
	<path fill="#5B5B5B" d="M408.72,91.485c-0.76,0.023-1.52,0.063-2.279,0.069c-1.617,0.014-3.23-0.057-4.832-0.298
		c-0.361-0.055-0.719-0.14-1.076-0.205c-0.098-0.017-0.121-0.061-0.121-0.152c0.004-0.869,0.002-1.738,0.006-2.606
		c0.002-0.263,0.201-0.39,0.398-0.496c0.439-0.237,0.924-0.363,1.414-0.461c1.445-0.288,2.908-0.363,4.381-0.316
		c0.563,0.018,1.125,0.067,1.688,0.104c0.055,0.003,0.111,0.016,0.176,0.024c0,0.204,0,0.403,0,0.612
		c-0.395-0.027-0.781-0.063-1.172-0.08c-1.646-0.072-3.291-0.059-4.918,0.258c-0.203,0.04-0.4,0.106-0.598,0.176
		c-0.131,0.047-0.301,0.1-0.303,0.263c-0.002,0.173,0.172,0.234,0.309,0.272c0.367,0.102,0.734,0.208,1.107,0.266
		c1.352,0.208,2.711,0.227,4.074,0.185c0.061-0.002,0.119,0,0.189,0c0.004,0.04,0.008,0.072,0.008,0.106
		c0.002,0.329,0.111,0.615,0.332,0.86c0.41,0.458,0.816,0.917,1.227,1.375C408.726,91.456,408.724,91.471,408.72,91.485z"/>
	<path fill="#5B5B5B" d="M411.492,98.498c0,0.506,0.008,1.008-0.006,1.51c-0.004,0.083-0.086,0.194-0.162,0.238
		c-0.193,0.109-0.396,0.209-0.605,0.274c-0.771,0.237-1.568,0.331-2.367,0.402c-1.313,0.117-2.627,0.132-3.941,0.061
		c-1.08-0.061-2.158-0.15-3.203-0.458c-0.211-0.063-0.412-0.167-0.611-0.268c-0.131-0.065-0.184-0.187-0.184-0.341
		c0.008-0.452,0.004-0.903,0.004-1.355c0-0.051,0-0.101,0-0.142C404.103,99.062,407.787,99.05,411.492,98.498z"/>
	<path fill="#5B5B5B" d="M400.414,91.797c2.479,0.502,4.961,0.549,7.488,0.47c-0.078,0.05-0.123,0.079-0.168,0.107
		c-0.416,0.276-0.594,0.761-0.477,1.301c0.096,0.447,0.463,0.8,0.936,0.865c0.191,0.027,0.395,0.008,0.592,0.001
		c0.715-0.023,1.43-0.052,2.141-0.079c0.088,0.146-0.014,0.161-0.107,0.171c-0.645,0.075-1.287,0.165-1.936,0.218
		c-1.48,0.12-2.963,0.132-4.445,0.063c-1.295-0.059-2.584-0.167-3.852-0.45c-0.139-0.03-0.176-0.085-0.174-0.221
		c0.006-0.762,0.002-1.523,0.002-2.285C400.414,91.908,400.414,91.857,400.414,91.797z"/>
	<path fill="#5B5B5B" d="M412.207,93.712c-0.141,0-0.307-0.005-0.473,0.001c-1.111,0.041-2.223,0.085-3.334,0.125
		c-0.275,0.011-0.445-0.166-0.457-0.456s0.145-0.466,0.432-0.478c1.211-0.048,2.426-0.094,3.637-0.141c0.072-0.004,0.145,0,0.258,0
		c-0.104-0.111-0.18-0.194-0.258-0.276c-0.076-0.081-0.154-0.16-0.23-0.242c-0.209-0.225-0.211-0.537-0.008-0.739
		c0.209-0.208,0.525-0.202,0.746,0.023c0.367,0.374,0.727,0.753,1.09,1.13c0.08,0.084,0.164,0.166,0.24,0.253
		c0.191,0.217,0.189,0.513-0.018,0.715c-0.424,0.416-0.854,0.828-1.285,1.235c-0.215,0.203-0.527,0.191-0.727-0.014
		c-0.193-0.202-0.188-0.516,0.014-0.729C411.96,93.985,412.085,93.844,412.207,93.712z"/>
	<path fill="#5B5B5B" d="M409.205,89.298c0-0.053,0-0.104,0-0.158c0-1.208,0-2.417,0.002-3.625c0-0.338,0.166-0.5,0.496-0.489
		c0.281,0.009,0.436,0.173,0.436,0.473c0,1.184,0,2.366,0,3.549c0,0.096,0,0.189,0,0.324c0.189-0.168,0.348-0.31,0.504-0.448
		c0.256-0.223,0.572-0.219,0.773,0.008c0.199,0.224,0.162,0.54-0.092,0.767c-0.445,0.4-0.893,0.799-1.34,1.197
		c-0.285,0.252-0.572,0.234-0.824-0.046c-0.379-0.426-0.758-0.85-1.135-1.274c-0.137-0.155-0.166-0.335-0.098-0.526
		c0.068-0.193,0.219-0.303,0.42-0.329c0.18-0.022,0.33,0.042,0.449,0.175c0.125,0.138,0.25,0.276,0.373,0.416
		C409.181,89.304,409.195,89.301,409.205,89.298z"/>
</g>
<g>
	<path fill="none" stroke="#5B5B5B" stroke-width="0.7" stroke-miterlimit="10" d="M411.486,70.955c0,0.888,0,1.779,0,2.668
		c-1.486,0.724-9.33,0.661-11.066-0.089c0-0.889,0-1.779,0-2.669C404.101,71.582,407.785,71.565,411.486,70.955z"/>
	<path fill="none" stroke="#5B5B5B" stroke-width="0.7" stroke-miterlimit="10" d="M408.728,67.542
		c-0.76,0.026-1.52,0.067-2.279,0.074c-1.617,0.015-3.23-0.059-4.832-0.317c-0.359-0.058-0.717-0.148-1.076-0.219
		c-0.096-0.018-0.121-0.064-0.119-0.164c0.004-0.928,0-1.854,0.004-2.782c0.002-0.28,0.201-0.417,0.398-0.528
		c0.441-0.255,0.926-0.39,1.414-0.492c1.445-0.307,2.91-0.389,4.383-0.338c0.563,0.019,1.125,0.073,1.688,0.112
		c0.055,0.004,0.109,0.017,0.176,0.025c0,0.218,0,0.433,0,0.654c-0.396-0.03-0.783-0.069-1.172-0.087
		c-1.646-0.077-3.293-0.063-4.92,0.274c-0.201,0.043-0.4,0.115-0.598,0.189c-0.131,0.049-0.301,0.106-0.301,0.28
		c-0.004,0.185,0.172,0.251,0.309,0.292c0.365,0.107,0.732,0.222,1.107,0.283c1.35,0.223,2.711,0.241,4.074,0.196
		c0.059-0.002,0.119,0,0.189,0c0.002,0.042,0.006,0.079,0.006,0.114c0.002,0.351,0.113,0.657,0.332,0.918
		c0.412,0.488,0.818,0.979,1.229,1.469C408.736,67.51,408.734,67.526,408.728,67.542z"/>
	<path fill="none" stroke="#5B5B5B" stroke-width="0.7" stroke-miterlimit="10" d="M411.494,73.93c0,0.563,0.008,1.12-0.008,1.679
		c-0.002,0.092-0.084,0.216-0.162,0.265c-0.191,0.122-0.396,0.233-0.605,0.306c-0.77,0.264-1.566,0.367-2.367,0.447
		c-1.313,0.13-2.627,0.146-3.939,0.066c-1.082-0.066-2.16-0.167-3.203-0.51c-0.213-0.07-0.414-0.187-0.611-0.298
		c-0.131-0.072-0.186-0.206-0.184-0.379c0.006-0.503,0.002-1.005,0.002-1.508c0-0.056,0-0.11,0-0.157
		C404.105,74.558,407.787,74.545,411.494,73.93z"/>
	<path fill="none" stroke="#5B5B5B" stroke-width="0.7" stroke-miterlimit="10" d="M400.414,67.557
		c2.479,0.559,4.961,0.609,7.488,0.521c-0.078,0.056-0.123,0.087-0.168,0.121c-0.416,0.307-0.594,0.846-0.477,1.447
		c0.096,0.498,0.463,0.889,0.936,0.962c0.191,0.03,0.395,0.009,0.592,0.001c0.715-0.027,1.43-0.059,2.141-0.088
		c0.088,0.163-0.014,0.179-0.107,0.189c-0.645,0.083-1.287,0.185-1.936,0.241c-1.48,0.133-2.963,0.146-4.445,0.071
		c-1.295-0.066-2.584-0.188-3.852-0.5c-0.139-0.034-0.176-0.094-0.174-0.246c0.006-0.847,0.002-1.694,0.002-2.542
		C400.414,67.68,400.414,67.624,400.414,67.557z"/>
	<path fill="none" stroke="#5B5B5B" stroke-width="0.7" stroke-miterlimit="10" d="M412.207,69.687
		c-0.141,0-0.307-0.006-0.473,0.001c-1.111,0.045-2.223,0.095-3.334,0.14c-0.275,0.011-0.445-0.184-0.457-0.507
		c-0.012-0.322,0.145-0.52,0.432-0.532c1.211-0.054,2.426-0.104,3.637-0.156c0.072-0.003,0.145,0,0.258,0
		c-0.104-0.124-0.18-0.215-0.258-0.307c-0.076-0.09-0.154-0.178-0.23-0.27c-0.209-0.25-0.211-0.598-0.008-0.821
		c0.209-0.231,0.525-0.227,0.746,0.024c0.367,0.416,0.727,0.838,1.09,1.258c0.08,0.094,0.164,0.185,0.24,0.281
		c0.191,0.241,0.189,0.57-0.018,0.795c-0.424,0.463-0.854,0.921-1.285,1.374c-0.215,0.227-0.527,0.213-0.727-0.015
		c-0.193-0.224-0.188-0.573,0.014-0.81C411.96,69.99,412.085,69.833,412.207,69.687z"/>
	<path fill="none" stroke="#5B5B5B" stroke-width="0.7" stroke-miterlimit="10" d="M409.205,64.778c0-0.06,0-0.117,0-0.177
		c0-1.345,0-2.688,0.002-4.031c0-0.375,0.166-0.555,0.496-0.544c0.281,0.01,0.436,0.191,0.436,0.525c0,1.315,0,2.632,0,3.946
		c0,0.105,0,0.211,0,0.361c0.189-0.188,0.348-0.345,0.504-0.499c0.256-0.248,0.572-0.244,0.773,0.007
		c0.199,0.25,0.162,0.6-0.092,0.854c-0.445,0.444-0.893,0.889-1.34,1.33c-0.285,0.28-0.572,0.263-0.824-0.052
		c-0.379-0.472-0.758-0.943-1.135-1.417c-0.137-0.172-0.166-0.373-0.098-0.585c0.068-0.216,0.219-0.336,0.42-0.365
		c0.18-0.025,0.33,0.047,0.449,0.193c0.125,0.153,0.25,0.308,0.373,0.462C409.181,64.785,409.195,64.781,409.205,64.778z"/>
</g>
<g>
	<path fill="#5B5B5B" stroke="#5B5B5B" stroke-width="0.25" stroke-miterlimit="10" d="M368.52,90.62h2.562
		c0,1.415-1.147,2.562-2.562,2.562c-1.415,0-2.563-1.147-2.563-2.562c0-1.415,1.147-2.562,2.563-2.562V90.62L368.52,90.62z"/>
	<path fill="#5B5B5B" stroke="#5B5B5B" stroke-width="0.25" stroke-miterlimit="10" d="M369.044,86.617v3.419h3.419
		C372.463,88.148,370.933,86.617,369.044,86.617z"/>
	<path fill="#5B5B5B" stroke="#5B5B5B" stroke-width="0.25" stroke-miterlimit="10" d="M373.449,88.014v-1.621l1.934,1.933h-1.621
		C373.589,88.327,373.449,88.187,373.449,88.014z"/>
</g>
<rect x="377.94" y="92.47" fill="#5B5B5B" stroke="#5B5B5B" stroke-width="0.25" stroke-miterlimit="10" width="1.124" height="7.888"/>
<rect x="374.592" y="94.515" fill="#5B5B5B" stroke="#5B5B5B" stroke-width="0.25" stroke-miterlimit="10" width="1.222" height="5.938"/>
<rect x="371.439" y="96.702" fill="#5B5B5B" stroke="#5B5B5B" stroke-width="0.25" stroke-miterlimit="10" width="1.104" height="3.751"/>
<rect x="368.104" y="98.452" fill="#5B5B5B" stroke="#5B5B5B" stroke-width="0.25" stroke-miterlimit="10" width="1.225" height="2.001"/>
<g>
	<path fill="#5B5B5B" stroke="#5B5B5B" stroke-width="0.5" stroke-miterlimit="10" d="M271.486,43.046c0-4.412-3.59-8-8.002-8
		c-4.406,0-8,3.589-8,8c0,2.33,1.002,4.438,2.602,5.896l-0.008,0.014l0.258,0.218c0.021,0.021,0.035,0.021,0.051,0.042
		c0.146,0.106,0.281,0.229,0.437,0.326c0.063,0.027,0.104,0.063,0.146,0.104c0.146,0.104,0.313,0.208,0.479,0.307
		c0.035,0.021,0.063,0.042,0.104,0.063c0.182,0.104,0.354,0.189,0.553,0.275c0.016,0.014,0.021,0.021,0.041,0.021
		c0.604,0.283,1.256,0.487,1.938,0.611c0.021,0.005,0.028,0.008,0.053,0.011c0.212,0.038,0.43,0.063,0.646,0.084
		c0.021,0.004,0.063,0.004,0.076,0.008c0.219,0.021,0.438,0.028,0.646,0.028c0.219,0,0.438-0.019,0.646-0.028
		c0.021-0.002,0.06-0.004,0.084-0.007c0.216-0.021,0.425-0.049,0.636-0.083c0.021-0.004,0.034-0.006,0.063-0.012
		c0.672-0.118,1.313-0.321,1.909-0.604c0.021-0.012,0.046-0.021,0.063-0.021c0.185-0.083,0.354-0.18,0.521-0.271
		c0.043-0.021,0.082-0.05,0.13-0.07c0.146-0.096,0.313-0.188,0.459-0.29c0.063-0.028,0.104-0.065,0.153-0.104
		c0.131-0.095,0.256-0.188,0.375-0.285c0.021-0.021,0.063-0.042,0.088-0.063l0.271-0.226l-0.011-0.007
		C270.479,47.499,271.486,45.389,271.486,43.046z M256.066,43.046c0-4.091,3.328-7.417,7.418-7.417c4.096,0,7.418,3.328,7.418,7.417
		c0,2.205-0.969,4.188-2.5,5.547c-0.084-0.06-0.17-0.104-0.258-0.148l-2.465-1.229c-0.229-0.104-0.354-0.333-0.354-0.58v-0.856
		c0.057-0.064,0.109-0.146,0.18-0.233c0.313-0.445,0.574-0.945,0.769-1.484c0.36-0.182,0.604-0.544,0.604-0.956v-1.037
		c0-0.255-0.094-0.496-0.258-0.688v-1.357c0.017-0.146,0.063-1.006-0.557-1.703c-0.529-0.611-1.396-0.926-2.574-0.926
		c-1.182,0-2.051,0.313-2.58,0.926c-0.615,0.698-0.563,1.556-0.557,1.702v1.354c-0.164,0.191-0.258,0.438-0.258,0.688v1.029
		c0,0.313,0.146,0.618,0.396,0.813c0.229,0.929,0.719,1.622,0.896,1.854v0.852c0,0.229-0.134,0.449-0.341,0.563l-2.301,1.253
		c-0.074,0.042-0.146,0.085-0.225,0.146C257.021,47.205,256.066,45.236,256.066,43.046z"/>
	<path fill="#5B5B5B" stroke="#5B5B5B" stroke-width="0.5" stroke-miterlimit="10" d="M271.484,8.002c0-4.412-3.588-8-8-8
		c-4.406,0-8,3.588-8,8c0,2.33,1.002,4.438,2.602,5.896l-0.008,0.007l0.258,0.226c0.021,0.021,0.035,0.021,0.056,0.04
		c0.146,0.107,0.276,0.229,0.437,0.319c0.063,0.034,0.104,0.068,0.145,0.104c0.152,0.104,0.314,0.214,0.48,0.313
		c0.032,0.021,0.067,0.042,0.104,0.063c0.18,0.104,0.354,0.189,0.551,0.284c0.021,0.006,0.021,0.017,0.041,0.021
		c0.604,0.275,1.256,0.481,1.938,0.606c0.021,0.002,0.028,0.01,0.054,0.016c0.212,0.035,0.431,0.063,0.646,0.084
		c0.021,0.004,0.063,0.005,0.073,0.008c0.22,0.021,0.438,0.021,0.646,0.021c0.222,0,0.438-0.012,0.646-0.021
		c0.021-0.002,0.061-0.004,0.084-0.007c0.215-0.021,0.424-0.057,0.637-0.083c0.021-0.005,0.033-0.009,0.055-0.018
		c0.671-0.116,1.313-0.315,1.91-0.604c0.021-0.011,0.045-0.021,0.063-0.023c0.181-0.084,0.354-0.184,0.521-0.271
		c0.043-0.021,0.082-0.05,0.129-0.074c0.146-0.092,0.313-0.188,0.459-0.291c0.062-0.028,0.104-0.063,0.158-0.104
		c0.127-0.098,0.252-0.188,0.375-0.284c0.021-0.021,0.061-0.041,0.084-0.063l0.271-0.223l-0.014-0.007
		C270.479,12.454,271.484,10.344,271.484,8.002z M256.066,8.002c0-4.09,3.33-7.418,7.418-7.418c4.096,0,7.418,3.328,7.418,7.418
		c0,2.204-0.969,4.188-2.5,5.546c-0.084-0.063-0.17-0.104-0.258-0.149l-2.465-1.229c-0.229-0.105-0.354-0.333-0.354-0.58V10.73
		c0.055-0.07,0.107-0.146,0.18-0.238c0.313-0.442,0.572-0.943,0.767-1.482c0.36-0.183,0.604-0.542,0.604-0.952V7.01
		c0-0.252-0.094-0.491-0.258-0.688V4.959c0.016-0.146,0.063-1.002-0.559-1.706c-0.527-0.604-1.396-0.922-2.58-0.922
		c-1.176,0-2.043,0.313-2.572,0.921c-0.617,0.703-0.563,1.563-0.559,1.707v1.354c-0.164,0.188-0.26,0.438-0.26,0.688v1.032
		c0,0.313,0.146,0.609,0.396,0.813c0.229,0.922,0.719,1.614,0.895,1.854v0.843c0,0.237-0.143,0.456-0.352,0.569l-2.301,1.254
		c-0.072,0.041-0.146,0.086-0.229,0.139C257.021,12.159,256.066,10.19,256.066,8.002z M267.837,14.005
		c-0.104,0.073-0.203,0.146-0.313,0.214c-0.049,0.031-0.099,0.063-0.146,0.102c-0.137,0.084-0.272,0.167-0.418,0.242
		c-0.026,0.021-0.063,0.024-0.094,0.051c-0.328,0.168-0.668,0.313-1.021,0.437c-0.021,0.008-0.021,0.018-0.033,0.021
		c-0.188,0.063-0.359,0.107-0.563,0.157h-0.002c-0.188,0.049-0.381,0.085-0.563,0.112c-0.006,0-0.021,0.001-0.021,0.002
		c-0.188,0.021-0.354,0.057-0.545,0.063c-0.033,0.002-0.063,0.004-0.104,0.007c-0.188,0.021-0.354,0.022-0.556,0.022
		c-0.188,0-0.358-0.018-0.553-0.023c-0.021-0.001-0.064-0.004-0.105-0.007c-0.188-0.021-0.36-0.038-0.553-0.063
		c-0.016,0-0.021-0.002-0.021-0.004c-0.387-0.063-0.77-0.158-1.133-0.278c-0.02-0.009-0.021-0.013-0.029-0.021
		c-0.188-0.063-0.354-0.132-0.541-0.208c-0.004,0-0.006-0.001-0.008-0.001c-0.168-0.063-0.332-0.146-0.492-0.229
		c-0.021-0.021-0.047-0.021-0.063-0.029c-0.146-0.079-0.295-0.165-0.438-0.254c-0.044-0.027-0.085-0.061-0.128-0.082
		c-0.135-0.085-0.268-0.185-0.395-0.271c-0.021-0.014-0.021-0.021-0.039-0.021c0.018-0.006,0.021-0.021,0.021-0.021l2.308-1.254
		c0.396-0.217,0.646-0.63,0.646-1.083v-1.05l-0.063-0.082c-0.01-0.007-0.643-0.771-0.873-1.813L261,8.504l-0.104-0.063
		c-0.146-0.091-0.229-0.235-0.229-0.397v-1.04c0-0.135,0.063-0.261,0.162-0.354l0.104-0.086v-1.62l-0.002-0.039
		c-0.012-0.008-0.096-0.699,0.396-1.271c0.42-0.479,1.146-0.723,2.146-0.723c0.995,0,1.721,0.241,2.146,0.717
		c0.479,0.563,0.4,1.271,0.398,1.274l-0.002,1.649l0.104,0.088c0.104,0.102,0.16,0.228,0.16,0.354V8.03
		c0,0.208-0.146,0.396-0.354,0.458l-0.146,0.046L265.74,8.68c-0.174,0.525-0.42,1.021-0.73,1.464
		c-0.067,0.104-0.145,0.203-0.219,0.271l-0.063,0.083v1.076c0,0.469,0.271,0.891,0.688,1.1l2.463,1.231
		c0.021,0.008,0.033,0.016,0.058,0.021C267.9,13.959,267.871,13.981,267.837,14.005z"/>
	<path fill="#5B5B5B" stroke="#5B5B5B" stroke-width="0.5" stroke-miterlimit="10" d="M377.486,44.084c0-4.412-3.59-8-8.002-8
		c-4.406,0-8,3.589-8,8c0,2.33,1.002,4.438,2.602,5.896l-0.008,0.014l0.258,0.218c0.021,0.021,0.035,0.021,0.051,0.042
		c0.146,0.106,0.281,0.229,0.439,0.326c0.059,0.027,0.104,0.063,0.145,0.104c0.148,0.104,0.314,0.208,0.48,0.307
		c0.025,0.021,0.063,0.042,0.104,0.063c0.176,0.104,0.355,0.19,0.547,0.276c0.021,0.006,0.023,0.021,0.041,0.021
		c0.605,0.279,1.266,0.481,1.939,0.605c0.018,0.007,0.031,0.014,0.053,0.017c0.211,0.038,0.424,0.063,0.646,0.084
		c0.02,0.004,0.059,0.004,0.068,0.008c0.227,0.021,0.439,0.026,0.646,0.026c0.219,0,0.438-0.017,0.645-0.026
		c0.023-0.002,0.063-0.004,0.084-0.007c0.223-0.021,0.432-0.053,0.643-0.083c0.02-0.004,0.035-0.006,0.059-0.018
		c0.67-0.112,1.314-0.315,1.91-0.604c0.02-0.014,0.045-0.021,0.063-0.024c0.189-0.083,0.355-0.175,0.521-0.271
		c0.043-0.021,0.082-0.051,0.129-0.07c0.148-0.096,0.314-0.188,0.459-0.29c0.064-0.035,0.105-0.07,0.154-0.104
		c0.131-0.1,0.256-0.188,0.375-0.285c0.02-0.021,0.063-0.042,0.088-0.063l0.27-0.226l-0.01-0.007
		C376.476,48.537,377.486,46.427,377.486,44.084z M362.066,44.084c0-4.091,3.324-7.417,7.418-7.417c4.096,0,7.418,3.328,7.418,7.417
		c0,2.205-0.973,4.188-2.5,5.547c-0.084-0.06-0.17-0.104-0.262-0.148l-2.465-1.229c-0.229-0.105-0.354-0.333-0.354-0.58v-0.858
		c0.057-0.064,0.104-0.146,0.18-0.233c0.316-0.447,0.574-0.947,0.771-1.487c0.354-0.179,0.604-0.543,0.604-0.956v-1.04
		c0-0.252-0.094-0.492-0.258-0.688v-1.354c0.016-0.146,0.063-1.005-0.551-1.706c-0.535-0.606-1.402-0.923-2.58-0.923
		c-1.186,0-2.045,0.313-2.58,0.923c-0.615,0.701-0.564,1.561-0.551,1.705V42.4c-0.164,0.188-0.271,0.438-0.271,0.688v1.032
		c0,0.313,0.146,0.618,0.396,0.813c0.229,0.929,0.719,1.622,0.895,1.854v0.844c0,0.237-0.129,0.455-0.336,0.57l-2.301,1.253
		c-0.074,0.042-0.146,0.085-0.225,0.146C363.021,48.243,362.066,46.274,362.066,44.084z"/>
	<g>
		<path fill="#5B5B5B" stroke="#5B5B5B" stroke-width="0.5" stroke-miterlimit="10" d="M220.559,3.852
			c-2.285,0-4.146,1.854-4.146,4.146c0,2.287,1.854,4.146,4.146,4.146c2.289,0,4.146-1.854,4.146-4.146
			C224.707,5.714,222.842,3.852,220.559,3.852z M220.559,11.554c-1.959,0-3.559-1.602-3.559-3.563c0-1.96,1.598-3.563,3.559-3.563
			s3.563,1.603,3.563,3.563C224.111,9.96,222.521,11.554,220.559,11.554z"/>
		<path fill="#5B5B5B" stroke="#5B5B5B" stroke-width="0.5" stroke-miterlimit="10" d="M227.73,6.221h-0.604
			c-0.146-0.563-0.377-1.109-0.67-1.616l0.422-0.423c0.156-0.156,0.242-0.363,0.242-0.583c0-0.228-0.084-0.434-0.242-0.583
			l-1.354-1.354c-0.313-0.313-0.854-0.313-1.155,0l-0.433,0.422c-0.512-0.292-1.051-0.518-1.606-0.669V0.823
			c0-0.454-0.371-0.822-0.824-0.822h-1.897c-0.453,0-0.822,0.369-0.822,0.822V1.42c-0.563,0.151-1.104,0.377-1.607,0.67
			l-0.422-0.421c-0.313-0.313-0.854-0.313-1.166,0L214.23,3.02c-0.156,0.147-0.247,0.354-0.247,0.583
			c0,0.218,0.083,0.426,0.245,0.583l0.422,0.423c-0.291,0.516-0.521,1.058-0.668,1.616h-0.604c-0.455,0-0.814,0.362-0.814,0.816
			V8.95c0,0.454,0.361,0.816,0.814,0.816h0.604c0.146,0.563,0.377,1.104,0.67,1.608l-0.422,0.43
			c-0.152,0.148-0.247,0.355-0.247,0.583c0,0.227,0.084,0.434,0.247,0.581l1.354,1.354c0.313,0.313,0.854,0.313,1.166,0l0.42-0.422
			c0.508,0.293,1.053,0.517,1.609,0.67v0.598c0,0.454,0.369,0.824,0.822,0.824h1.897c0.453,0,0.821-0.37,0.821-0.824v-0.598
			c0.563-0.153,1.104-0.376,1.607-0.67l0.426,0.422c0.313,0.313,0.854,0.313,1.164,0l1.354-1.354
			c0.15-0.146,0.237-0.354,0.237-0.581s-0.085-0.435-0.237-0.583l-0.42-0.43c0.291-0.509,0.521-1.05,0.67-1.608h0.604
			c0.453,0,0.813-0.362,0.813-0.815V7.047C228.559,6.591,228.188,6.221,227.73,6.221z M227.962,8.954
			c0,0.127-0.104,0.229-0.229,0.229h-1.063l-0.051,0.229c-0.156,0.663-0.416,1.292-0.771,1.869l-0.125,0.192l0.754,0.752
			c0.09,0.096,0.09,0.229,0,0.318l-1.354,1.354c-0.088,0.091-0.238,0.091-0.328,0l-0.75-0.75l-0.194,0.125
			c-0.574,0.354-1.205,0.61-1.865,0.771l-0.229,0.06v1.063c0,0.128-0.104,0.229-0.229,0.229h-1.904
			c-0.128,0-0.229-0.104-0.229-0.229v-1.061l-0.229-0.06c-0.662-0.146-1.293-0.407-1.869-0.771L217.1,13.15l-0.753,0.752
			c-0.09,0.09-0.235,0.09-0.327,0l-1.351-1.354c-0.095-0.092-0.095-0.229-0.004-0.321l0.754-0.752l-0.125-0.192
			c-0.358-0.577-0.617-1.206-0.771-1.869l-0.061-0.229h-1.06c-0.127,0-0.229-0.104-0.229-0.229v-1.91
			c0-0.127,0.104-0.229,0.229-0.229h1.063l0.057-0.229c0.152-0.663,0.412-1.292,0.771-1.87l0.125-0.191l-0.754-0.753
			c-0.089-0.097-0.089-0.236,0-0.326L216,2.087c0.09-0.09,0.232-0.09,0.328,0l0.752,0.752l0.195-0.125
			c0.578-0.354,1.207-0.62,1.871-0.771l0.229-0.054V0.825c0-0.129,0.104-0.231,0.229-0.231h1.906c0.131,0,0.229,0.104,0.229,0.231
			v1.063l0.229,0.054c0.654,0.151,1.285,0.414,1.861,0.771l0.202,0.125l0.75-0.752c0.09-0.089,0.23-0.089,0.32,0l1.354,1.354
			c0.104,0.089,0.104,0.229,0,0.326l-0.752,0.751l0.125,0.192c0.356,0.578,0.621,1.206,0.771,1.87l0.059,0.229h1.063
			c0.127,0,0.229,0.104,0.229,0.229L227.962,8.954L227.962,8.954z"/>
		<path fill="#5B5B5B" stroke="#5B5B5B" stroke-width="0.5" stroke-miterlimit="10" d="M220.559,5.037
			c-1.635,0-2.963,1.329-2.963,2.962s1.328,2.962,2.963,2.962c1.635,0,2.963-1.329,2.963-2.962S222.189,5.037,220.559,5.037z
			 M220.559,10.37c-1.309,0-2.369-1.063-2.369-2.37c0-1.313,1.063-2.371,2.369-2.371c1.313,0,2.367,1.063,2.367,2.371
			C222.926,9.306,221.861,10.37,220.559,10.37z"/>
	</g>
	<g>
		<path fill="#5B5B5B" d="M220.561,40.379c-1.473,0-2.668,1.197-2.668,2.666c0,1.479,1.195,2.667,2.668,2.667
			c1.469,0,2.666-1.189,2.666-2.667C223.227,41.576,222.025,40.379,220.561,40.379z"/>
		<path fill="#5B5B5B" d="M227.73,41.269h-0.604c-0.146-0.563-0.377-1.104-0.668-1.617l0.42-0.422
			c0.156-0.147,0.242-0.354,0.242-0.583s-0.084-0.429-0.242-0.583l-1.354-1.354c-0.313-0.313-0.854-0.313-1.162,0l-0.432,0.422
			c-0.512-0.292-1.052-0.517-1.609-0.668v-0.6c0-0.453-0.368-0.823-0.821-0.823h-1.899c-0.455,0-0.824,0.371-0.824,0.823v0.6
			c-0.563,0.151-1.104,0.376-1.607,0.668l-0.434-0.422c-0.313-0.313-0.854-0.313-1.166,0l-1.354,1.354
			c-0.146,0.147-0.232,0.354-0.232,0.583c0,0.227,0.083,0.434,0.232,0.583l0.432,0.422c-0.293,0.517-0.521,1.059-0.667,1.617h-0.604
			c-0.455,0-0.822,0.369-0.822,0.814V44c0,0.453,0.369,0.823,0.822,0.823h0.604c0.146,0.563,0.375,1.104,0.667,1.609l-0.432,0.422
			c-0.146,0.147-0.232,0.354-0.232,0.583c0,0.227,0.083,0.435,0.232,0.582l1.354,1.354c0.313,0.313,0.854,0.313,1.166,0l0.434-0.421
			c0.508,0.292,1.049,0.517,1.607,0.669v0.597c0,0.454,0.369,0.823,0.824,0.823h1.897c0.455,0,0.817-0.37,0.817-0.823V49.62
			c0.563-0.151,1.104-0.376,1.613-0.67l0.424,0.423c0.313,0.313,0.854,0.313,1.164,0l1.354-1.354
			c0.15-0.146,0.236-0.354,0.236-0.583c0-0.227-0.084-0.434-0.236-0.583l-0.422-0.422c0.293-0.518,0.52-1.059,0.67-1.618h0.604
			c0.449,0,0.813-0.361,0.813-0.813v-1.909C228.561,41.638,228.188,41.269,227.73,41.269z M224.111,43.045
			c0,1.962-1.594,3.563-3.555,3.563S217,45.007,217,43.045c0-1.959,1.598-3.555,3.559-3.555S224.111,41.085,224.111,43.045z"/>
	</g>
	<g>
		
			<rect x="128.588" y="2.318" fill="none" stroke="#5B5B5B" stroke-width="1.5" stroke-miterlimit="10" width="13.313" height="12.35"/>
		
			<rect x="126.848" y="11.85" fill="#FFFFFF" stroke="#5B5B5B" stroke-width="1.5" stroke-miterlimit="10" width="5.018" height="4.646"/>
		
			<rect x="126.848" y="0.501" fill="#FFFFFF" stroke="#5B5B5B" stroke-width="1.3" stroke-miterlimit="10" width="5.018" height="4.646"/>
		
			<rect x="138.822" y="0.501" fill="#FFFFFF" stroke="#5B5B5B" stroke-width="1.5" stroke-miterlimit="10" width="5.019" height="4.646"/>
		
			<rect x="138.822" y="11.85" fill="#FFFFFF" stroke="#5B5B5B" stroke-width="1.5" stroke-miterlimit="10" width="5.019" height="4.646"/>
	</g>
	<g>
		
			<rect x="129.026" y="36.865" fill="none" stroke="#5B5B5B" stroke-width="1.5" stroke-miterlimit="10" width="12.648" height="12.342"/>
		<rect x="127.374" y="46.396" fill="#5B5B5B" width="4.768" height="4.646"/>
		<rect x="127.374" y="35.046" fill="#5B5B5B" width="4.768" height="4.65"/>
		<rect x="138.75" y="35.046" fill="#5B5B5B" width="4.768" height="4.65"/>
		<rect x="138.75" y="46.396" fill="#5B5B5B" width="4.768" height="4.646"/>
	</g>
	<g>
		<path fill="#5B5B5B" stroke="#5B5B5B" stroke-width="0.5" stroke-miterlimit="10" d="M99.685,13.175
			c-1.323-1.349-1.995-2.938-1.995-4.732V5.82c0.012-1.986-1.297-3.313-2.423-3.844c-0.321-0.146-0.654-0.271-0.992-0.354V1.453
			C94.275,0.65,93.638,0,92.855,0s-1.42,0.646-1.42,1.453v0.188c-0.306,0.083-0.604,0.188-0.895,0.332
			c-1.244,0.587-2.503,2.001-2.515,3.84v2.618c0,1.854-0.642,3.444-1.905,4.732c-0.076,0.076-0.102,0.188-0.071,0.293
			c0.032,0.104,0.118,0.188,0.223,0.199l2.695,0.479c0.502,0.09,0.966,0.158,1.405,0.229c0.496,0.991,1.47,1.63,2.533,1.63
			c1.064,0,2.038-0.646,2.533-1.634c0.438-0.063,0.898-0.14,1.396-0.229l2.696-0.479c0.104-0.021,0.19-0.104,0.222-0.2
			C99.788,13.365,99.759,13.252,99.685,13.175z M92.002,1.453c0-0.479,0.383-0.873,0.853-0.873s0.852,0.396,0.852,0.873v0.053
			c-0.565-0.083-1.14-0.081-1.705,0.021V1.453L92.002,1.453z M92.906,15.417c-0.719,0-1.391-0.366-1.822-0.965
			c0.634,0.063,1.228,0.104,1.819,0.104c0.595,0,1.188-0.034,1.827-0.104C94.298,15.052,93.626,15.417,92.906,15.417z M96.74,13.573
			c-0.544,0.096-1.044,0.174-1.517,0.229h-0.001c-0.208,0.027-0.41,0.058-0.608,0.071c-0.002,0-0.005,0-0.007,0
			c-0.182,0.021-0.357,0.034-0.534,0.047c-0.034,0.002-0.066,0.004-0.1,0.016c-0.152,0.01-0.302,0.021-0.45,0.021
			c-0.031,0-0.063,0.003-0.092,0.004c-0.354,0.017-0.703,0.017-1.056,0c-0.031-0.001-0.063-0.002-0.095-0.004
			c-0.147-0.008-0.295-0.021-0.445-0.021c-0.035-0.01-0.069-0.013-0.104-0.016c-0.17-0.012-0.345-0.021-0.521-0.045
			c-0.006-0.001-0.012-0.001-0.018-0.002c-0.196-0.021-0.397-0.043-0.604-0.063c-0.001,0-0.002,0-0.002,0
			c-0.474-0.063-0.975-0.146-1.521-0.229l-2.176-0.393c1.131-1.325,1.704-2.919,1.704-4.751V5.82
			c0.011-1.582,1.104-2.804,2.186-3.313c0.322-0.146,0.654-0.265,0.993-0.345c0.003,0,0.006,0,0.009-0.001
			c0.7-0.161,1.444-0.168,2.153-0.021c0.004,0.001,0.008,0,0.011,0c0.37,0.071,0.735,0.191,1.085,0.356
			c1.048,0.489,2.101,1.704,2.091,3.313v2.62c0,1.755,0.618,3.394,1.793,4.75L96.74,13.573z"/>
		<path fill="#5B5B5B" stroke="#5B5B5B" stroke-width="0.5" stroke-miterlimit="10" d="M94.676,3.298
			c-1.101-0.516-2.447-0.517-3.541,0c-0.622,0.295-1.681,1.155-1.688,2.521c0,0.161,0.125,0.292,0.283,0.293c0,0,0,0,0.001,0
			c0.154,0,0.283-0.128,0.284-0.289c0.006-1.063,0.856-1.756,1.358-1.985c0.946-0.439,2.115-0.438,3.068,0
			c0.142,0.063,0.312,0.002,0.376-0.146C94.882,3.538,94.82,3.363,94.676,3.298z"/>
	</g>
	<path fill="#5B5B5B" d="M99.851,48.225c-1.355-1.354-2.044-2.938-2.044-4.74V40.87c0.014-1.996-1.329-3.318-2.482-3.854
		C95,36.87,94.658,36.755,94.308,36.67V36.5c0-0.804-0.652-1.455-1.454-1.455c-0.803,0-1.455,0.646-1.455,1.455v0.206
		c-0.314,0.083-0.623,0.188-0.916,0.313c-1.274,0.587-2.564,2.002-2.577,3.849v2.61c0,1.854-0.655,3.453-1.951,4.732
		c-0.078,0.076-0.104,0.189-0.072,0.293c0.033,0.104,0.119,0.188,0.229,0.199l2.761,0.479c0.521,0.098,0.994,0.16,1.439,0.228
		c0.508,0.996,1.506,1.634,2.594,1.634c1.091,0,2.088-0.639,2.595-1.634c0.443-0.063,0.914-0.131,1.433-0.228l2.761-0.479
		c0.106-0.021,0.195-0.095,0.227-0.199C99.956,48.415,99.927,48.302,99.851,48.225z M91.981,36.503c0-0.479,0.391-0.874,0.874-0.874
		c0.48,0,0.874,0.396,0.874,0.874v0.063c-0.581-0.083-1.172-0.078-1.748,0.021V36.503L91.981,36.503z M89.653,41.157L89.653,41.157
		c-0.162-0.001-0.291-0.14-0.29-0.292c0.009-1.362,1.092-2.229,1.729-2.521c1.12-0.517,2.5-0.517,3.627-0.001
		c0.146,0.067,0.211,0.24,0.145,0.393c-0.066,0.146-0.239,0.211-0.385,0.146c-0.978-0.44-2.173-0.442-3.143,0
		c-0.515,0.233-1.385,0.923-1.392,1.993C89.944,41.029,89.814,41.157,89.653,41.157z M94.777,49.501
		c-0.443,0.604-1.131,0.966-1.869,0.966c-0.737,0-1.427-0.358-1.868-0.965l0,0c0.116,0.021,0.229,0.021,0.339,0.03
		c0.054,0.005,0.108,0.011,0.16,0.016c0.041,0.003,0.081,0.013,0.121,0.016c0.845,0.063,1.624,0.063,2.469,0.001
		c0.049-0.007,0.097-0.014,0.146-0.017c0.063-0.006,0.13-0.014,0.192-0.017c0.1-0.018,0.198-0.021,0.3-0.026
		C94.769,49.502,94.773,49.501,94.777,49.501z"/>
	<path fill="#5B5B5B" stroke="#5B5B5B" stroke-width="0.5" stroke-miterlimit="10" d="M59.219,11.26V7.705h-8.147V4.742h2.593V0.001
		h-5.927v4.741h2.594v2.963h-8.147v3.555h-2.594v4.741h5.926V11.26h-2.593V8.297h7.408v2.963h-2.594v4.741h5.926V11.26h-2.593V8.297
		h7.407v2.963h-2.593v4.741h5.927V11.26H59.219z M48.48,0.594h4.443V4.15H48.48V0.594z M44.775,15.409h-4.443v-3.563h4.443V15.409
		L44.775,15.409z M52.923,15.409H48.48v-3.563h4.443V15.409z M61.071,15.409h-4.443v-3.563h4.443V15.409z"/>
	<polygon fill="#5B5B5B" stroke="#5B5B5B" stroke-width="0.5" stroke-miterlimit="10" points="59.22,46.306 59.22,42.75 
		51.073,42.75 51.073,39.787 53.665,39.787 53.665,35.046 47.739,35.046 47.739,39.787 50.332,39.787 50.332,42.75 42.185,42.75 
		42.185,46.306 39.59,46.306 39.59,51.046 45.516,51.046 45.516,46.306 42.924,46.306 42.924,43.343 50.332,43.343 50.332,46.306 
		47.739,46.306 47.739,51.046 53.665,51.046 53.665,46.306 51.073,46.306 51.073,43.343 58.481,43.343 58.481,46.306 55.886,46.306 
		55.886,51.046 61.814,51.046 61.814,46.306 	"/>
	<path fill="#5B5B5B" stroke="#5B5B5B" stroke-width="0.5" stroke-miterlimit="10" d="M13.869,11.439l-3.185-1.271
		c-0.302-0.12-0.487-0.354-0.487-0.63V8.633c0.076-0.067,0.156-0.152,0.24-0.254c0.411-0.466,0.743-0.979,0.982-1.545
		c0.473-0.173,0.775-0.545,0.775-0.965V4.802c0-0.257-0.119-0.506-0.334-0.692v-1.42c0.02-0.146,0.094-1.021-0.695-1.74
		c-0.687-0.63-1.795-0.947-3.304-0.947c-1.508,0-2.618,0.313-3.303,0.938C3.769,1.663,3.841,2.537,3.861,2.68V4.1
		C3.647,4.294,3.527,4.543,3.527,4.8v1.066c0,0.316,0.185,0.626,0.5,0.822C4.333,7.662,4.968,8.38,5.194,8.625V9.51
		c0,0.266-0.176,0.495-0.459,0.618l-2.976,1.298c-0.967,0.429-1.565,1.231-1.565,2.113v0.855C0.194,15.667,5.21,16,7.861,16
		c2.651,0,7.666-0.334,7.666-1.604v-0.813C15.53,12.673,14.895,11.848,13.869,11.439z M14.865,14.401
		c0,0.361-2.471,1.063-7.001,1.063c-4.529,0-7-0.698-7-1.063v-0.855c0-0.688,0.469-1.313,1.221-1.646l2.975-1.3
		c0.497-0.225,0.807-0.643,0.807-1.086V8.439L5.79,8.365C5.781,8.355,4.964,7.564,4.653,6.48L4.622,6.376l-0.113-0.06
		C4.318,6.216,4.2,6.05,4.2,5.869V4.802c0-0.146,0.079-0.281,0.225-0.394l0.108-0.08v-1.66L4.531,2.634
		c-0.002-0.009-0.114-0.748,0.534-1.34C5.618,0.79,6.56,0.535,7.867,0.535c1.302,0,2.242,0.252,2.795,0.753
		c0.649,0.586,0.542,1.337,0.541,1.344l-0.004,1.695l0.11,0.081c0.144,0.104,0.224,0.235,0.224,0.393v1.066
		c0,0.229-0.19,0.438-0.474,0.507l-0.166,0.041l-0.056,0.132c-0.224,0.563-0.541,1.063-0.943,1.521
		c-0.1,0.113-0.195,0.219-0.279,0.286L9.532,8.431v1.104c0,0.473,0.327,0.896,0.854,1.104l3.186,1.271
		c0.798,0.313,1.294,0.961,1.294,1.674L14.865,14.401L14.865,14.401z"/>
	<path fill="#5B5B5B" d="M13.869,46.483l-3.185-1.271c-0.302-0.119-0.487-0.354-0.487-0.631v-0.896
		c0.076-0.074,0.156-0.159,0.24-0.261c0.411-0.466,0.743-0.979,0.982-1.546c0.473-0.173,0.775-0.545,0.775-0.965V39.85
		c0-0.264-0.119-0.507-0.334-0.7v-1.42c0.02-0.146,0.094-1.021-0.695-1.732c-0.687-0.625-1.795-0.938-3.304-0.938
		c-1.508,0-2.618,0.313-3.303,0.938c-0.789,0.719-0.717,1.593-0.697,1.732v1.417c-0.214,0.188-0.334,0.438-0.334,0.7v1.063
		c0,0.316,0.185,0.627,0.5,0.83c0.306,0.966,0.941,1.688,1.167,1.929v0.89c0,0.259-0.176,0.488-0.459,0.612l-2.976,1.305
		c-0.967,0.421-1.565,1.229-1.565,2.105v0.862c0,1.267,5.016,1.601,7.667,1.601c2.651,0,7.666-0.334,7.666-1.601V48.63
		C15.53,47.719,14.895,46.892,13.869,46.483z"/>
	<g>
		<path fill="#5B5B5B" stroke="#5B5B5B" stroke-width="0.8" stroke-miterlimit="10" d="M182.592,35.164
			c-0.114-0.115-0.284-0.146-0.438-0.086c-0.146,0.063-0.25,0.209-0.25,0.373V37.6c-2.176,0.085-3.27,0.981-3.436,1.146
			c-1.101,0.896-1.851,2.151-2.121,3.553c-0.137,0.683-0.16,1.366-0.072,2.057v0.001c0,0.007,0.002,0.014,0.002,0.021l0.086,0.484
			c0.027,0.167,0.158,0.297,0.324,0.327c0.166,0.023,0.33-0.044,0.418-0.188l0.256-0.435c0.789-1.313,1.771-2.188,2.932-2.584
			c0.521-0.188,1.063-0.271,1.607-0.23v2.229c0,0.155,0.104,0.313,0.25,0.373c0.15,0.063,0.324,0.021,0.439-0.097l4.264-4.275
			c0.153-0.158,0.153-0.416,0-0.563L182.592,35.164z"/>
		<path fill="#5B5B5B" stroke="#5B5B5B" stroke-width="0.8" stroke-miterlimit="10" d="M185.497,46.922
			c-0.223,0-0.404,0.188-0.404,0.403v1.706c0,0.668-0.541,1.21-1.209,1.211h-13.201c-0.669-0.001-1.21-0.543-1.211-1.211v-9.609
			c0.001-0.668,0.542-1.209,1.211-1.209h2.787c0.225,0,0.404-0.182,0.404-0.396c0-0.229-0.182-0.396-0.404-0.396h-2.787
			c-1.115,0.001-2.017,0.896-2.018,2.021v9.604c0.001,1.106,0.904,2.021,2.018,2.021h13.201c1.113-0.001,2.018-0.904,2.018-2.021
			v-1.71C185.899,47.102,185.717,46.922,185.497,46.922z"/>
	</g>
	<g>
		<rect x="338.199" y="36.679" fill="#5B5B5B" width="1.959" height="3.265"/>
		<path fill="#5B5B5B" d="M342.25,35.046h-12.871v16h15.678V37.849L342.25,35.046z M332.646,35.699h8.479v5.225h-8.479V35.699z
			 M342.117,50.392h-10.123v-6.854h10.123V50.392z"/>
		<path fill="#5B5B5B" d="M333.625,45.495h2.285c0.184,0,0.326-0.146,0.326-0.327c0-0.188-0.146-0.326-0.326-0.326h-2.285
			c-0.182,0-0.324,0.146-0.324,0.326C333.298,45.348,333.443,45.495,333.625,45.495z"/>
		<path fill="#5B5B5B" d="M333.625,46.801h3.27c0.189,0,0.324-0.146,0.324-0.318c0-0.188-0.145-0.327-0.324-0.327h-3.27
			c-0.182,0-0.324,0.146-0.324,0.327C333.3,46.656,333.443,46.801,333.625,46.801z"/>
		<path fill="#5B5B5B" d="M337.871,46.801c0.09,0,0.17-0.028,0.229-0.095c0.064-0.063,0.105-0.146,0.105-0.229
			s-0.037-0.17-0.105-0.229c-0.104-0.12-0.342-0.12-0.461,0c-0.063,0.063-0.1,0.146-0.1,0.229s0.035,0.17,0.096,0.229
			C337.701,46.764,337.783,46.801,337.871,46.801z"/>
	</g>
	<g>
		<path fill="#5B5B5B" stroke="#5B5B5B" stroke-width="0.5" stroke-miterlimit="10" d="M342.25,0.001h-0.789h-9.143h-2.939v16h2.287
			h10.775h2.604V2.805L342.25,0.001z M340.81,0.656v4.563h-7.838V0.656H340.81z M332.318,15.348V9.144h9.471v6.204H332.318z
			 M344.4,15.348h-1.959V8.492h-10.773v6.854h-1.633V0.656h2.283V5.88h9.145V0.656h0.521l2.422,2.421L344.4,15.348L344.4,15.348z"/>
		<path fill="#5B5B5B" stroke="#5B5B5B" stroke-width="0.5" stroke-miterlimit="10" d="M333.625,10.777h2.285
			c0.18,0,0.326-0.146,0.326-0.318c0-0.188-0.146-0.327-0.326-0.327h-2.285c-0.182,0-0.328,0.146-0.328,0.327
			C333.296,10.632,333.443,10.777,333.625,10.777z"/>
		<path fill="#5B5B5B" stroke="#5B5B5B" stroke-width="0.5" stroke-miterlimit="10" d="M336.89,11.43h-3.266
			c-0.184,0-0.328,0.146-0.328,0.318c0,0.188,0.146,0.327,0.328,0.327h3.266c0.189,0,0.326-0.146,0.326-0.327
			C337.216,11.575,337.072,11.43,336.89,11.43z"/>
		<path fill="#5B5B5B" stroke="#5B5B5B" stroke-width="0.5" stroke-miterlimit="10" d="M337.638,11.525
			c-0.061,0.063-0.096,0.146-0.096,0.229c0,0.085,0.035,0.17,0.096,0.229c0.064,0.063,0.146,0.103,0.23,0.103
			s0.17-0.036,0.229-0.103c0.064-0.063,0.105-0.146,0.105-0.229s-0.035-0.17-0.105-0.229
			C337.982,11.404,337.757,11.404,337.638,11.525z"/>
		<path fill="#5B5B5B" stroke="#5B5B5B" stroke-width="0.5" stroke-miterlimit="10" d="M340.156,1.307h-1.961v3.271h1.961V1.307z
			 M339.501,3.92h-0.648V1.961h0.648V3.92z"/>
	</g>
	<g>
		<g>
			<path fill="#006DF0" stroke="#006DF0" stroke-width="0.5" stroke-miterlimit="10" d="M10.78,75.666
				c0.988-1.063,1.604-2.503,1.604-4.081c0-3.313-2.692-6.011-6.012-6.011c-3.317,0-6.011,2.694-6.011,6.011
				c0,3.313,2.693,6.02,6.011,6.02c1.353,0,2.593-0.438,3.601-1.195l4.47,4.479c0.107,0.104,0.245,0.163,0.38,0.163
				c0.137,0,0.282-0.063,0.381-0.163c0.208-0.208,0.208-0.561,0-0.771L10.78,75.666z M1.449,71.586c0-2.71,2.203-4.923,4.923-4.923
				c2.712,0,4.924,2.204,4.924,4.923c0,2.729-2.203,4.925-4.924,4.925C3.652,76.51,1.449,74.298,1.449,71.586z"/>
		</g>
	</g>
	<g>
		<g>
			<path fill="#F79D1E" stroke="#F79D1E" stroke-width="0.5" stroke-miterlimit="10" d="M53.621,75.666
				c0.988-1.063,1.604-2.503,1.604-4.081c0-3.313-2.692-6.011-6.013-6.011c-3.317,0-6.012,2.694-6.012,6.011
				c0,3.313,2.693,6.02,6.012,6.02c1.353,0,2.594-0.438,3.601-1.195l4.471,4.479c0.108,0.104,0.244,0.163,0.38,0.163
				c0.137,0,0.282-0.063,0.382-0.163c0.208-0.208,0.208-0.561,0-0.771L53.621,75.666z M44.29,71.586c0-2.71,2.203-4.923,4.924-4.923
				c2.712,0,4.925,2.204,4.925,4.923c0,2.729-2.203,4.925-4.925,4.925C46.493,76.51,44.29,74.298,44.29,71.586z"/>
		</g>
	</g>
	<g>
		<g>
			<path fill="#5B5B5B" stroke="#5B5B5B" stroke-width="0.5" stroke-miterlimit="10" d="M382.476,56.578l-6.574-6.581
				c1.359-1.518,2.199-3.519,2.199-5.717c0-4.72-3.84-8.563-8.561-8.563c-4.719,0-8.564,3.849-8.564,8.563s3.846,8.561,8.564,8.561
				c2.199,0,4.199-0.842,5.717-2.208l6.58,6.581c0.09,0.088,0.203,0.14,0.32,0.14c0.115,0,0.229-0.052,0.313-0.14
				C382.652,57.039,382.652,56.754,382.476,56.578z M369.542,51.94c-4.225,0-7.66-3.438-7.66-7.66s3.438-7.66,7.66-7.66
				c4.225,0,7.66,3.438,7.66,7.66S373.765,51.94,369.542,51.94z"/>
		</g>
	</g>
	<g>
		<path fill="#5B5B5B" d="M377.558,10.14c0-4.872-3.963-8.833-8.834-8.833c-4.859,0-8.832,3.961-8.832,8.833
			c0,2.565,1.105,4.892,2.869,6.507l-0.008,0.008l0.285,0.249c0.02,0.016,0.039,0.021,0.055,0.044
			c0.16,0.119,0.314,0.246,0.48,0.353c0.063,0.038,0.104,0.075,0.158,0.114c0.168,0.116,0.348,0.231,0.52,0.338
			c0.037,0.022,0.076,0.046,0.119,0.069c0.189,0.113,0.395,0.21,0.604,0.315c0.021,0.006,0.021,0.013,0.051,0.02
			c0.668,0.313,1.389,0.54,2.141,0.678c0.02,0.002,0.035,0.005,0.063,0.009c0.23,0.041,0.475,0.071,0.719,0.1
			c0.02,0.003,0.063,0.004,0.074,0.009c0.238,0.021,0.48,0.031,0.721,0.031c0.238,0,0.479-0.02,0.715-0.03
			c0.02-0.002,0.063-0.005,0.092-0.009c0.238-0.021,0.469-0.061,0.701-0.091c0.02-0.01,0.039-0.013,0.059-0.018
			c0.74-0.134,1.451-0.354,2.109-0.667c0.02-0.013,0.049-0.021,0.063-0.021c0.193-0.1,0.396-0.203,0.57-0.306
			c0.053-0.021,0.096-0.056,0.146-0.075c0.166-0.104,0.346-0.208,0.506-0.321c0.063-0.032,0.115-0.075,0.176-0.118
			c0.146-0.102,0.277-0.207,0.414-0.313c0.02-0.021,0.064-0.048,0.092-0.065l0.303-0.246l-0.016-0.009
			C376.447,15.056,377.558,12.726,377.558,10.14z M360.537,10.14c0-4.521,3.678-8.19,8.188-8.19c4.521,0,8.189,3.675,8.189,8.19
			c0,2.434-1.07,4.614-2.762,6.123c-0.096-0.069-0.189-0.123-0.283-0.179l-2.725-1.354c-0.252-0.123-0.395-0.368-0.395-0.646v-0.943
			c0.063-0.077,0.127-0.161,0.199-0.269c0.346-0.481,0.631-1.042,0.844-1.637c0.4-0.202,0.666-0.599,0.666-1.056V9.04
			c0-0.271-0.105-0.549-0.283-0.759v-1.5c0.021-0.165,0.07-1.106-0.604-1.884c-0.6-0.675-1.557-1.021-2.855-1.021
			c-1.301,0-2.258,0.351-2.852,1.021c-0.689,0.771-0.623,1.719-0.605,1.885v1.496c-0.184,0.211-0.277,0.479-0.277,0.759v1.14
			c0,0.352,0.16,0.68,0.434,0.897c0.256,1.019,0.793,1.791,0.988,2.052v0.938c0,0.262-0.152,0.503-0.385,0.628l-2.537,1.384
			c-0.082,0.045-0.16,0.095-0.256,0.153C361.589,14.731,360.537,12.556,360.537,10.14z M373.535,16.768
			c-0.115,0.081-0.23,0.162-0.348,0.229c-0.061,0.035-0.107,0.07-0.162,0.104c-0.148,0.093-0.307,0.185-0.461,0.267
			c-0.029,0.023-0.066,0.036-0.104,0.063c-0.363,0.186-0.738,0.345-1.129,0.479c-0.023,0.005-0.023,0.011-0.037,0.021
			c-0.207,0.063-0.402,0.125-0.621,0.176h-0.002c-0.207,0.051-0.42,0.093-0.621,0.129c-0.008,0-0.02,0.001-0.021,0.002
			c-0.207,0.021-0.396,0.055-0.604,0.07c-0.037,0.002-0.066,0.004-0.117,0.007c-0.207,0.021-0.389,0.021-0.604,0.021
			c-0.207,0-0.404-0.011-0.611-0.021c-0.023-0.001-0.063-0.004-0.104-0.007c-0.207-0.021-0.402-0.042-0.607-0.07
			c-0.014,0-0.021-0.002-0.021-0.004c-0.43-0.07-0.852-0.176-1.25-0.313c-0.021-0.005-0.023-0.01-0.035-0.021
			c-0.207-0.07-0.396-0.146-0.602-0.229c-0.002,0-0.006-0.001-0.008-0.001c-0.186-0.065-0.365-0.162-0.547-0.253
			c-0.02-0.021-0.049-0.021-0.063-0.035c-0.16-0.087-0.322-0.183-0.482-0.275c-0.047-0.029-0.092-0.063-0.143-0.097
			c-0.146-0.094-0.303-0.188-0.439-0.299c-0.02-0.015-0.02-0.021-0.043-0.022c0.021-0.008,0.023-0.021,0.023-0.022l2.545-1.384
			c0.438-0.239,0.713-0.696,0.713-1.196v-1.16l-0.07-0.09c-0.012-0.009-0.707-0.852-0.965-1.997l-0.012-0.136l-0.113-0.07
			c-0.16-0.1-0.252-0.26-0.252-0.438V9.04c0-0.146,0.07-0.288,0.18-0.393l0.111-0.102V6.763l-0.002-0.045
			c-0.006-0.013-0.105-0.771,0.438-1.398c0.471-0.528,1.271-0.798,2.367-0.798c1.105,0,1.902,0.266,2.371,0.792
			c0.531,0.612,0.445,1.396,0.443,1.407l-0.002,1.815l0.104,0.103c0.117,0.105,0.189,0.251,0.189,0.392v1.139
			c0,0.23-0.162,0.438-0.396,0.506l-0.162,0.058l-0.051,0.151c-0.188,0.596-0.463,1.14-0.805,1.618
			c-0.082,0.119-0.162,0.229-0.242,0.311l-0.072,0.092v1.188c0,0.521,0.295,0.983,0.768,1.219l2.719,1.355
			c0.02,0.008,0.037,0.021,0.059,0.022C373.601,16.718,373.566,16.742,373.535,16.768z"/>
		
			<ellipse fill="none" stroke="#5B5B5B" stroke-width="0.25" stroke-miterlimit="10" cx="368.865" cy="10.141" rx="8.525" ry="8.335"/>
		<path fill="#5B5B5B" d="M382.064,23.531c-0.104,0.122-0.289,0.136-0.406,0.033l-7.783-6.735c-0.121-0.104-0.133-0.287-0.027-0.409
			l0,0c0.105-0.121,0.287-0.136,0.408-0.025l7.783,6.729C382.16,23.226,382.167,23.409,382.064,23.531L382.064,23.531z"/>
	</g>
	<path fill="#5B5B5B" stroke="#5B5B5B" stroke-width="0.5" stroke-miterlimit="10" d="M311.062,7.542l-2.32-2.209v-3.62h-2.672
		v1.075l-2.673-2.546l-7.663,7.301c-0.107,0.104-0.113,0.277-0.016,0.389c0.102,0.109,0.271,0.116,0.379,0.014l0.887-0.845v9.142
		h4.275h4.275h4.273V7.099l0.889,0.845c0.051,0.049,0.115,0.073,0.184,0.073c0.07,0,0.143-0.029,0.195-0.087
		C311.177,7.819,311.169,7.646,311.062,7.542z M306.603,2.26h1.605v2.563l-1.605-1.526V2.26z M301.794,15.693V9.92
		c0-0.143,0.109-0.258,0.25-0.258h2.705c0.141,0,0.25,0.115,0.25,0.258v5.773H301.794L301.794,15.693z M309.277,15.693h-3.742V9.92
		c0-0.444-0.352-0.806-0.783-0.806h-2.707c-0.434,0-0.781,0.361-0.781,0.806v5.773h-3.741V6.59l5.878-5.601l3.814,3.635l1.527,1.457
		l0,0l0.535,0.509V15.693L309.277,15.693z"/>
	<path id="XMLID_1_" fill="#5B5B5B" d="M311.128,42.169l-2.609-2.422v-3.04h-2.156v1.037l-2.965-2.753l-7.729,7.178
		c-0.108,0.103-0.115,0.272-0.018,0.381c0.104,0.109,0.271,0.115,0.385,0.016l1.164-1.081v0.883v8.625h4.311v-6.485
		c0-0.288,0.234-0.521,0.523-0.521h2.729c0.285,0,0.521,0.232,0.521,0.521v6.485h4.313v-8.625v-0.883l1.164,1.081
		c0.055,0.048,0.119,0.072,0.186,0.072c0.07,0,0.145-0.029,0.195-0.087C311.244,42.441,311.238,42.271,311.128,42.169z"/>
	<g>
		<g>
			<g>
				<path fill="#5B5B5B" stroke="#5B5B5B" stroke-width="0.25" stroke-miterlimit="10" d="M379.479,67.654h-2
					c-0.173,0-0.313,0.14-0.313,0.313v1.578c0,0.173,0.14,0.313,0.313,0.313s0.313-0.14,0.313-0.313v-1.266h1.375v8.227h-0.688
					h-0.688v-4.617c0-0.173-0.14-0.313-0.313-0.313s-0.313,0.14-0.313,0.313v4.617h-0.625v-6.469c0-0.173-0.14-0.313-0.313-0.313h-2
					c-0.173,0-0.313,0.14-0.313,0.313v6.469h-0.625v-4.281c0-0.173-0.14-0.313-0.313-0.313h-2c-0.173,0-0.313,0.14-0.313,0.313
					v4.281h-0.625v-2.488c0-0.173-0.14-0.313-0.313-0.313h-2c-0.173,0-0.313,0.14-0.313,0.313v2.488h-2.688
					c-0.172,0-0.313-0.14-0.313-0.313V62.068c0-0.173,0.141-0.313,0.313-0.313h8.062v2.063c0,0.517,0.421,0.938,0.938,0.938h2.063
					v3.844c0,0.173,0.141,0.313,0.313,0.313c0.173,0,0.313-0.14,0.313-0.313v-4.156c0-0.083-0.033-0.162-0.092-0.221l-3-3
					c-0.059-0.059-0.138-0.092-0.221-0.092h-8.374c-0.517,0-0.938,0.421-0.938,0.938v14.125c0,0.517,0.421,0.938,0.938,0.938h14.75
					c0.173,0,0.313-0.14,0.313-0.313v-8.852C379.792,67.794,379.652,67.654,379.479,67.654z M373.416,62.198l1.934,1.933h-1.621
					c-0.172,0-0.313-0.14-0.313-0.313V62.198z M369.417,76.506h-1.375V74.33h1.375V76.506z M372.667,76.506h-1.375v-3.969h1.375
					V76.506z M375.917,76.506h-1.375v-6.156h1.375V76.506z"/>
			</g>
		</g>
		<g>
			<g>
				<path fill="#5B5B5B" stroke="#5B5B5B" stroke-width="0.25" stroke-miterlimit="10" d="M368.341,62.841
					c-0.173,0-0.313,0.141-0.313,0.313v0.563c-1.438,0.156-2.563,1.378-2.563,2.857c0,1.585,1.29,2.874,2.875,2.874
					c1.479,0,2.701-1.123,2.857-2.562h0.562c0.173,0,0.313-0.14,0.313-0.313C372.073,64.515,370.399,62.841,368.341,62.841z
					 M368.341,68.822c-1.24,0-2.25-1.009-2.25-2.249c0-1.135,0.845-2.075,1.938-2.228v2.228c0,0.172,0.14,0.313,0.313,0.313h2.228
					C370.416,67.978,369.475,68.822,368.341,68.822z M368.654,66.26L368.654,66.26v-2.779c1.464,0.147,2.632,1.315,2.778,2.779
					H368.654z"/>
			</g>
		</g>
		<g>
			<g>
				<path fill="#5B5B5B" stroke="#5B5B5B" stroke-width="0.25" stroke-miterlimit="10" d="M371.76,70.326h-5.969
					c-0.173,0-0.313,0.14-0.313,0.313s0.14,0.313,0.313,0.313h5.969c0.173,0,0.313-0.14,0.313-0.313S371.933,70.326,371.76,70.326z"
					/>
			</g>
		</g>
		<g>
			<g>
				<path fill="#5B5B5B" stroke="#5B5B5B" stroke-width="0.25" stroke-miterlimit="10" d="M367.792,71.834h-2
					c-0.173,0-0.313,0.14-0.313,0.313s0.14,0.313,0.313,0.313h2c0.173,0,0.313-0.14,0.313-0.313S367.964,71.834,367.792,71.834z"/>
			</g>
		</g>
		<g>
			<g>
				<path fill="#5B5B5B" stroke="#5B5B5B" stroke-width="0.25" stroke-miterlimit="10" d="M369.578,71.926
					c-0.059-0.059-0.139-0.092-0.221-0.092c-0.083,0-0.163,0.033-0.221,0.092c-0.059,0.058-0.092,0.139-0.092,0.221
					s0.033,0.163,0.092,0.221c0.058,0.059,0.138,0.092,0.221,0.092c0.082,0,0.162-0.033,0.221-0.092
					c0.059-0.058,0.092-0.139,0.092-0.221S369.636,71.983,369.578,71.926z"/>
			</g>
		</g>
	</g>
	<g>
		<g>
			<g>
				<path fill="#5B5B5B" stroke="#5B5B5B" stroke-width="0.25" stroke-miterlimit="10" d="M379.479,91.705h-2
					c-0.173,0-0.313,0.14-0.313,0.313v1.578c0,0.173,0.14,0.313,0.313,0.313s0.313-0.14,0.313-0.313V92.33h1.375v8.227h-0.688
					h-0.688v-4.617c0-0.173-0.14-0.313-0.313-0.313s-0.313,0.14-0.313,0.313v4.617h-0.625v-6.469c0-0.173-0.14-0.313-0.313-0.313h-2
					c-0.173,0-0.313,0.14-0.313,0.313v6.469h-0.625v-4.281c0-0.173-0.14-0.313-0.313-0.313h-2c-0.173,0-0.313,0.14-0.313,0.313
					v4.281h-0.625v-2.488c0-0.173-0.14-0.313-0.313-0.313h-2c-0.173,0-0.313,0.14-0.313,0.313v2.488h-2.688
					c-0.172,0-0.313-0.14-0.313-0.313V86.119c0-0.173,0.141-0.313,0.313-0.313h8.062v2.063c0,0.517,0.421,0.938,0.938,0.938h2.063
					v3.844c0,0.173,0.141,0.313,0.313,0.313c0.173,0,0.313-0.14,0.313-0.313v-4.156c0-0.083-0.033-0.162-0.092-0.221l-3-3
					c-0.059-0.059-0.138-0.092-0.221-0.092h-8.374c-0.517,0-0.938,0.421-0.938,0.938v14.125c0,0.517,0.421,0.938,0.938,0.938h14.75
					c0.173,0,0.313-0.14,0.313-0.313v-8.852C379.792,91.844,379.652,91.705,379.479,91.705z M373.416,86.249l1.934,1.933h-1.621
					c-0.172,0-0.313-0.14-0.313-0.313V86.249z M369.417,100.556h-1.375v-2.176h1.375V100.556z M372.667,100.556h-1.375v-3.969h1.375
					V100.556z M375.917,100.556h-1.375V94.4h1.375V100.556z"/>
			</g>
		</g>
		<g>
			<g>
				<path fill="#5B5B5B" stroke="#5B5B5B" stroke-width="0.25" stroke-miterlimit="10" d="M371.76,94.377h-5.969
					c-0.173,0-0.313,0.14-0.313,0.313s0.14,0.313,0.313,0.313h5.969c0.173,0,0.313-0.14,0.313-0.313S371.933,94.377,371.76,94.377z"
					/>
			</g>
		</g>
		<g>
			<g>
				<path fill="#5B5B5B" stroke="#5B5B5B" stroke-width="0.25" stroke-miterlimit="10" d="M367.792,95.885h-2
					c-0.173,0-0.313,0.14-0.313,0.313s0.14,0.313,0.313,0.313h2c0.173,0,0.313-0.14,0.313-0.313S367.964,95.885,367.792,95.885z"/>
			</g>
		</g>
		<g>
			<g>
				<path fill="#5B5B5B" stroke="#5B5B5B" stroke-width="0.25" stroke-miterlimit="10" d="M369.578,95.976
					c-0.059-0.059-0.139-0.092-0.221-0.092c-0.083,0-0.163,0.033-0.221,0.092c-0.059,0.058-0.092,0.139-0.092,0.221
					s0.033,0.163,0.092,0.221c0.058,0.059,0.138,0.092,0.221,0.092c0.082,0,0.162-0.033,0.221-0.092
					c0.059-0.058,0.092-0.139,0.092-0.221S369.636,96.034,369.578,95.976z"/>
			</g>
		</g>
	</g>
</g>
</svg>
