<?xml version="1.0" encoding="utf-8"?>
<!-- Generator: Adobe Illustrator 16.0.0, SVG Export Plug-In . SVG Version: 6.00 Build 0)  -->
<!DOCTYPE svg PUBLIC "-//W3C//DTD SVG 1.1//EN" "http://www.w3.org/Graphics/SVG/1.1/DTD/svg11.dtd">
<svg version="1.1" id="Capa_1" xmlns="http://www.w3.org/2000/svg" xmlns:xlink="http://www.w3.org/1999/xlink" x="0px" y="0px"
	 width="12.593px" height="12px" viewBox="0 0 12.593 12" enable-background="new 0 0 12.593 12" xml:space="preserve">
<path fill="#3A4E91" d="M12.583,4.58c-0.027-0.082-0.099-0.141-0.183-0.153L8.324,3.834L6.499,0.139
	c-0.04-0.076-0.118-0.125-0.204-0.125c-0.084,0-0.164,0.049-0.201,0.125L4.271,3.834L0.193,4.427C0.108,4.439,0.04,4.499,0.01,4.581
	C-0.015,4.662,0.004,4.752,0.068,4.81l2.951,2.875l-0.697,4.063c-0.013,0.085,0.021,0.17,0.091,0.221
	c0.068,0.053,0.16,0.061,0.235,0.02l3.647-1.918l3.647,1.918c0.033,0.018,0.067,0.023,0.104,0.023c0.048,0,0.093-0.015,0.134-0.043
	c0.067-0.051,0.104-0.136,0.088-0.221L9.574,7.686l2.951-2.875C12.587,4.751,12.609,4.662,12.583,4.58z"/>
</svg>
