<?xml version="1.0" encoding="utf-8"?>
<!-- Generator: Adobe Illustrator 16.0.0, SVG Export Plug-In . SVG Version: 6.00 Build 0)  -->
<!DOCTYPE svg PUBLIC "-//W3C//DTD SVG 1.1//EN" "http://www.w3.org/Graphics/SVG/1.1/DTD/svg11.dtd">
<svg version="1.1" id="Layer_1" xmlns="http://www.w3.org/2000/svg" xmlns:xlink="http://www.w3.org/1999/xlink" x="0px" y="0px"
	 width="12px" height="12px" viewBox="0 0 12 12" enable-background="new 0 0 12 12" xml:space="preserve">
<path fill="#8F8F8E" d="M2.431,12c-0.044,0-0.088-0.018-0.126-0.045c-0.064-0.051-0.1-0.137-0.084-0.221l0.664-4.063L0.07,4.796
	c-0.059-0.06-0.078-0.149-0.054-0.231c0.026-0.08,0.093-0.141,0.174-0.153l3.886-0.593l1.737-3.695C5.85,0.047,5.924,0,6.005,0l0,0
	c0.082,0,0.156,0.049,0.193,0.125l1.738,3.695l3.885,0.593c0.08,0.012,0.147,0.072,0.174,0.153c0.025,0.082,0.006,0.172-0.055,0.231
	L9.13,7.674l0.664,4.061c0.014,0.084-0.021,0.17-0.086,0.221c-0.066,0.051-0.153,0.063-0.226,0.021l-3.476-1.918l-3.476,1.918
	C2.5,11.99,2.465,12,2.431,12z M0.683,4.793l2.58,2.642c0.052,0.053,0.073,0.125,0.062,0.199l-0.608,3.729l3.188-1.76
	c0.064-0.037,0.137-0.037,0.201,0l3.189,1.76L8.685,7.635C8.674,7.561,8.695,7.488,8.749,7.436l2.578-2.642L7.763,4.25
	c-0.071-0.01-0.131-0.057-0.162-0.123L6.003,0.734L4.41,4.126C4.379,4.191,4.318,4.238,4.246,4.25L0.683,4.793z"/>
</svg>
