<?xml version="1.0" encoding="iso-8859-1"?>
<!-- Generator: Adobe Illustrator 17.1.0, SVG Export Plug-In . SVG Version: 6.00 Build 0)  -->
<!DOCTYPE svg PUBLIC "-//W3C//DTD SVG 1.1//EN" "http://www.w3.org/Graphics/SVG/1.1/DTD/svg11.dtd">
<svg version="1.1" id="Capa_1" xmlns="http://www.w3.org/2000/svg" xmlns:xlink="http://www.w3.org/1999/xlink" x="0px" y="0px"
	 viewBox="0 0 418.713 418.713" style="enable-background:new 0 0 418.713 418.713;" xml:space="preserve">
<g>
	<path d="M376.633,0c-4.431,0-6.981,4.388-8.709,8.211c-0.211,0.467-21.635,46.949-66.566,66.356
		c-41.447,17.902-160.885,39.673-162.086,39.891c-10.58,1.917-18.868,11.843-18.868,22.595v62.116
		c0,10.668,8.595,20.553,19.16,22.036c0.232,0.032,4.79,0.68,12.274,1.86c0.719,0.113,2.236,0.434,2.236,2.809v156.132
		c0,7.069,4.158,15.735,9.671,20.158l11.456,9.191c5.143,4.126,14.336,7.358,20.929,7.358h46.036c4.018,0,7.772-1.578,10.57-4.443
		c2.798-2.865,4.287-6.655,4.192-10.672l-0.481-20.35c-0.165-6.968-4.278-15.646-9.568-20.186l-21.274-18.255
		c-3.213-2.757-6.645-9.09-7.199-13.287l-1.227-9.275c-0.162-1.433,0.771-1.895,1.23-2.191c6.552-4.218,10.9-11.575,10.9-19.93
		v-10.383c0-11.247-7.881-20.682-18.41-23.088c-0.365-0.083-1.195-0.154-1.244-1.289l-3.914-29.592
		c-0.62-2.773,1.311-2.774,2.177-2.597c34.91,7.15,73.932,17.007,92.881,28.195c44.654,26.365,66.268,66.871,66.479,67.273
		c1.728,3.306,4.544,7.702,9.028,7.703h0.001c1.083,0,4.739-0.361,6.416-4.99c0.628-1.735,0.934-3.938,0.934-6.736V11.601
		C383.657,2.013,379.837,0,376.633,0z"/>
	<path d="M89.703,117.121h-3.656c-28.116,0-50.991,22.875-50.991,50.991s22.875,50.991,50.991,50.991h5.157
		c3.557,0,9.2-2.675,9.2-9.853v-82C100.403,120.67,94.89,117.121,89.703,117.121z"/>
</g>
<g>
</g>
<g>
</g>
<g>
</g>
<g>
</g>
<g>
</g>
<g>
</g>
<g>
</g>
<g>
</g>
<g>
</g>
<g>
</g>
<g>
</g>
<g>
</g>
<g>
</g>
<g>
</g>
<g>
</g>
</svg>
