<?xml version="1.0" encoding="utf-8"?>
<!-- Generator: Adobe Illustrator 16.0.0, SVG Export Plug-In . SVG Version: 6.00 Build 0)  -->
<!DOCTYPE svg PUBLIC "-//W3C//DTD SVG 1.1//EN" "http://www.w3.org/Graphics/SVG/1.1/DTD/svg11.dtd">
<svg version="1.1" id="Layer_1" xmlns="http://www.w3.org/2000/svg" xmlns:xlink="http://www.w3.org/1999/xlink" x="0px" y="0px"
	 width="600px" height="600px" viewBox="0 0 600 600" enable-background="new 0 0 600 600" xml:space="preserve">
<g>
	<g>
		<g>
			<circle fill="#FF0000" cx="299.063" cy="298.063" r="290.063"/>
		</g>
		<g>
			<path opacity="0.302" fill="#035287" d="M505.039,93.764c113.276,113.282,113.285,296.943,0,410.232
				c-113.278,113.277-296.956,113.281-410.236,0L505.039,93.764z"/>
		</g>
	</g>
</g>
<g>
	<path fill-rule="evenodd" clip-rule="evenodd" fill="#FFFFFF" d="M307.124,315.58c0-8.447,0-16.268,0-24.829
		c23.486,1.766,39.898-14.53,59.828-22.901c-7.875-2.95-15.75-5.9-24.412-9.145c5.164-7.874,9.986-15.225,14.994-22.859
		c13.371,4.912,26.316,9.835,39.41,14.327c2.477,0.851,5.959,0.863,8.273-0.23c16.135-7.625,32.066-15.684,48.113-23.499
		c2.941-1.431,5.324-2.832,3.479-7.41c-6.363,0.278-13.051,0.499-19.727,0.876c-24.969,1.411-49.93,2.973-74.906,4.215
		c-3.809,0.19-6.107,1.324-8.074,4.613c-5.58,9.329-11.508,18.45-17.43,27.861c-10.619-3.877-20.807-7.597-31.662-11.56
		c12.73-20.259,25.148-40.014,37.902-60.309c8.219,3.896,16.082,8,24.262,11.334c3.85,1.568,8.348,2.493,12.477,2.28
		c37.266-1.916,74.514-4.152,111.77-6.28c0.783-0.044,1.576,0.079,2.998,0.159c0.16,1.663,0.461,3.352,0.467,5.042
		c0.043,10.72-0.121,21.444,0.102,32.161c0.078,3.68-1.107,5.625-4.492,7.248c-16.629,7.975-33.115,16.242-49.648,24.413
		c-1.762,0.87-3.5,1.792-6.182,3.171c15.447,5.675,29.896,11.55,44.744,16.139c5.396,1.667,11.74,0.268,18.52,0.268
		c0,6.912,0.178,13.998-0.178,21.058c-0.059,1.152-2.418,3.057-3.805,3.145c-12.576,0.789-24.859,1.83-37.246-3.709
		c-16.43-7.345-33.697-12.849-50.73-18.784c-2.596-0.905-6.289-0.762-8.762,0.408c-17.744,8.398-35.703,16.478-52.787,26.095
		C332.479,315.604,320.028,314.195,307.124,315.58z"/>
	<path fill-rule="evenodd" clip-rule="evenodd" fill="#FFFFFF" d="M201.487,208.642c12.909-0.75,24.753-1.439,37.461-2.179
		c0,35.627,0,70.817,0,106.813c15.565-0.822,30.271-1.6,45.358-2.395c0,8.42,0,16.084,0,24.549
		c-9.662,0.621-19.294,1.289-28.934,1.846c-11.294,0.654-22.588,1.32-33.891,1.746c-3.924,0.148-6.499,1.676-8.86,4.826
		c-15.112,20.164-30.485,40.133-45.589,60.303c-2.484,3.318-5.119,4.775-9.315,4.969c-17.443,0.799-34.868,2.023-52.306,3.016
		c-3.345,0.189-6.708,0.025-10.521,0.025c0-7.832,0-15.641,0-24.191c10.704-0.629,21.347-1.656,31.996-1.732
		c6.16-0.045,10.147-2.021,13.755-7.105c8.681-12.234,18.009-24.008,27.805-36.926c-25.465,1.418-49.704,2.77-74.458,4.148
		c0-8.348,0-16.158,0-24.672c35.694-2.066,71.256-4.125,107.499-6.223C201.487,279.842,201.487,244.622,201.487,208.642z"/>
	<path fill-rule="evenodd" clip-rule="evenodd" fill="#FFFFFF" d="M383.558,317.656c0-3.973,0-7.49,0-11.955
		c12.477-0.719,24.584-1.416,37.111-2.139c0.244,4.301,0.453,7.965,0.689,12.117c25.482-1.426,50.563-2.826,76.143-4.258
		c0,8.281,0,16.08,0,24.654c-25.355,1.49-50.611,2.973-76.473,4.494c0,14.52,0,28.549,0,42.58c0,11.084-0.002,11.031-10.813,11.539
		c-8.514,0.398-17.02,0.947-26.209,1.469c0-17.748,0-35.094,0-53.457c-25.912,1.43-51.127,2.822-77.143,4.258
		c0-7.611-0.275-14.727,0.258-21.777c0.094-1.244,3.52-3.076,5.498-3.203c22.18-1.436,44.379-2.588,66.572-3.83
		C380.364,318.084,381.528,317.889,383.558,317.656z"/>
	<path fill-rule="evenodd" clip-rule="evenodd" fill="#FFFFFF" d="M218.933,345.752c13.539-0.732,25.981-1.467,38.433-1.986
		c1.284-0.055,3.299,0.813,3.836,1.846c9.454,18.211,18.733,36.512,28.575,55.828c-10.121,0.547-19.416,0.256-28.414,1.746
		c-10.349,1.715-15.4-2.135-19.471-11.496C235.217,376.344,226.992,361.67,218.933,345.752z"/>
	<path fill-rule="evenodd" clip-rule="evenodd" fill="#FFFFFF" d="M306.935,400.561c3.668-7.186,6.852-13.465,10.074-19.723
		c3.799-7.383,7.973-14.596,11.332-22.172c2.135-4.811,5.012-6.84,10.271-6.914c9.797-0.141,19.586-0.883,30.479-1.432
		c-3.516,6.889-6.516,12.809-9.553,18.707c-3.709,7.207-7.941,14.195-11.018,21.66c-2.555,6.195-6.32,8.58-12.902,8.555
		C326.411,399.211,317.198,400.045,306.935,400.561z"/>
	<path fill-rule="evenodd" clip-rule="evenodd" fill="#FFFFFF" d="M440.249,346.074c12.615-0.668,24.025-1.332,35.445-1.783
		c1.092-0.045,2.691,0.945,3.289,1.922c8.541,13.977,16.949,28.031,26.031,43.137c-12.625,0.65-24.188,1.328-35.762,1.715
		c-1.143,0.039-2.74-1.447-3.463-2.631C457.442,374.758,449.222,361.002,440.249,346.074z"/>
	<path fill-rule="evenodd" clip-rule="evenodd" fill="#FFFFFF" d="M109.417,220.941c14.09-0.727,26.528-1.452,38.976-1.898
		c1.452-0.052,3.407,1.073,4.372,2.264c9.225,11.369,18.286,22.871,28.266,35.431c-3.774,0.295-6.578,0.57-9.388,0.724
		c-9.307,0.508-18.612,1.066-27.926,1.373c-1.783,0.059-4.314-0.353-5.287-1.541C128.921,245.687,119.67,233.868,109.417,220.941z"
		/>
	<path fill-rule="evenodd" clip-rule="evenodd" fill="#FFFFFF" d="M109.571,268.217c13.878-0.832,26.465-1.635,39.061-2.261
		c1.16-0.057,2.775,0.693,3.511,1.607c9.407,11.691,18.69,23.481,28.866,36.333c-8.764,0.512-16.533,0.035-23.868,1.598
		c-13.267,2.828-21.846-1.936-28.775-13.12C123.23,284.083,116.389,276.852,109.571,268.217z"/>
</g>
</svg>
