<?xml version="1.0" encoding="utf-8"?>
<!-- Generator: Adobe Illustrator 25.0.0, SVG Export Plug-In . SVG Version: 6.00 Build 0)  -->
<svg version="1.1" id="Layer_1" xmlns="http://www.w3.org/2000/svg" xmlns:xlink="http://www.w3.org/1999/xlink" x="0px" y="0px"
	 viewBox="0 0 64 64" style="enable-background:new 0 0 64 64;" xml:space="preserve">
<style type="text/css">
	.st0{fill:#1D1D1B;}
</style>
<g>
	<path class="st0" d="M47.3,34.9l11-11c4.5-4.5,4.5-11.9,0-16.4l-1.8-1.8c-4.5-4.5-11.9-4.5-16.4,0l-11,11c-2.5,2.5-3.6,5.8-3.4,9.1
		c-3.3-0.3-6.6,0.9-9.1,3.4l-11,11c-4.5,4.5-4.5,11.9,0,16.4l1.8,1.8c4.5,4.5,11.9,4.5,16.4,0l11-11c2.5-2.5,3.6-5.8,3.4-9.1
		C41.5,38.5,44.8,37.4,47.3,34.9z M31,43.4l-11,11c-2.4,2.4-6.2,2.4-8.6,0l-1.8-1.8c-2.4-2.4-2.4-6.2,0-8.6l11-11
		c2-2,5.1-2.3,7.4-0.9l-4.6,4.6c-1.1,1.1-1.1,2.8,0,3.9c1.1,1.1,2.8,1.1,3.9,0l4.6-4.6C33.3,38.4,33,41.4,31,43.4z M36,31.9l4.6-4.6
		c1.1-1.1,1.1-2.8,0-3.9c-1.1-1.1-2.8-1.1-3.9,0L32.1,28c-1.4-2.3-1.1-5.4,0.9-7.4l11-11c2.4-2.4,6.2-2.4,8.6,0l1.8,1.8
		c2.4,2.4,2.4,6.2,0,8.6l-11,11C41.4,33,38.4,33.3,36,31.9z"/>
</g>
</svg>
