<?xml version="1.0" encoding="utf-8"?>
<!-- Generator: Adobe Illustrator 25.0.0, SVG Export Plug-In . SVG Version: 6.00 Build 0)  -->
<svg version="1.1" id="Layer_1" xmlns="http://www.w3.org/2000/svg" xmlns:xlink="http://www.w3.org/1999/xlink" x="0px" y="0px"
	 viewBox="0 0 64 64" style="enable-background:new 0 0 64 64;" xml:space="preserve">
<style type="text/css">
	.st0{fill:#1D1D1B;stroke:#1D1D1B;stroke-width:2;stroke-miterlimit:10;}
</style>
<g>
	<path class="st0" d="M47.6,31.2l-22-15c-0.3-0.2-0.7-0.2-1-0.1C24.2,16.3,24,16.6,24,17v30c0,0.4,0.2,0.7,0.5,0.9
		C24.7,48,24.8,48,25,48s0.4-0.1,0.6-0.2l22-15c0.3-0.2,0.4-0.5,0.4-0.8S47.8,31.4,47.6,31.2z M26,45.1V18.9L45.2,32L26,45.1z"/>
	<path class="st0" d="M32,2C15.5,2,2,15.5,2,32s13.5,30,30,30s30-13.5,30-30S48.5,2,32,2z M32,60C16.6,60,4,47.4,4,32S16.6,4,32,4
		s28,12.6,28,28S47.4,60,32,60z"/>
</g>
</svg>
