<?xml version="1.0" encoding="utf-8"?>
<!-- Generator: Adobe Illustrator 16.0.0, SVG Export Plug-In . SVG Version: 6.00 Build 0)  -->
<!DOCTYPE svg PUBLIC "-//W3C//DTD SVG 1.1//EN" "http://www.w3.org/Graphics/SVG/1.1/DTD/svg11.dtd">
<svg version="1.1" id="Layer_1" xmlns="http://www.w3.org/2000/svg" xmlns:xlink="http://www.w3.org/1999/xlink" x="0px" y="0px"
	 width="618.394px" height="618.209px" viewBox="-6.394 83.606 618.394 618.209"
	 enable-background="new -6.394 83.606 618.394 618.209" xml:space="preserve">
<circle fill="#E93F2F" cx="302.803" cy="392.711" r="306"/>
<path fill="#E2342B" d="M306,90c-13.527,0-26.848,0.889-39.913,2.59C416.227,112.149,532.174,240.529,532.174,396
	S416.226,679.851,266.086,699.41c13.066,1.7,26.387,2.59,39.914,2.59c168.999,0,306-137.002,306-306S474.999,90,306,90z"/>
<path fill="#FFFFFF" d="M502.992,322.659c1.677,21.409-2.003,47.067-16.379,48.337c-23.477,2.068-11.233-23.362-10.924-38.666
	c0.863-44.365-37.642-75.184-75.362-75.184c-10.681,0-35.509,7.131-31.683-15.043c1.726-9.768,10.144-9.638,18.561-10.745
	C450.65,223.054,498.531,265.954,502.992,322.659z"/>
<path fill="#FFFFFF" d="M399.235,374.203c27.271,14.668,60.026,21.979,54.605,65.513c-1.303,10.436-7.717,24.371-14.197,33.277
	c-46.09,63.462-185.125,90.129-271.933,41.906c-29.11-16.183-59.245-39.855-54.605-87.004c4.005-40.587,31.747-72.024,58.984-98.806
	c25.984-25.56,53.368-45.553,90.634-54.768c40.441-9.996,52.391,23.151,41.5,55.842c23.428-1.547,73.067-27.253,95.013-2.149
	C408.906,339.085,405.21,358.899,399.235,374.203z M369.752,477.308c8.742-9.735,17.518-24.584,17.469-41.873
	c-0.114-53.368-68.492-73.1-122.299-68.737c-29.435,2.376-49.232,8.482-69.893,20.416c-16.867,9.736-36.599,25.577-41.499,49.395
	c-11.038,53.58,48.207,78.766,91.725,81.631C295.529,521.444,345.852,503.992,369.752,477.308z"/>
<path fill="#FFFFFF" d="M449.461,322.659c2.296,16.346-2.474,30.526-12.015,31.145c-15.906,1.042-9.964-10.713-10.924-24.698
	c-0.603-8.612-7.863-18.56-14.197-21.491c-12.422-5.73-31.665,4.168-31.665-12.877c0-12.667,11.168-11.348,17.485-11.82
	C425.789,280.851,446.238,299.589,449.461,322.659z"/>
<path fill="#FFFFFF" d="M321.708,430.062c23.265,69.16-97.96,101.313-120.134,41.89c-14.832-39.74,20.79-71.357,57.877-75.184
	C291.117,393.495,314.724,409.385,321.708,430.062L321.708,430.062z M265.996,441.882c4.933,8.4,16.281,2.36,15.288-4.299
	C280.095,429.883,265.898,431.022,265.996,441.882z M246.345,478.397c20.383-4.77,23.118-42.524-7.652-35.441
	C212.856,448.882,217.854,485.058,246.345,478.397z"/>
</svg>
