<?xml version="1.0" encoding="utf-8"?>
<!-- Generator: Adobe Illustrator 16.0.0, SVG Export Plug-In . SVG Version: 6.00 Build 0)  -->
<!DOCTYPE svg PUBLIC "-//W3C//DTD SVG 1.1//EN" "http://www.w3.org/Graphics/SVG/1.1/DTD/svg11.dtd">
<svg version="1.1" id="Layer_1" xmlns="http://www.w3.org/2000/svg" xmlns:xlink="http://www.w3.org/1999/xlink" x="0px" y="0px"
	 width="46px" height="46px" viewBox="0 0 46 46" enable-background="new 0 0 46 46" xml:space="preserve">
<path fill="#2C699A" d="M-6.5-2.5v51.333h59.334V-2.5H-6.5z M7.077,23c0-2.31,0.494-4.5,1.378-6.48l7.598,20.806
	C10.739,34.748,7.077,29.298,7.077,23z M23.002,38.923c-1.564,0-3.073-0.229-4.5-0.646l4.78-13.882l4.895,13.406
	c0.03,0.08,0.069,0.148,0.112,0.217C26.633,38.601,24.855,38.923,23.002,38.923z M25.194,15.537
	c0.963-0.053,1.821-0.152,1.821-0.152c0.859-0.105,0.758-1.363-0.099-1.314c0,0-2.581,0.204-4.245,0.204
	c-1.565,0-4.192-0.204-4.192-0.204c-0.859-0.049-0.96,1.262-0.104,1.314c0,0,0.813,0.099,1.67,0.152l2.482,6.795l-3.485,10.45
	l-5.8-17.245c0.964-0.053,1.823-0.152,1.823-0.152c0.86-0.104,0.759-1.362-0.097-1.313c0,0-2.581,0.204-4.247,0.204
	c-0.299,0-0.651-0.007-1.024-0.021c2.846-4.321,7.74-7.176,13.305-7.176c4.146,0,7.919,1.586,10.751,4.183
	c-0.067-0.006-0.136-0.014-0.204-0.014c-1.566,0-2.674,1.361-2.674,2.825c0,1.314,0.756,2.422,1.563,3.734
	c0.604,1.059,1.312,2.424,1.312,4.393c0,1.362-0.404,3.077-1.211,5.146l-1.588,5.306L25.194,15.537z M31.009,36.762l4.86-14.061
	c0.91-2.272,1.213-4.087,1.213-5.701c0-0.587-0.04-1.129-0.107-1.64c1.243,2.27,1.948,4.871,1.948,7.641
	C38.923,28.874,35.74,34.002,31.009,36.762z"/>
</svg>
