<?xml version="1.0" encoding="utf-8"?>
<!-- Generator: Adobe Illustrator 16.0.0, SVG Export Plug-In . SVG Version: 6.00 Build 0)  -->
<!DOCTYPE svg PUBLIC "-//W3C//DTD SVG 1.1//EN" "http://www.w3.org/Graphics/SVG/1.1/DTD/svg11.dtd">
<svg version="1.1" id="Layer_1" xmlns="http://www.w3.org/2000/svg" xmlns:xlink="http://www.w3.org/1999/xlink" x="0px" y="0px"
	 width="48px" height="48px" viewBox="0 0 48 48" enable-background="new 0 0 48 48" xml:space="preserve">
<rect x="-0.065" y="-0.064" fill="#DB1F26" width="48" height="48"/>
<g>
	<g>
		<path fill="#FFFFFF" d="M34.102,24.357c-1.533-0.647-1.533-0.647-1.146-2.248c0.629-2.612-0.557-4.309-3.246-4.299
			c-1.449,0.006-2.9,0.426-4.338,0.733c-0.73,0.158-1.429,0.479-2.338,0.796c0.143-1.244,0.342-2.222,0.348-3.197
			c0.014-1.865-1.168-3.069-3.024-2.957c-1.132,0.067-2.33,0.301-3.348,0.779c-5.584,2.627-9.74,6.747-12.207,12.42
			c-0.557,1.277-0.774,2.813-0.732,4.219c0.101,3.289,2.088,5.541,4.722,7.188c5.614,3.506,11.688,4.051,17.987,2.361
			c3.885-1.041,7.227-3.008,9.646-6.314C39.232,29.996,38.273,26.121,34.102,24.357z M30.219,33.127
			c-1.152,1.66-2.732,2.797-4.559,3.588c-4.119,1.787-8.324,2.061-12.564,0.494c-0.948-0.352-1.859-0.893-2.674-1.496
			c-3.037-2.26-3.371-5.922-0.816-8.729c2.297-2.523,5.288-3.662,8.577-4.146c0.792-0.119,1.6-0.139,2.291-0.195
			c3.497,0.111,6.708,0.746,9.196,3.286C31.717,28.016,31.889,30.721,30.219,33.127z M43.803,18.301
			c0.041,1.101-0.42,1.75-1.277,1.813c-0.885,0.062-1.473-0.587-1.523-1.695c-0.24-4.903-3.883-8.545-8.828-8.821
			c-1.18-0.065-1.779-0.582-1.732-1.479c0.051-0.898,0.729-1.379,1.863-1.318C38.66,7.14,43.576,12.058,43.803,18.301z M38.164,18.2
			c0.262,0.979-0.088,1.69-0.908,1.918c-0.83,0.229-1.518-0.181-1.777-1.156c-0.563-2.086-1.898-3.359-3.963-3.9
			c-0.807-0.211-1.229-0.729-1.131-1.536c0.092-0.753,0.57-1.194,1.619-1.209c0.324,0.101,0.895,0.222,1.418,0.442
			C35.879,13.799,37.471,15.616,38.164,18.2z M21.568,33.107c-1.5,1.652-4.154,2.197-6.189,1.268
			c-2.611-1.193-3.074-4.234-0.937-6.15c1.079-0.969,2.353-1.408,3.81-1.492c0.621,0.145,1.264,0.229,1.858,0.441
			C22.71,28.102,23.424,31.061,21.568,33.107z"/>
	</g>
</g>
</svg>
