<?xml version="1.0" encoding="utf-8"?>
<!-- Generator: Adobe Illustrator 16.0.0, SVG Export Plug-In . SVG Version: 6.00 Build 0)  -->
<!DOCTYPE svg PUBLIC "-//W3C//DTD SVG 1.1//EN" "http://www.w3.org/Graphics/SVG/1.1/DTD/svg11.dtd">
<svg version="1.1" id="Capa_1" xmlns="http://www.w3.org/2000/svg" xmlns:xlink="http://www.w3.org/1999/xlink" x="0px" y="0px"
	 width="46px" height="46px" viewBox="0 0 46 46" enable-background="new 0 0 46 46" xml:space="preserve">
<path fill="#005FE8" d="M0-0.417V46h46V-0.417H0z"/>
<g>
	<g>
		<path fill="#FFFFFF" d="M37.666,13.855l-0.529,0.168l-2.822,0.251l-0.797,1.272l-0.579-0.183l-2.246-2.025l-0.324-1.052
			l-0.438-1.123L28.52,9.897l-1.664-0.326l-0.039,0.762l1.632,1.592l0.798,0.94l-0.897,0.469l-0.73-0.215l-1.095-0.457l0.036-0.883
			l-1.436-0.591l-0.477,2.075L23.2,13.592l0.143,1.158l1.887,0.363l0.325-1.85l1.557,0.23l0.724,0.424h1.161l0.795,1.592
			l2.107,2.137l-0.155,0.831l-1.698-0.216l-2.936,1.483l-2.113,2.534l-0.275,1.123h-0.76l-1.413-0.652l-1.374,0.652l0.341,1.45
			l0.598-0.69l1.051-0.031l-0.074,1.301l0.87,0.255l0.87,0.976l1.419-0.398l1.621,0.256l1.883,0.506l0.94,0.11l1.594,1.811
			l3.076,1.809l-1.989,3.801l-2.101,0.976l-0.797,2.174l-3.04,2.028l-0.323,1.171c7.77-1.872,13.55-8.852,13.55-17.195
			C40.662,20.063,39.558,16.67,37.666,13.855z"/>
		<path fill="#FFFFFF" d="M24.994,32.962l-1.289-2.391l1.184-2.466l-1.184-0.354l-1.33-1.335l-2.944-0.66l-0.978-2.046v1.215h-0.431
			l-2.538-3.442v-2.825l-1.86-3.025l-2.953,0.527h-1.99l-1.001-0.656l1.277-1.012l-1.274,0.294
			c-1.536,2.623-2.431,5.665-2.431,8.924c0,9.777,7.926,17.707,17.705,17.707c0.753,0,1.491-0.067,2.223-0.155l-0.185-2.145
			c0,0,0.813-3.186,0.813-3.294C25.807,35.712,24.994,32.962,24.994,32.962z"/>
		<path fill="#FFFFFF" d="M11.833,11.71l3.146-0.439l1.45-0.794l1.632,0.47l2.605-0.145l0.893-1.403l1.302,0.214l3.162-0.297
			l0.872-0.96l1.229-0.821l1.738,0.262l0.633-0.096C28.205,6.624,25.657,6,22.958,6c-5.496,0-10.409,2.505-13.655,6.438h0.009
			L11.833,11.71z M23.706,7.761l1.808-0.995l1.162,0.67l-1.682,1.28l-1.605,0.161l-0.722-0.469L23.706,7.761z M18.351,7.906
			l0.798,0.333l1.044-0.333l0.569,0.986l-2.412,0.634l-1.16-0.679C17.189,8.848,18.324,8.117,18.351,7.906z"/>
	</g>
</g>
</svg>
