<?xml version="1.0" encoding="utf-8"?>
<!-- Generator: Adobe Illustrator 16.0.0, SVG Export Plug-In . SVG Version: 6.00 Build 0)  -->
<!DOCTYPE svg PUBLIC "-//W3C//DTD SVG 1.1//EN" "http://www.w3.org/Graphics/SVG/1.1/DTD/svg11.dtd">
<svg version="1.1" id="Layer_1" xmlns="http://www.w3.org/2000/svg" xmlns:xlink="http://www.w3.org/1999/xlink" x="0px" y="0px"
	 width="48px" height="48px" viewBox="0 0 48 48" enable-background="new 0 0 48 48" xml:space="preserve">
<g>
	<g>
		<g>
			<circle fill="#EF4626" cx="17.652" cy="26.696" r="2.876"/>
			<path fill="#EF4626" d="M0-0.002v48.004h48V-0.002H0z M42.445,29.791c-0.672,6.705-8.629,12.016-18.332,12.016
				c-9.637,0-17.555-5.244-18.316-11.885c-1.861-1.115-3.125-3.17-3.125-5.549c0-3.551,2.797-6.439,6.232-6.439
				c1.25,0,2.404,0.383,3.385,1.037c-0.059,0.039-0.111,0.086-0.168,0.125c2.906-1.764,6.594-2.891,10.643-3.1l3.248-9.313
				l6.953,1.664c0.854-1.385,2.375-2.322,4.121-2.322c2.68,0,4.863,2.18,4.863,4.859c0,2.684-2.184,4.861-4.863,4.861
				c-2.676,0-4.857-2.178-4.857-4.861c0-0.164,0.031-0.316,0.045-0.479l-4.865-1.164l-2.344,6.74
				c4.068,0.145,7.799,1.211,10.758,2.93c0.959-0.613,2.074-0.979,3.279-0.979c3.434,0,6.232,2.889,6.232,6.439
				C45.332,26.65,44.176,28.648,42.445,29.791z"/>
			<circle fill="#EF4626" cx="30.008" cy="26.698" r="2.874"/>
			<path fill="#EF4626" d="M29.551,33.09c-6.094,4.016-11.004,0.229-11.225,0.059c-0.463-0.377-1.143-0.299-1.514,0.162
				c-0.375,0.465-0.301,1.145,0.16,1.521c0.041,0.033,2.848,2.242,6.922,2.242c2.025,0,4.375-0.545,6.848-2.182
				c0.498-0.328,0.633-0.998,0.305-1.5C30.719,32.898,30.047,32.76,29.551,33.09z"/>
		</g>
	</g>
</g>
</svg>
