<?xml version="1.0" encoding="utf-8"?>
<!-- Generator: Adobe Illustrator 16.0.0, SVG Export Plug-In . SVG Version: 6.00 Build 0)  -->
<!DOCTYPE svg PUBLIC "-//W3C//DTD SVG 1.1//EN" "http://www.w3.org/Graphics/SVG/1.1/DTD/svg11.dtd">
<svg version="1.1" id="Capa_1" xmlns="http://www.w3.org/2000/svg" xmlns:xlink="http://www.w3.org/1999/xlink" x="0px" y="0px"
	 width="46px" height="46px" viewBox="0 0 46 46" enable-background="new 0 0 46 46" xml:space="preserve">
<g>
	<rect fill="#F89029" width="46" height="46"/>
	<path fill="#FFFFFF" d="M35.32,19.202h-1.421c-1.112,0-2.013-0.901-2.013-2.013v-0.14c0-4.668-3.785-8.453-8.453-8.453H17.12
		c-4.668,0-8.453,3.785-8.453,8.453v11.903c0,4.669,3.785,8.453,8.453,8.453h11.76c4.669,0,8.453-3.784,8.453-8.453v-7.736
		C37.333,20.103,36.432,19.202,35.32,19.202z M17.482,15.905h6.737c0.91,0,1.648,0.738,1.648,1.648c0,0.91-0.738,1.648-1.648,1.648
		h-6.737c-0.911,0-1.648-0.738-1.648-1.648C15.833,16.643,16.571,15.905,17.482,15.905z M28.662,30.095h-11.18
		c-0.911,0-1.648-0.737-1.648-1.647c0-0.911,0.738-1.648,1.648-1.648h11.18c0.91,0,1.648,0.737,1.648,1.648
		C30.311,29.357,29.572,30.095,28.662,30.095z"/>
</g>
</svg>
