<?xml version="1.0" encoding="utf-8"?>
<!-- Generator: Adobe Illustrator 16.0.0, SVG Export Plug-In . SVG Version: 6.00 Build 0)  -->
<!DOCTYPE svg PUBLIC "-//W3C//DTD SVG 1.1//EN" "http://www.w3.org/Graphics/SVG/1.1/DTD/svg11.dtd">
<svg version="1.1" id="Layer_1" xmlns="http://www.w3.org/2000/svg" xmlns:xlink="http://www.w3.org/1999/xlink" x="0px" y="0px"
	 width="46px" height="46px" viewBox="0 0 46 46" enable-background="new 0 0 46 46" xml:space="preserve">
<rect x="-10.083" y="-3.388" fill="#D8362A" width="67.167" height="52.777"/>
<path fill="#D8362A" d="M41.606,14.81c0,0-0.393-2.817-1.506-4.062C38.658,9.11,37.021,9.11,36.3,9.045
	C30.993,8.651,23,8.586,23,8.586l0,0c0,0-7.993,0.065-13.3,0.458c-0.72,0.065-2.358,0.131-3.8,1.703
	c-1.179,1.245-1.507,4.062-1.507,4.062S4,18.151,4,21.493v3.079c0,3.342,0.393,6.617,0.393,6.617s0.393,2.817,1.507,4.063
	c1.441,1.639,3.341,1.572,4.193,1.769C13.106,37.349,23,37.414,23,37.414s7.993,0,13.3-0.459c0.721-0.064,2.358-0.131,3.801-1.703
	c1.113-1.245,1.506-4.063,1.506-4.063S42,27.849,42,24.572v-3.079C42,18.151,41.606,14.81,41.606,14.81"/>
<polygon fill="#FFFFFF" points="16.035,13.667 16.035,33.316 33.24,23.718 "/>
</svg>
