<?xml version="1.0" encoding="utf-8"?>
<!-- Generator: Adobe Illustrator 16.0.0, SVG Export Plug-In . SVG Version: 6.00 Build 0)  -->
<!DOCTYPE svg PUBLIC "-//W3C//DTD SVG 1.1//EN" "http://www.w3.org/Graphics/SVG/1.1/DTD/svg11.dtd">
<svg version="1.1" id="Layer_1" xmlns="http://www.w3.org/2000/svg" xmlns:xlink="http://www.w3.org/1999/xlink" x="0px" y="0px"
	 width="600px" height="600px" viewBox="0 0 600 600" enable-background="new 0 0 600 600" xml:space="preserve">
<g>
	<g>
		<circle fill="#1D7CED" cx="300.076" cy="301.618" r="290.062"/>
		<g>
			<path opacity="0.302" fill="#044F8C" d="M506.051,97.32c113.276,113.282,113.285,296.941,0,410.231
				c-113.278,113.277-296.956,113.281-410.236,0L506.051,97.32z"/>
		</g>
	</g>
</g>
<g>
	<path fill-rule="evenodd" clip-rule="evenodd" fill="#FFFFFF" stroke="#FFFFFF" stroke-width="8" stroke-miterlimit="10" d="
		M223.423,319.298c-22.609,0-45.097,0-67.941,0c0.852-3.207,1.53-6.213,2.453-9.141c1.458-4.622,3.394-9.021,6.629-12.741
		c1.235-1.42,2.596-2.079,4.591-2.069c18.344,0.085,36.688,0.05,55.032,0.05c0.603,0,1.205,0,2.057,0
		c0.149-25.236-0.684-50.342-1.128-75.53c-0.619-0.029-1.067-0.068-1.516-0.068c-8.639-0.003-17.278,0.018-25.916-0.028
		c-1.126-0.006-1.525,0.321-1.789,1.441c-4.053,17.208-14.402,28.759-31.222,34.339c-2.084,0.691-4.367,0.979-6.572,1.061
		c-2.327,0.085-2.899-1.021-1.878-3.118c3.577-7.343,7.368-14.587,10.743-22.021c6.265-13.8,10.839-28.198,14.734-42.833
		c2.4-9.016,6.466-17.199,13.315-23.744c6.121-5.852,13.402-9.234,21.886-9.91c0.399-0.032,0.805-0.004,1.423-0.004
		c-6.632,13.418-9.799,27.75-13.004,42.314c0.83,0,1.472,0,2.116,0c29.879,0,59.758,0,89.638,0c2.932,0,3.896,0.623,4.998,3.458
		c1.619,4.165,2.078,8.565,2.451,12.97c0.166,1.959,0.238,3.927,0.36,6.018c-17.737,0-35.301,0-53.039,0
		c-0.973,25.213-1.942,50.314-2.922,75.656c0.593,0,1.179,0,1.765,0c17.43,0,34.859,0.015,52.289-0.032
		c1.271-0.003,2.012,0.365,2.686,1.444c3.817,6.114,6.247,14.864,6.053,22.417c-21.342,0-42.693,0-64.191,0
		c-1.02,13.554-3.906,26.552-7.616,39.841c4.862-3.597,9.368-6.931,13.988-10.35c1.818,2.026,3.613,4.018,5.398,6.018
		c11.439,12.81,22.85,25.645,34.347,38.401c1.406,1.56,2.135,3.241,2.527,5.217c2.189,11.036,1.231,21.82-2.507,32.392
		c-0.05,0.141-0.133,0.271-0.301,0.608c-18.607-21.413-37.15-42.752-55.887-64.313c-0.257,0.744-0.453,1.284-0.63,1.828
		c-5.4,16.678-11.75,32.975-19.801,48.564c-5.184,10.038-12.257,18.401-22.329,23.923c-7.005,3.839-14.583,5.9-22.448,6.762
		c-5.639,0.616-11.333,0.742-17.008,0.977c-1.073,0.044-2.208-0.323-3.242-0.699c-0.973-0.352-1.104-1.15-0.415-1.945
		c0.396-0.455,0.879-0.84,1.351-1.225c12.095-9.822,23.563-20.28,33.331-32.495c7.145-8.936,12.359-19.03,17.998-28.913
		c9.456-16.568,13.996-34.614,17.313-53.115c0.6-3.348,1.136-6.704,1.694-10.06C223.353,320.256,223.368,319.862,223.423,319.298z"
		/>
	<path fill-rule="evenodd" clip-rule="evenodd" fill="#FFFFFF" stroke="#FFFFFF" stroke-width="8" stroke-miterlimit="10" d="
		M325.268,415.489c0-74.337,0-148.491,0-222.764c41.501,0,82.983,0,124.59,0c0,74.148,0,148.345,0,222.764c-0.557,0-1.146,0-1.735,0
		c-15.953,0-31.906-0.012-47.859,0.034c-0.896,0.003-1.919,0.292-2.664,0.782c-12.691,8.326-25.35,16.706-38.015,25.072
		c-0.411,0.271-0.84,0.514-1.417,0.864c-0.934-2.595-1.823-5.061-2.708-7.527c-2.138-5.968-4.307-11.925-6.378-17.915
		c-0.374-1.083-0.914-1.339-1.969-1.332c-6.706,0.041-13.413,0.021-20.118,0.021C326.448,415.489,325.901,415.489,325.268,415.489z
		 M366.065,413.377c0.646-0.415,1.11-0.704,1.565-1.006c10.125-6.686,20.238-13.39,30.394-20.031
		c0.784-0.512,1.854-0.817,2.796-0.826c7.772-0.063,15.546-0.035,23.319-0.035c0.54,0,1.08,0,1.603,0c0-58.124,0-116.055,0-173.958
		c-25.313,0-50.49,0-75.659,0c0,58.036,0,115.971,0,173.958c2.258,0,4.396,0.091,6.521-0.033c1.313-0.078,1.82,0.424,2.233,1.611
		C361.164,399.758,363.583,406.429,366.065,413.377z"/>
</g>
</svg>
