<?xml version="1.0" encoding="utf-8"?>
<!-- Generator: Adobe Illustrator 16.0.0, SVG Export Plug-In . SVG Version: 6.00 Build 0)  -->
<!DOCTYPE svg PUBLIC "-//W3C//DTD SVG 1.1//EN" "http://www.w3.org/Graphics/SVG/1.1/DTD/svg11.dtd">
<svg version="1.1" id="Capa_1" xmlns="http://www.w3.org/2000/svg" xmlns:xlink="http://www.w3.org/1999/xlink" x="0px" y="0px"
	 width="10.871px" height="11px" viewBox="1.783 2 10.871 11" enable-background="new 1.783 2 10.871 11" xml:space="preserve">
<g>
	<path fill="#428BCA" d="M12.649,8.863c-0.005-0.817-0.006-1.409-0.409-1.929c-0.455-0.588-1.159-0.688-1.729-0.706
		c0.097-0.411,0.124-0.867,0.079-1.36c-0.013-1.641-1.232-2.821-2.929-2.868L7.637,2L5.045,2.002H5.016
		c-1.008,0-1.804,0.301-2.369,0.895c-0.35,0.367-0.812,1.008-0.861,2.046L1.785,9.126C1.78,9.204,1.788,9.284,1.786,9.366
		c0,1.19,0.191,2.047,0.786,2.68C3.166,12.678,4.044,13,5.183,13c0.025,0,0.048,0,0.074,0h3.961h0.009
		c1.016-0.009,1.875-0.344,2.482-0.971c0.606-0.624,0.934-1.514,0.944-2.573C12.654,9.456,12.649,9.031,12.649,8.863z M5.255,4.231
		L7.47,4.229c0.522,0.008,0.938,0.476,0.931,0.998c-0.009,0.517-0.43,0.895-0.945,0.895c-0.004,0-2.23,0.001-2.23,0.001
		c-0.523-0.008-0.939-0.438-0.931-0.96C4.303,4.639,4.733,4.227,5.255,4.231z M9.419,10.453h-4.43c-0.523,0-0.946-0.423-0.946-0.945
		c0-0.521,0.423-0.945,0.946-0.945h4.43c0.522,0,0.944,0.425,0.944,0.945C10.364,10.03,9.942,10.453,9.419,10.453z"/>
</g>
</svg>
