<?xml version="1.0" encoding="utf-8"?>
<!-- Generator: Adobe Illustrator 16.0.0, SVG Export Plug-In . SVG Version: 6.00 Build 0)  -->
<!DOCTYPE svg PUBLIC "-//W3C//DTD SVG 1.1//EN" "http://www.w3.org/Graphics/SVG/1.1/DTD/svg11.dtd">
<svg version="1.1" id="Layer_1" xmlns="http://www.w3.org/2000/svg" xmlns:xlink="http://www.w3.org/1999/xlink" x="0px" y="0px"
	 width="12.7px" height="11.703px" viewBox="1.187 0.724 12.7 11.703" enable-background="new 1.187 0.724 12.7 11.703"
	 xml:space="preserve">
<g id="Padding__x26__Artboard">
</g>
<g id="Icons">
	<g>
		<path fill="#FFFFFF" stroke="#428BCA" stroke-miterlimit="10" d="M2.95,11.927h9.218c0.639,0,1.157-0.539,1.157-1.204V4.34H1.794
			v6.382C1.792,11.388,2.31,11.927,2.95,11.927z"/>
		
			<line fill="none" stroke="#428BCA" stroke-width="0.7" stroke-linecap="round" stroke-linejoin="round" stroke-miterlimit="10" x1="11.014" y1="2.034" x2="4.062" y2="2.034"/>
		
			<path fill="none" stroke="#428BCA" stroke-width="0.7" stroke-linecap="round" stroke-linejoin="round" stroke-miterlimit="10" d="
			M11.813,2.034h0.662c0.587,0,1.063,0.478,1.063,1.068v7.756c0,0.59-0.476,1.068-1.063,1.068h-9.87
			c-0.591,0-1.068-0.479-1.068-1.068V3.102c0-0.59,0.478-1.068,1.068-1.068h0.657"/>
		
			<line fill="none" stroke="#428BCA" stroke-width="0.7" stroke-linecap="round" stroke-linejoin="round" stroke-miterlimit="10" x1="13.234" y1="4.34" x2="1.783" y2="4.34"/>
		
			<path fill="none" stroke="#428BCA" stroke-width="0.7" stroke-linecap="round" stroke-linejoin="round" stroke-miterlimit="10" d="
			M3.663,2.996L3.663,2.996c-0.219,0-0.398-0.178-0.398-0.398V1.471c0-0.218,0.179-0.397,0.398-0.397l0,0
			c0.22,0,0.398,0.179,0.398,0.397v1.127C4.061,2.818,3.883,2.996,3.663,2.996z"/>
		
			<path fill="none" stroke="#428BCA" stroke-width="0.7" stroke-linecap="round" stroke-linejoin="round" stroke-miterlimit="10" d="
			M11.413,2.996L11.413,2.996c-0.219,0-0.398-0.178-0.398-0.398V1.471c0-0.218,0.18-0.397,0.398-0.397l0,0
			c0.219,0,0.399,0.179,0.399,0.397v1.127C11.811,2.818,11.632,2.996,11.413,2.996z"/>
		
			<line fill="none" stroke="#428BCA" stroke-width="0.7" stroke-linecap="round" stroke-linejoin="round" stroke-miterlimit="10" x1="5.807" y1="2.748" x2="8" y2="2.748"/>
		
			<line fill="none" stroke="#428BCA" stroke-width="0.7" stroke-linecap="round" stroke-linejoin="round" stroke-miterlimit="10" x1="8.623" y1="2.748" x2="9.269" y2="2.748"/>
		
			<rect x="3.701" y="6.637" fill="none" stroke="#428BCA" stroke-width="0.7" stroke-linecap="round" stroke-linejoin="round" stroke-miterlimit="10" width="1.678" height="0.94"/>
		
			<rect x="6.734" y="6.637" fill="none" stroke="#428BCA" stroke-width="0.7" stroke-linecap="round" stroke-linejoin="round" stroke-miterlimit="10" width="1.677" height="0.94"/>
		
			<rect x="6.734" y="8.51" fill="none" stroke="#428BCA" stroke-width="0.7" stroke-linecap="round" stroke-linejoin="round" stroke-miterlimit="10" width="1.677" height="0.939"/>
		
			<rect x="9.697" y="6.637" fill="none" stroke="#428BCA" stroke-width="0.7" stroke-linecap="round" stroke-linejoin="round" stroke-miterlimit="10" width="1.678" height="0.94"/>
		
			<rect x="9.697" y="8.51" fill="none" stroke="#428BCA" stroke-width="0.7" stroke-linecap="round" stroke-linejoin="round" stroke-miterlimit="10" width="1.678" height="0.939"/>
		
			<rect x="3.745" y="8.51" fill="none" stroke="#428BCA" stroke-width="0.7" stroke-linecap="round" stroke-linejoin="round" stroke-miterlimit="10" width="1.677" height="0.939"/>
	</g>
</g>
</svg>
